<?xml version="1.0" encoding="iso-8859-1"?>
<!-- Generator: Adobe Illustrator 19.0.0, SVG Export Plug-In . SVG Version: 6.00 Build 0)  -->
<svg version="1.1" id="Capa_1" xmlns="http://www.w3.org/2000/svg" xmlns:xlink="http://www.w3.org/1999/xlink" x="0px" y="0px"
	 viewBox="0 0 488 488" style="enable-background:new 0 0 488 488;" xml:space="preserve">
<g>
	<path style="fill:#00F2A9;" d="M297.136,40h-105.6c-7.2,0-12.8,4.8-15.2,11.2l-28,84.8h192l-28-84.8
		C309.936,44.8,303.536,40,297.136,40z"/>
	<path style="fill:#00F2A9;" d="M176.336,476.8c2.4,6.4,8,11.2,15.2,11.2h104.8c7.2,0,12.8-4.8,15.2-11.2l28.8-84.8h-192
		L176.336,476.8z"/>
</g>
<g>
	<path style="fill:#322153;" d="M347.536,99.2l-28-82.4c-3.2-10.4-12-16.8-22.4-16.8h-105.6c-10.4,0-19.2,6.4-22.4,16.8l-27.2,82.4
		c-19.2,7.2-32.8,25.6-32.8,47.2v170.4c0,21.6,13.6,40,32.8,47.2l27.2,82.4c3.2,9.6,12.8,16.8,22.4,16.8h104.8
		c10.4,0,19.2-6.4,22.4-16.8l27.2-82.4c19.2-7.2,32.8-25.6,32.8-47.2V146.4C380.336,124.8,366.736,106.4,347.536,99.2z
		 M364.336,317.6c0,19.2-15.2,34.4-34.4,34.4h-117.6c-4.8,0-8,3.2-8,8s3.2,8,8,8h116.8l-24.8,74.4c-0.8,3.2-4,5.6-7.2,5.6h-12.8v-24
		c0-4.8-3.2-8-8-8s-8,3.2-8,8v24h-16v-56c0-4.8-3.2-8-8-8s-8,3.2-8,8v56h-16v-24c0-4.8-3.2-8-8-8s-8,3.2-8,8v24h-12.8
		c-3.2,0-6.4-2.4-7.2-5.6l-24.8-74.4h20.8c4.8,0,8-3.2,8-8s-3.2-8-8-8h-21.6c-19.2,0-34.4-15.2-34.4-34.4V146.4
		c0-19.2,15.2-34.4,34.4-34.4h117.6c4.8,0,8-3.2,8-8s-3.2-8-8-8h-116.8l24.8-74.4c0.8-3.2,4-5.6,7.2-5.6h12.8v24c0,4.8,3.2,8,8,8
		s8-3.2,8-8V16h16v24c0,4.8,3.2,8,8,8c4.8,0,8-3.2,8-8V16h44.8c3.2,0,6.4,2.4,7.2,5.6l24.8,74.4h-20.8c-4.8,0-8,3.2-8,8s3.2,8,8,8
		h21.6c19.2,0,34.4,15.2,34.4,34.4V317.6z"/>
	<path style="fill:#322153;" d="M270.736,194.4l-64,64c-3.2,3.2-3.2,8,0,11.2c1.6,1.6,4,2.4,5.6,2.4s4-0.8,5.6-2.4l64-64
		c3.2-3.2,3.2-8,0-11.2S273.936,191.2,270.736,194.4z"/>
	<path style="fill:#322153;" d="M212.336,240c2.4,0,4-0.8,5.6-2.4l32-32c3.2-3.2,3.2-8,0-11.2s-8-3.2-11.2,0l-32,32
		c-3.2,3.2-3.2,8,0,11.2C208.336,239.2,209.936,240,212.336,240z"/>
	<path style="fill:#322153;" d="M270.736,226.4l-32,32c-3.2,3.2-3.2,8,0,11.2c1.6,1.6,4,2.4,5.6,2.4s4-0.8,5.6-2.4l32-32
		c3.2-3.2,3.2-8,0-11.2S273.936,223.2,270.736,226.4z"/>
	<path style="fill:#322153;" d="M324.336,128h-160c-13.6,0-24,10.4-24,24v160c0,13.6,10.4,24,24,24h160c13.6,0,24-10.4,24-24V152
		C348.336,138.4,337.936,128,324.336,128z M332.336,312c0,4.8-3.2,8-8,8h-160c-4.8,0-8-3.2-8-8V152c0-4.8,3.2-8,8-8h160
		c4.8,0,8,3.2,8,8V312z"/>
</g>
<g>
</g>
<g>
</g>
<g>
</g>
<g>
</g>
<g>
</g>
<g>
</g>
<g>
</g>
<g>
</g>
<g>
</g>
<g>
</g>
<g>
</g>
<g>
</g>
<g>
</g>
<g>
</g>
<g>
</g>
</svg>
