<?xml version="1.0" encoding="iso-8859-1"?>
<!-- Generator: Adobe Illustrator 19.0.0, SVG Export Plug-In . SVG Version: 6.00 Build 0)  -->
<svg version="1.1" id="Capa_1" xmlns="http://www.w3.org/2000/svg" xmlns:xlink="http://www.w3.org/1999/xlink" x="0px" y="0px"
	 viewBox="0 0 464.148 464.148" style="enable-background:new 0 0 464.148 464.148;" xml:space="preserve">
<g>
	<path style="fill:#00F2A9;" d="M63.861,360.148h32c8.8,0,16-7.2,16-16v-256c0-8.8-7.2-16-16-16h-32c-8.8,0-16,7.2-16,16v256
		C47.861,352.948,55.061,360.148,63.861,360.148z"/>
	<path style="fill:#00F2A9;" d="M223.861,360.148c8.8,0,16-7.2,16-16v-256c0-8.8-7.2-16-16-16h-32c-8.8,0-16,7.2-16,16v256
		c0,8.8,7.2,16,16,16H223.861z"/>
</g>
<g>
	<path style="fill:#322153;" d="M47.861,464.148h64c12.8,0,24.8-6.4,32-16c7.2,9.6,19.2,16,32,16h64c22.4,0,40-17.6,40-40v-255.2
		l35.2,260.8c1.6,10.4,7.2,20,15.2,26.4c7.2,5.6,15.2,8,24,8c1.6,0,4,0,5.6,0l62.4-8.8l0,0c21.6-3.2,36.8-23.2,33.6-44.8l-51.2-376
		c-1.6-10.4-7.2-20-16-26.4c-8-6.4-18.4-8.8-28.8-8l-62.4,8.8c-8.8,1.6-16.8,5.6-23.2,12c-6.4-12-19.2-20.8-34.4-20.8h-64
		c-12.8,0-24.8,6.4-32,16c-7.2-9.6-19.2-16-32-16h-64c-22.4,0-40,17.6-40,40v384C7.861,446.548,25.461,464.148,47.861,464.148z
		 M299.861,24.948l62.4-8.8c0.8,0,2.4,0,3.2,0c4.8,0,9.6,1.6,13.6,4.8c4.8,4,8,9.6,8.8,16l51.2,376c1.6,12.8-7.2,24.8-20,26.4
		l-61.6,8.8c-6.4,0.8-12-0.8-16.8-4.8s-8-9.6-8.8-16l-52-376C278.261,38.548,287.061,26.548,299.861,24.948z M175.861,16.148h64
		c13.6,0,24,10.4,24,24v384c0,13.6-10.4,24-24,24h-64c-13.6,0-24-10.4-24-24v-384C151.861,26.548,162.261,16.148,175.861,16.148z
		 M23.861,40.148c0-13.6,10.4-24,24-24h64c13.6,0,24,10.4,24,24v384c0,13.6-10.4,24-24,24h-64c-13.6,0-24-10.4-24-24V40.148z"/>
	<path style="fill:#322153;" d="M79.861,432.148c22.4,0,40-17.6,40-40s-17.6-40-40-40s-40,17.6-40,40S57.461,432.148,79.861,432.148
		z M79.861,368.148c13.6,0,24,10.4,24,24s-10.4,24-24,24s-24-10.4-24-24S66.261,368.148,79.861,368.148z"/>
	<path style="fill:#322153;" d="M63.861,336.148h32c13.6,0,24-10.4,24-24v-256c0-13.6-10.4-24-24-24h-32c-13.6,0-24,10.4-24,24v256
		C39.861,325.748,50.261,336.148,63.861,336.148z M55.861,56.148c0-4.8,3.2-8,8-8h32c4.8,0,8,3.2,8,8v256c0,4.8-3.2,8-8,8h-32
		c-4.8,0-8-3.2-8-8V56.148z"/>
	<path style="fill:#322153;" d="M79.861,112.148c4.8,0,8-3.2,8-8v-32c0-4.8-3.2-8-8-8s-8,3.2-8,8v32
		C71.861,108.948,75.061,112.148,79.861,112.148z"/>
	<path style="fill:#322153;" d="M79.861,240.148c4.8,0,8-3.2,8-8v-96c0-4.8-3.2-8-8-8s-8,3.2-8,8v96
		C71.861,236.948,75.061,240.148,79.861,240.148z"/>
	<path style="fill:#322153;" d="M79.861,304.148c4.8,0,8-3.2,8-8v-32c0-4.8-3.2-8-8-8s-8,3.2-8,8v32
		C71.861,300.948,75.061,304.148,79.861,304.148z"/>
	<path style="fill:#322153;" d="M207.861,432.148c22.4,0,40-17.6,40-40s-17.6-40-40-40s-40,17.6-40,40
		S185.461,432.148,207.861,432.148z M207.861,368.148c13.6,0,24,10.4,24,24s-10.4,24-24,24s-24-10.4-24-24
		S194.261,368.148,207.861,368.148z"/>
	<path style="fill:#322153;" d="M191.861,336.148h32c13.6,0,24-10.4,24-24v-256c0-13.6-10.4-24-24-24h-32c-13.6,0-24,10.4-24,24v256
		C167.861,325.748,178.261,336.148,191.861,336.148z M183.861,56.148c0-4.8,3.2-8,8-8h32c4.8,0,8,3.2,8,8v256c0,4.8-3.2,8-8,8h-32
		c-4.8,0-8-3.2-8-8V56.148z"/>
	<path style="fill:#322153;" d="M207.861,112.148c4.8,0,8-3.2,8-8v-32c0-4.8-3.2-8-8-8s-8,3.2-8,8v32
		C199.861,108.948,203.061,112.148,207.861,112.148z"/>
	<path style="fill:#322153;" d="M207.861,304.148c4.8,0,8-3.2,8-8v-160c0-4.8-3.2-8-8-8s-8,3.2-8,8v160
		C199.861,300.948,203.061,304.148,207.861,304.148z"/>
	<path style="fill:#322153;" d="M375.861,349.748c-21.6,3.2-36.8,23.2-33.6,44.8c1.6,10.4,7.2,20,15.2,26.4c7.2,5.6,15.2,8,24,8
		c1.6,0,4,0,5.6,0c21.6-3.2,36.8-23.2,33.6-44.8c-1.6-10.4-7.2-20-15.2-26.4C396.661,350.548,386.261,348.148,375.861,349.748z
		 M384.661,412.148c-6.4,0.8-12-0.8-16.8-4.8s-8-9.6-8.8-16c-1.6-12.8,7.2-24.8,20-26.4c0.8,0,2.4,0,3.2,0c4.8,0,9.6,1.6,13.6,4.8
		c4.8,4,8,9.6,8.8,16C406.261,398.548,397.461,410.548,384.661,412.148z"/>
	<path style="fill:#322153;" d="M331.861,316.148c0.8,6.4,4,12,9.6,16c4,3.2,8.8,4.8,14.4,4.8c0.8,0,2.4,0,3.2,0l31.2-4
		c12.8-1.6,21.6-13.6,20-27.2l-35.2-251.2c-0.8-6.4-4-12-8.8-16s-11.2-5.6-17.6-4.8l-31.2,4c-12.8,2.4-21.6,14.4-20,27.2
		L331.861,316.148z M319.861,54.548l31.2-4h0.8c1.6,0,3.2,0.8,4.8,1.6c1.6,1.6,2.4,3.2,3.2,5.6l34.4,250.4c0.8,4-2.4,8-6.4,8.8l0,0
		l-32,3.2c-2.4,0-4,0-5.6-1.6s-2.4-3.2-3.2-5.6l-34.4-250.4C312.661,58.548,315.861,54.548,319.861,54.548z"/>
</g>
<g>
</g>
<g>
</g>
<g>
</g>
<g>
</g>
<g>
</g>
<g>
</g>
<g>
</g>
<g>
</g>
<g>
</g>
<g>
</g>
<g>
</g>
<g>
</g>
<g>
</g>
<g>
</g>
<g>
</g>
</svg>
