<?xml version="1.0" encoding="iso-8859-1"?>
<!-- Generator: Adobe Illustrator 19.0.0, SVG Export Plug-In . SVG Version: 6.00 Build 0)  -->
<svg version="1.1" id="Capa_1" xmlns="http://www.w3.org/2000/svg" xmlns:xlink="http://www.w3.org/1999/xlink" x="0px" y="0px"
	 viewBox="0 0 464 464" style="enable-background:new 0 0 464 464;" xml:space="preserve">
<path style="fill:#00F2A9;" d="M264,264v-64h48c8.8,0,16-7.2,16-16v-16v-48c0-8.8-7.2-16-16-16s-16,7.2-16,16v48h-32V72
	c0-17.6-14.4-32-32-32s-32,14.4-32,32v64h-32V88c0-8.8-7.2-16-16-16s-16,7.2-16,16v48v16c0,8.8,7.2,16,16,16h48v96H264z"/>
<g>
	<path style="fill:#322153;" d="M120,224c-13.6,0-24,10.4-24,24s10.4,24,24,24h8.8l25.6,160c4,18.4,20,32,39.2,32h75.2
		c19.2,0,35.2-13.6,39.2-32.8L335.2,272h8.8c13.6,0,24-10.4,24-24s-10.4-24-24-24h-72v-48h40c13.6,0,24-10.4,24-24V88
		c0-13.6-10.4-24-24-24s-24,10.4-24,24v40h-16V40c0-22.4-17.6-40-40-40s-40,17.6-40,40v56h-16V56c0-13.6-10.4-24-24-24
		s-24,10.4-24,24v64c0,13.6,10.4,24,24,24h40v80H120z M352,248c0,4.8-3.2,8-8,8h-16H168c-4.8,0-8,3.2-8,8s3.2,8,8,8h150.4
		l-25.6,156.8c-1.6,11.2-12,19.2-23.2,19.2h-75.2c-11.2,0-21.6-8-23.2-19.2L144,262.4c-0.8-4-4-6.4-8-6.4h-16c-4.8,0-8-3.2-8-8
		s3.2-8,8-8h80h64h80C348.8,240,352,243.2,352,248z M296,144c4.8,0,8-3.2,8-8V88c0-4.8,3.2-8,8-8s8,3.2,8,8v64c0,4.8-3.2,8-8,8h-40
		v-16H296z M152,128c-4.8,0-8-3.2-8-8V56c0-4.8,3.2-8,8-8s8,3.2,8,8v48c0,4.8,3.2,8,8,8h24v16H152z M208,136v-32V40
		c0-13.6,10.4-24,24-24s24,10.4,24,24v96v32v56h-48V136z"/>
	<path style="fill:#322153;" d="M200,400c2.4,0,4-0.8,5.6-2.4l64-64c3.2-3.2,3.2-8,0-11.2s-8-3.2-11.2,0l-64,64
		c-3.2,3.2-3.2,8,0,11.2C196,399.2,197.6,400,200,400z"/>
	<path style="fill:#322153;" d="M200,368c2.4,0,4-0.8,5.6-2.4l32-32c3.2-3.2,3.2-8,0-11.2s-8-3.2-11.2,0l-32,32
		c-3.2,3.2-3.2,8,0,11.2C196,367.2,197.6,368,200,368z"/>
	<path style="fill:#322153;" d="M258.4,354.4l-32,32c-3.2,3.2-3.2,8,0,11.2c1.6,1.6,4,2.4,5.6,2.4s4-0.8,5.6-2.4l32-32
		c3.2-3.2,3.2-8,0-11.2S261.6,351.2,258.4,354.4z"/>
	<circle style="fill:#322153;" cx="224" cy="48" r="8"/>
	<circle style="fill:#322153;" cx="240" cy="80" r="8"/>
	<circle style="fill:#322153;" cx="224" cy="112" r="8"/>
	<circle style="fill:#322153;" cx="240" cy="144" r="8"/>
	<circle style="fill:#322153;" cx="224" cy="176" r="8"/>
	<circle style="fill:#322153;" cx="240" cy="208" r="8"/>
</g>
<g>
</g>
<g>
</g>
<g>
</g>
<g>
</g>
<g>
</g>
<g>
</g>
<g>
</g>
<g>
</g>
<g>
</g>
<g>
</g>
<g>
</g>
<g>
</g>
<g>
</g>
<g>
</g>
<g>
</g>
</svg>
