<?xml version="1.0" encoding="iso-8859-1"?>
<!-- Generator: Adobe Illustrator 19.0.0, SVG Export Plug-In . SVG Version: 6.00 Build 0)  -->
<svg version="1.1" id="Capa_1" xmlns="http://www.w3.org/2000/svg" xmlns:xlink="http://www.w3.org/1999/xlink" x="0px" y="0px"
	 viewBox="0 0 464 464" style="enable-background:new 0 0 464 464;" xml:space="preserve">
<path style="fill:#00F2A9;" d="M392,136c0-17.6-14.4-32-32-32H136c0-17.6-14.4-32-32-32H72c-17.6,0-32,14.4-32,32v32v32h352V136z"/>
<g>
	<path style="fill:#322153;" d="M72,208h64c4.8,0,8-3.2,8-8c0-4.8-3.2-8-8-8H72c-4.8,0-8,3.2-8,8C64,204.8,67.2,208,72,208z"/>
	<path style="fill:#322153;" d="M168,224H72c-4.8,0-8,3.2-8,8s3.2,8,8,8h96c4.8,0,8-3.2,8-8S172.8,224,168,224z"/>
	<path style="fill:#322153;" d="M72,272h32c4.8,0,8-3.2,8-8s-3.2-8-8-8H72c-4.8,0-8,3.2-8,8S67.2,272,72,272z"/>
	<path style="fill:#322153;" d="M168,256h-32c-4.8,0-8,3.2-8,8s3.2,8,8,8h32c4.8,0,8-3.2,8-8S172.8,256,168,256z"/>
	<path style="fill:#322153;" d="M136,288H72c-4.8,0-8,3.2-8,8s3.2,8,8,8h64c4.8,0,8-3.2,8-8S140.8,288,136,288z"/>
	<path style="fill:#322153;" d="M461.6,194.4L432,164c-1.6-17.6-14.4-32-32-35.2V104c0-22.4-17.6-40-40-40H143.2
		c-4-18.4-20-32-39.2-32H72c-22.4,0-40,17.6-40,40v56.8c-18.4,4-32,20-32,39.2v224c0,22.4,17.6,40,40,40h352c22.4,0,40-17.6,40-40
		V267.2l29.6-29.6c3.2-3.2,3.2-8,0-11.2L451.2,216l10.4-10.4C464.8,202.4,464.8,197.6,461.6,194.4z M434.4,210.4l-2.4,2.4v-25.6
		l12.8,12.8L434.4,210.4z M48,72c0-13.6,10.4-24,24-24h32c13.6,0,24,10.4,24,24c0,4.8,3.2,8,8,8h224c13.6,0,24,10.4,24,24v24h-16.8
		c-4-18.4-20-32-39.2-32H104c-19.2,0-35.2,13.6-39.2,32H48V72z M350.4,128H81.6c3.2-9.6,12-16,22.4-16h224
		C338.4,112,347.2,118.4,350.4,128z M416,392c0,13.6-10.4,24-24,24H40c-13.6,0-24-10.4-24-24V168c0-13.6,10.4-24,24-24h32h288h32
		c13.6,0,24,10.4,24,24v64v32V392z M444.8,232L432,244.8v-9.6l8-8L444.8,232z"/>
</g>
<g>
</g>
<g>
</g>
<g>
</g>
<g>
</g>
<g>
</g>
<g>
</g>
<g>
</g>
<g>
</g>
<g>
</g>
<g>
</g>
<g>
</g>
<g>
</g>
<g>
</g>
<g>
</g>
<g>
</g>
</svg>
