<?xml version="1.0" encoding="iso-8859-1"?>
<!-- Generator: Adobe Illustrator 19.0.0, SVG Export Plug-In . SVG Version: 6.00 Build 0)  -->
<svg version="1.1" id="Capa_1" xmlns="http://www.w3.org/2000/svg" xmlns:xlink="http://www.w3.org/1999/xlink" x="0px" y="0px"
	 viewBox="0 0 488.796 488.796" style="enable-background:new 0 0 488.796 488.796;" xml:space="preserve">
<path style="fill:#00F2A9;" d="M453.157,344.8c44.8-115.2-12.8-244.8-128.8-288.8s-244.8,12.8-288.8,128.8
	c-44.8,115.2,12.8,244.8,128.8,288.8C279.557,518.4,409.157,460.8,453.157,344.8z M116.357,264.8c0-70.4,57.6-128,128-128
	s128,57.6,128,128s-57.6,128-128,128S116.357,335.2,116.357,264.8z"/>
<path style="fill:#322153;" d="M381.157,45.6C381.157,45.6,380.357,44.8,381.157,45.6c-3.2-2.4-6.4-4-8.8-6.4
	c-0.8-0.8-1.6-0.8-2.4-1.6c-2.4-1.6-4-2.4-6.4-4c-1.6-0.8-2.4-1.6-4-2.4c-1.6-0.8-3.2-1.6-4.8-2.4c-1.6-0.8-4-2.4-6.4-3.2
	c0,0-0.8-0.8-1.6-0.8c-6.4-3.2-12.8-5.6-19.2-8.8c-7.2-2.4-14.4-4.8-21.6-7.2c-0.8,0-0.8,0-1.6-0.8c-3.2-0.8-5.6-1.6-8.8-2.4
	c-1.6,0-2.4-0.8-4-0.8c-2.4-0.8-4-0.8-6.4-1.6c-1.6,0-4-0.8-5.6-0.8s-3.2-0.8-4.8-0.8c-2.4,0-4.8-0.8-7.2-0.8c-0.8,0-1.6,0-3.2,0
	c-3.2,0-5.6-0.8-8.8-0.8c-0.8,0-0.8,0-1.6,0c-3.2,0-6.4,0-9.6,0l0,0l0,0l0,0c-32,0-64,6.4-94.4,20c-41.6,18.4-76,48-100,84.8
	c0,0,0,0.8-0.8,0.8c-1.6,2.4-3.2,5.6-5.6,8.8c0,0.8-0.8,1.6-0.8,1.6c-1.6,2.4-3.2,4.8-4,8c-0.8,0.8-0.8,1.6-1.6,3.2
	c-1.6,2.4-2.4,4.8-4,8c-0.8,0.8-0.8,1.6-1.6,3.2c-1.6,4-3.2,7.2-4.8,11.2c-1.6,3.2-2.4,7.2-4,10.4c-0.8,1.6-0.8,4-1.6,5.6
	s-0.8,3.2-1.6,4.8c-0.8,2.4-1.6,4.8-1.6,8c0,0.8-0.8,1.6-0.8,2.4c-0.8,3.2-1.6,6.4-1.6,9.6v0.8c-8.8,45.6-3.2,92.8,16,136
	c16.8,37.6,42.4,69.6,75.2,92.8c0,0,0.8,0,0.8,0.8c2.4,1.6,5.6,4,8,5.6c0.8,0.8,1.6,0.8,2.4,1.6c2.4,1.6,4,2.4,6.4,4
	c1.6,0.8,2.4,1.6,4,2.4s3.2,1.6,4.8,2.4s4,2.4,6.4,3.2c0.8,0,1.6,0.8,2.4,0.8c6.4,3.2,12.8,5.6,19.2,8.8c3.2,1.6,6.4,2.4,9.6,3.2
	c24,8,48.8,12,73.6,12c32,0,64-6.4,94.4-20c37.6-16.8,69.6-42.4,92.8-75.2l0.8-0.8c1.6-2.4,4-5.6,5.6-8c0.8-0.8,0.8-1.6,1.6-2.4
	c1.6-2.4,3.2-4.8,4-7.2c0.8-0.8,1.6-2.4,2.4-3.2c0.8-1.6,2.4-4,3.2-5.6c0.8-1.6,1.6-3.2,2.4-4.8c0.8-1.6,1.6-3.2,2.4-4.8
	c0.8-2.4,1.6-4,3.2-6.4c0-0.8,0.8-0.8,0.8-1.6c1.6-3.2,2.4-6.4,4-8.8c1.6-3.2,2.4-6.4,3.2-9.6c18.4-55.2,16-114.4-8-167.2
	C439.557,100.8,413.957,68.8,381.157,45.6z M441.957,144.8c11.2,25.6,17.6,52.8,18.4,80h-16c-1.6-48-20.8-92.8-52.8-127.2l11.2-11.2
	C418.757,103.2,431.557,123.2,441.957,144.8z M445.957,310.4L445.957,310.4c-2.4,6.4-4.8,12-8,17.6c0,0.8-0.8,0.8-0.8,1.6
	c-3.2,5.6-6.4,11.2-9.6,16.8c0,0,0,0.8-0.8,0.8c-7.2,11.2-15.2,22.4-24.8,32l-24.8-24.8c-3.2-3.2-8-3.2-11.2,0s-3.2,8,0,11.2
	l1.6,1.6c-32,29.6-72.8,46.4-116,48v-22.4c0-4.8-3.2-8-8-8s-8,3.2-8,8v56c-23.2-0.8-48.8-6.4-69.6-14.4l0,0l0,0
	c-6.4-2.4-12-4.8-18.4-8c0,0-0.8,0-0.8-0.8c-5.6-3.2-12-6.4-17.6-9.6l0,0c-11.2-7.2-22.4-15.2-32.8-24.8l56.8-56.8
	c12,10.4,25.6,19.2,41.6,25.6s32.8,8.8,48.8,8.8c54.4,0,106.4-32.8,127.2-87.2c19.2-48.8,7.2-102.4-25.6-139.2l33.6-33.6
	c29.6,32,46.4,72.8,48,116h-22.4c-4.8,0-8,3.2-8,8s3.2,8,8,8h56C458.757,264,453.957,288.8,445.957,310.4
	C445.957,309.6,445.957,310.4,445.957,310.4z M84.357,224.8h-56c0.8-12,1.6-23.2,4-35.2v-0.8c0.8-5.6,2.4-10.4,4-16
	c0-0.8,0.8-1.6,0.8-2.4c1.6-4.8,3.2-10.4,5.6-15.2l0,0l0,0c2.4-6.4,4.8-12,8-18.4c0,0,0-0.8,0.8-0.8c3.2-5.6,6.4-12,9.6-17.6l0,0
	c7.2-11.2,15.2-22.4,24.8-32.8l56.8,56.8c-10.4,12-19.2,25.6-25.6,41.6c-19.2,48.8-7.2,102.4,25.6,139.2l-33.6,33.6
	c-29.6-32-46.4-72.8-48-116h23.2c4.8,0,8-3.2,8-8S89.157,224.8,84.357,224.8z M244.357,80.8c4.8,0,8-3.2,8-8v-56
	c12,0.8,23.2,1.6,35.2,4h0.8c5.6,0.8,11.2,2.4,16,4c0.8,0,0.8,0,1.6,0.8c5.6,1.6,10.4,3.2,16,5.6l0,0l0,0c6.4,2.4,12,4.8,18.4,8
	c0,0,0.8,0,0.8,0.8c5.6,3.2,12,6.4,17.6,9.6l0,0c11.2,7.2,22.4,15.2,32.8,24.8l-56.8,56.8c-12-10.4-25.6-19.2-41.6-25.6
	c-48.8-19.2-102.4-7.2-139.2,25.6l-33.6-33.6c32-29.6,72.8-46.4,116-48v23.2C236.357,77.6,239.557,80.8,244.357,80.8z
	 M132.357,189.6c24-61.6,93.6-92.8,155.2-68.8s92.8,93.6,68.8,155.2s-93.6,92.8-155.2,68.8S108.357,251.2,132.357,189.6z
	 M156.357,35.2c25.6-11.2,52.8-17.6,80-18.4v16c-48,1.6-92.8,20.8-127.2,52.8l-11.2-11.2C114.757,58.4,134.757,45.6,156.357,35.2z
	 M46.757,320.8c-11.2-25.6-17.6-52.8-18.4-80h16c1.6,48,20.8,92.8,52.8,127.2l-11.2,11.2C69.957,362.4,57.157,342.4,46.757,320.8z
	 M332.357,430.4c-25.6,11.2-52.8,17.6-80,18.4v-16c48-1.6,92.8-20.8,128-52.8l11.2,11.2C373.957,407.2,353.957,420,332.357,430.4z"
	/>
<g>
</g>
<g>
</g>
<g>
</g>
<g>
</g>
<g>
</g>
<g>
</g>
<g>
</g>
<g>
</g>
<g>
</g>
<g>
</g>
<g>
</g>
<g>
</g>
<g>
</g>
<g>
</g>
<g>
</g>
</svg>
