<?xml version="1.0" encoding="iso-8859-1"?>
<!-- Generator: Adobe Illustrator 19.0.0, SVG Export Plug-In . SVG Version: 6.00 Build 0)  -->
<svg version="1.1" id="Capa_1" xmlns="http://www.w3.org/2000/svg" xmlns:xlink="http://www.w3.org/1999/xlink" x="0px" y="0px"
	 viewBox="0 0 488 488" style="enable-background:new 0 0 488 488;" xml:space="preserve">
<path style="fill:#00F2A9;" d="M340,408c0-8.8-7.2-16-16-16h-48v-48c0-8.8-7.2-16-16-16h-32c-8.8,0-16,7.2-16,16v48h-48
	c-8.8,0-16,7.2-16,16s7.2,16,16,16h32c-8.8,0-16,7.2-16,16s7.2,16,16,16h16v32h64v-32h16c8.8,0,16-7.2,16-16s-7.2-16-16-16h32
	C332.8,424,340,416.8,340,408z"/>
<g>
	<path style="fill:#322153;" d="M379.2,267.2C400.8,238.4,412,204,412,168C412,75.2,336.8,0,244,0S76,75.2,76,168
		c0,36,11.2,70.4,32.8,99.2c0,0,0,0.8,0.8,0.8l56,83.2H164c-13.6,0-24,10.4-24,24s10.4,24,24,24h9.6c-0.8,2.4-1.6,4.8-1.6,8
		c0,13.6,10.4,24,24,24h8v24c0,4.8,3.2,8,8,8h64c4.8,0,8-3.2,8-8v-24h8c13.6,0,24-10.4,24-24c0-3.2-0.8-5.6-1.6-8h9.6
		c13.6,0,24-10.4,24-24s-10.4-24-24-24h-0.8l56-83.2C379.2,268,379.2,268,379.2,267.2z M332,376c0,4.8-3.2,8-8,8h-32
		c-4.8,0-8,3.2-8,8s3.2,8,8,8s8,3.2,8,8s-3.2,8-8,8h-16h-32c-4.8,0-8,3.2-8,8s3.2,8,8,8h24v16h-48v-24c0-4.8-3.2-8-8-8h-16
		c-4.8,0-8-3.2-8-8s3.2-8,8-8h48c4.8,0,8-3.2,8-8s-3.2-8-8-8h-48h-32c-4.8,0-8-3.2-8-8s3.2-8,8-8h16h32h64h32h16
		C328.8,368,332,371.2,332,376z M260,304c4.8,0,8,3.2,8,8v40h-48v-40c0-4.8,3.2-8,8-8H260z M364,260.8L304,352h-20v-40
		c0-13.6-10.4-24-24-24h-8v-80.8c0-4,0.8-7.2,2.4-10.4l28.8-57.6c1.6-2.4,0.8-5.6,0-8c-1.6-1.6-4.8-3.2-7.2-3.2h-64
		c-4.8,0-8,3.2-8,8s3.2,8,8,8h51.2L240,189.6c-2.4,5.6-4,12-4,17.6V288h-8c-13.6,0-24,10.4-24,24v40h-20l-60-91.2
		c0-0.8-0.8-1.6-0.8-1.6C102.4,232.8,92,200.8,92,168c0-84,68-152,152-152s152,68,152,152c0,32.8-10.4,64.8-30.4,91.2
		C364.8,260,364.8,260,364,260.8z"/>
	<path style="fill:#322153;" d="M244,32c-75.2,0-136,60.8-136,136c0,4.8,3.2,8,8,8s8-3.2,8-8c0-66.4,53.6-120,120-120
		c4.8,0,8-3.2,8-8S248.8,32,244,32z"/>
</g>
<g>
</g>
<g>
</g>
<g>
</g>
<g>
</g>
<g>
</g>
<g>
</g>
<g>
</g>
<g>
</g>
<g>
</g>
<g>
</g>
<g>
</g>
<g>
</g>
<g>
</g>
<g>
</g>
<g>
</g>
</svg>
