<?xml version="1.0" encoding="iso-8859-1"?>
<!-- Generator: Adobe Illustrator 19.0.0, SVG Export Plug-In . SVG Version: 6.00 Build 0)  -->
<svg version="1.1" id="Capa_1" xmlns="http://www.w3.org/2000/svg" xmlns:xlink="http://www.w3.org/1999/xlink" x="0px" y="0px"
	 viewBox="0 0 464 464" style="enable-background:new 0 0 464 464;" xml:space="preserve">
<path style="fill:#00F2A9;" d="M56,72h352c8.8,0,16-7.2,16-16s-7.2-16-16-16H56c-8.8,0-16,7.2-16,16S47.2,72,56,72z"/>
<g>
	<path style="fill:#322153;" d="M56,48h8.8l28.8,379.2c1.6,20.8,19.2,36.8,40,36.8h196.8c20.8,0,38.4-16,40-36.8L399.2,48h8.8
		c13.6,0,24-10.4,24-24S421.6,0,408,0H56C42.4,0,32,10.4,32,24S42.4,48,56,48z M56,16h352c4.8,0,8,3.2,8,8s-3.2,8-8,8h-16h-64
		c-4.8,0-8,3.2-8,8s3.2,8,8,8h55.2l-28.8,377.6c-0.8,12-11.2,22.4-24,22.4H133.6c-12,0-23.2-9.6-24-21.6L80.8,48H264
		c4.8,0,8-3.2,8-8s-3.2-8-8-8H72H56c-4.8,0-8-3.2-8-8S51.2,16,56,16z"/>
	<path style="fill:#322153;" d="M300.8,120L280,140.8L259.2,120l10.4-10.4c3.2-3.2,3.2-8,0-11.2s-8-3.2-11.2,0L248,108.8l-10.4-10.4
		c-3.2-3.2-8-3.2-11.2,0s-3.2,8,0,11.2l10.4,10.4L200,156.8L179.2,136l26.4-26.4c3.2-3.2,3.2-8,0-11.2s-8-3.2-11.2,0L168,124.8
		l-26.4-26.4c-3.2-3.2-8-3.2-11.2,0s-3.2,8,0,11.2l26.4,26.4l-26.4,26.4c-3.2,3.2-3.2,8,0,11.2c1.6,1.6,4,2.4,5.6,2.4s4-0.8,5.6-2.4
		l26.4-26.4l52.8,52.8l-26.4,26.4L184,236.8L163.2,216l10.4-10.4c3.2-3.2,3.2-8,0-11.2s-8-3.2-11.2,0L152,204.8l-10.4-10.4
		c-3.2-3.2-8-3.2-11.2,0s-3.2,8,0,11.2l10.4,10.4l-10.4,10.4c-3.2,3.2-3.2,8,0,11.2c1.6,1.6,4,2.4,5.6,2.4s4-0.8,5.6-2.4l10.4-10.4
		l20.8,20.8l-42.4,42.4c-3.2,3.2-3.2,8,0,11.2c1.6,1.6,4,2.4,5.6,2.4s4-0.8,5.6-2.4l42.4-42.4l20.8,20.8l-74.4,74.4
		c-3.2,3.2-3.2,8,0,11.2c1.6,1.6,4,2.4,5.6,2.4s4-0.8,5.6-2.4l25.6-25.6c4,4.8,11.2,11.2,20.8,20.8l-25.6,25.6
		c-3.2,3.2-3.2,8,0,11.2c1.6,1.6,4,2.4,5.6,2.4s4-0.8,5.6-2.4l25.6-25.6c7.2,7.2,16,16,27.2,26.4c0.8,0.8,0.8,0.8,1.6,0.8l0.8,0.8
		c0.8,0,1.6,0.8,3.2,0.8c0.8,0,2.4,0,3.2-0.8l0.8-0.8c0.8,0,0.8-0.8,1.6-0.8L280,356l20.8,20.8l-10.4,10.4c-3.2,3.2-3.2,8,0,11.2
		c1.6,1.6,4,2.4,5.6,2.4s4-0.8,5.6-2.4L312,388l10.4,10.4c1.6,1.6,4,2.4,5.6,2.4s4-0.8,5.6-2.4c3.2-3.2,3.2-8,0-11.2L323.2,376
		l10.4-10.4c3.2-3.2,3.2-8,0-11.2s-8-3.2-11.2,0L312,364.8L291.2,344l10.4-10.4c3.2-3.2,3.2-8,0-11.2s-8-3.2-11.2,0L280,332.8
		L227.2,280l36.8-36.8l20.8,20.8l-26.4,26.4c-3.2,3.2-3.2,8,0,11.2c1.6,1.6,4,2.4,5.6,2.4s4-0.8,5.6-2.4l26.4-26.4l26.4,26.4
		c1.6,1.6,4,2.4,5.6,2.4s4-0.8,5.6-2.4c3.2-3.2,3.2-8,0-11.2L307.2,264l26.4-26.4c3.2-3.2,3.2-8,0-11.2s-8-3.2-11.2,0L296,252.8
		L275.2,232l26.4-26.4c3.2-3.2,3.2-8,0-11.2s-8-3.2-11.2,0L264,220.8L243.2,200l36.8-36.8l42.4,42.4c1.6,1.6,4,2.4,5.6,2.4
		s4-0.8,5.6-2.4c3.2-3.2,3.2-8,0-11.2L291.2,152l20.8-20.8l10.4,10.4c1.6,1.6,4,2.4,5.6,2.4s4-0.8,5.6-2.4c3.2-3.2,3.2-8,0-11.2
		L323.2,120l10.4-10.4c3.2-3.2,3.2-8,0-11.2s-8-3.2-11.2,0L312,108.8l-10.4-10.4c-3.2-3.2-8-3.2-11.2,0s-3.2,8,0,11.2L300.8,120z
		 M268.8,344L232,380.8c-6.4-6.4-13.6-13.6-20.8-20.8l26.4-26.4c3.2-3.2,3.2-8,0-11.2s-8-3.2-11.2,0L200,348.8
		c-8.8-8.8-16-16-20.8-20.8l36.8-36.8L268.8,344z M252.8,232L216,268.8L195.2,248l10.4-10.4l26.4-26.4L252.8,232z M232,188.8
		L211.2,168l36.8-36.8l20.8,20.8L232,188.8z"/>
</g>
<g>
</g>
<g>
</g>
<g>
</g>
<g>
</g>
<g>
</g>
<g>
</g>
<g>
</g>
<g>
</g>
<g>
</g>
<g>
</g>
<g>
</g>
<g>
</g>
<g>
</g>
<g>
</g>
<g>
</g>
</svg>
