<?xml version="1.0" encoding="iso-8859-1"?>
<!-- Generator: Adobe Illustrator 19.0.0, SVG Export Plug-In . SVG Version: 6.00 Build 0)  -->
<svg version="1.1" id="Capa_1" xmlns="http://www.w3.org/2000/svg" xmlns:xlink="http://www.w3.org/1999/xlink" x="0px" y="0px"
	 viewBox="0 0 464 464" style="enable-background:new 0 0 464 464;" xml:space="preserve">
<g>
	<path style="fill:#00F2A9;" d="M136,72c0-17.6-14.4-32-32-32H72c-17.6,0-32,14.4-32,32v64h96V72z"/>
	<path style="fill:#00F2A9;" d="M424,72c0-17.6-14.4-32-32-32h-32c-17.6,0-32,14.4-32,32v64h96V72z"/>
</g>
<g>
	<path style="fill:#322153;" d="M144,40c0-22.4-17.6-40-40-40H72C49.6,0,32,17.6,32,40v64v160c0,53.6,20.8,103.2,58.4,141.6
		C128,443.2,178.4,464,232,464c110.4,0,200-89.6,200-200V104V40c0-22.4-17.6-40-40-40h-32c-22.4,0-40,17.6-40,40v64v160
		c0,23.2-8.8,45.6-25.6,62.4S255.2,352,232,352c-48.8,0-88-39.2-88-88V104V40z M48,40c0-13.6,10.4-24,24-24h32c13.6,0,24,10.4,24,24
		v56H48V40z M336,40c0-13.6,10.4-24,24-24h32c13.6,0,24,10.4,24,24v56h-80V40z M232,368c28,0,53.6-11.2,73.6-30.4S336,292,336,264
		V112h80v48h-24c-4.8,0-8,3.2-8,8s3.2,8,8,8h24v16h-56c-4.8,0-8,3.2-8,8s3.2,8,8,8h56v16h-24c-4.8,0-8,3.2-8,8c0,4.8,3.2,8,8,8h24
		v24c0,101.6-82.4,184-184,184c-48.8,0-95.2-19.2-130.4-53.6C68.8,360.8,50.4,318.4,48,272h24c4.8,0,8-3.2,8-8s-3.2-8-8-8H48v-16h56
		c4.8,0,8-3.2,8-8s-3.2-8-8-8H48v-16h24c4.8,0,8-3.2,8-8s-3.2-8-8-8H48v-80h80v152C128,321.6,174.4,368,232,368z"/>
	<path style="fill:#322153;" d="M110.4,355.2c-2.4-3.2-8-4-11.2-1.6s-4,8-1.6,11.2c32,42.4,80.8,67.2,134.4,67.2c4.8,0,8-3.2,8-8
		s-3.2-8-8-8C184,416,139.2,393.6,110.4,355.2z"/>
</g>
<g>
</g>
<g>
</g>
<g>
</g>
<g>
</g>
<g>
</g>
<g>
</g>
<g>
</g>
<g>
</g>
<g>
</g>
<g>
</g>
<g>
</g>
<g>
</g>
<g>
</g>
<g>
</g>
<g>
</g>
</svg>
