<?xml version="1.0" encoding="iso-8859-1"?>
<!-- Generator: Adobe Illustrator 19.0.0, SVG Export Plug-In . SVG Version: 6.00 Build 0)  -->
<svg version="1.1" id="Capa_1" xmlns="http://www.w3.org/2000/svg" xmlns:xlink="http://www.w3.org/1999/xlink" x="0px" y="0px"
	 viewBox="0 0 463.4 463.4" style="enable-background:new 0 0 463.4 463.4;" xml:space="preserve">
<path style="fill:#00F2A9;" d="M71.7,229l137.6,137.6c12.8,12.8,32.8,12.8,45.6,0L391.7,229l32-32L253.3,45
	c-12-11.2-31.2-11.2-43.2,0L39.7,197L71.7,229z"/>
<g>
	<path style="fill:#322153;" d="M71.7,399.4c2.4,0,4-0.8,5.6-2.4l64-64c3.2-3.2,3.2-8,0-11.2s-8-3.2-11.2,0l-64,64
		c-3.2,3.2-3.2,8,0,11.2C67.7,398.6,69.3,399.4,71.7,399.4z"/>
	<path style="fill:#322153;" d="M199.7,207.4c2.4,0,4-0.8,5.6-2.4l64-64c3.2-3.2,3.2-8,0-11.2s-8-3.2-11.2,0l-64,64
		c-3.2,3.2-3.2,8,0,11.2C195.7,206.6,197.3,207.4,199.7,207.4z"/>
	<path style="fill:#322153;" d="M199.7,175.4c2.4,0,4-0.8,5.6-2.4l32-32c3.2-3.2,3.2-8,0-11.2s-8-3.2-11.2,0l-32,32
		c-3.2,3.2-3.2,8,0,11.2C195.7,174.6,197.3,175.4,199.7,175.4z"/>
	<path style="fill:#322153;" d="M258.1,161.8l-32,32c-3.2,3.2-3.2,8,0,11.2c1.6,1.6,4,2.4,5.6,2.4s4-0.8,5.6-2.4l32-32
		c3.2-3.2,3.2-8,0-11.2S261.3,158.6,258.1,161.8z"/>
	<path style="fill:#322153;" d="M127.7,423.4c0,4.8,3.2,8,8,8h256c4.8,0,8-3.2,8-8s-3.2-8-8-8h-256
		C130.9,415.4,127.7,418.6,127.7,423.4z"/>
	<path style="fill:#322153;" d="M31.7,182.6v144.8v88v8c0,22.4,17.6,40,40,40h320c22.4,0,40-17.6,40-40V182.6
		c0-12-5.6-23.2-14.4-30.4L257.3,9c-15.2-12-36-12-51.2,0l0,0l-160,142.4C37.3,159.4,31.7,170.6,31.7,182.6z M47.7,182.6
		c0-7.2,3.2-13.6,8.8-18.4L216.5,21c8.8-7.2,21.6-7.2,30.4,0l160,143.2c5.6,4.8,8.8,11.2,8.8,18.4v221.6l-82.4-82.4
		c-3.2-3.2-8-3.2-11.2,0s-3.2,8,0,11.2l93.6,93.6c-1.6,12-11.2,20.8-24,20.8h-320c-10.4,0-19.2-6.4-22.4-16h54.4c4.8,0,8-3.2,8-8
		s-3.2-8-8-8h-56v-88V182.6z"/>
	<path style="fill:#322153;" d="M203.7,342.6c8,8,18.4,12,28,12s20.8-4,28-12L397.3,205c3.2-3.2,3.2-8,0-11.2s-8-3.2-11.2,0
		L248.5,331.4c-8.8,8.8-24.8,8.8-33.6,0L77.3,193.8c-3.2-3.2-8-3.2-11.2,0s-3.2,8,0,11.2L203.7,342.6z"/>
</g>
<g>
</g>
<g>
</g>
<g>
</g>
<g>
</g>
<g>
</g>
<g>
</g>
<g>
</g>
<g>
</g>
<g>
</g>
<g>
</g>
<g>
</g>
<g>
</g>
<g>
</g>
<g>
</g>
<g>
</g>
</svg>
