<?xml version="1.0" encoding="iso-8859-1"?>
<!-- Generator: Adobe Illustrator 19.0.0, SVG Export Plug-In . SVG Version: 6.00 Build 0)  -->
<svg version="1.1" id="Capa_1" xmlns="http://www.w3.org/2000/svg" xmlns:xlink="http://www.w3.org/1999/xlink" x="0px" y="0px"
	 viewBox="0 0 464 464" style="enable-background:new 0 0 464 464;" xml:space="preserve">
<path style="fill:#00F2A9;" d="M136,40c-17.6,0-32,14.4-32,32v192l105.6,105.6c12.8,12.8,32.8,12.8,45.6,0L360,264V104l-64-64H136z"
	/>
<g>
	<path style="fill:#322153;" d="M141.6,322.4c-3.2-3.2-8-3.2-11.2,0l-64,64c-3.2,3.2-3.2,8,0,11.2c1.6,1.6,4,2.4,5.6,2.4
		s4-0.8,5.6-2.4l64-64C144.8,330.4,144.8,325.6,141.6,322.4z"/>
	<path style="fill:#322153;" d="M128,424c0,4.8,3.2,8,8,8h256c4.8,0,8-3.2,8-8s-3.2-8-8-8H136C131.2,416,128,419.2,128,424z"/>
	<path style="fill:#322153;" d="M367.2,68.8c-0.8-0.8-0.8-1.6-1.6-2.4l-64-64c-0.8-0.8-1.6-1.6-2.4-1.6C298.4,0,296.8,0,296,0H136
		c-22.4,0-40,17.6-40,40v71.2L46.4,152c-8.8,8-14.4,19.2-14.4,31.2V328v88v8c0,22.4,17.6,40,40,40h320c22.4,0,40-17.6,40-40V183.2
		c0-12-5.6-23.2-14.4-30.4L368,111.2V72C368,71.2,368,69.6,367.2,68.8z M304,27.2L340.8,64H328c-13.6,0-24-10.4-24-24V27.2z M112,40
		c0-13.6,10.4-24,24-24h152v24c0,22.4,17.6,40,40,40h24v148.8L248.8,332c-9.6,9.6-24.8,9.6-33.6,0L112,228.8V40z M407.2,164.8
		c5.6,4.8,8.8,11.2,8.8,18.4v221.6l-82.4-82.4c-3.2-3.2-8-3.2-11.2,0s-3.2,8,0,11.2l93.6,93.6c-1.6,12-11.2,20.8-24,20.8H72
		c-10.4,0-19.2-6.4-22.4-16H104c4.8,0,8-3.2,8-8s-3.2-8-8-8H48v-88V183.2c0-7.2,3.2-13.6,8.8-18.4L96,132v80.8l-18.4-18.4
		c-3.2-3.2-8-3.2-11.2,0s-3.2,8,0,11.2l32,32L204,343.2c8,8,18.4,12,28,12s20.8-4,28-12l105.6-105.6l32-32c3.2-3.2,3.2-8,0-11.2
		s-8-3.2-11.2,0L368,212.8V132L407.2,164.8z"/>
	<path style="fill:#322153;" d="M168,80h64c4.8,0,8-3.2,8-8s-3.2-8-8-8h-64c-4.8,0-8,3.2-8,8S163.2,80,168,80z"/>
	<path style="fill:#322153;" d="M168,112h128c4.8,0,8-3.2,8-8s-3.2-8-8-8H168c-4.8,0-8,3.2-8,8S163.2,112,168,112z"/>
	<path style="fill:#322153;" d="M168,144h64c4.8,0,8-3.2,8-8s-3.2-8-8-8h-64c-4.8,0-8,3.2-8,8S163.2,144,168,144z"/>
	<path style="fill:#322153;" d="M296,128h-32c-4.8,0-8,3.2-8,8s3.2,8,8,8h32c4.8,0,8-3.2,8-8S300.8,128,296,128z"/>
	<path style="fill:#322153;" d="M168,176h128c4.8,0,8-3.2,8-8s-3.2-8-8-8H168c-4.8,0-8,3.2-8,8S163.2,176,168,176z"/>
	<path style="fill:#322153;" d="M296,192h-64c-4.8,0-8,3.2-8,8s3.2,8,8,8h64c4.8,0,8-3.2,8-8S300.8,192,296,192z"/>
	<path style="fill:#322153;" d="M168,208h32c4.8,0,8-3.2,8-8s-3.2-8-8-8h-32c-4.8,0-8,3.2-8,8S163.2,208,168,208z"/>
	<path style="fill:#322153;" d="M304,232c0-4.8-3.2-8-8-8H168c-4.8,0-8,3.2-8,8c0,4.8,3.2,8,8,8h128C300.8,240,304,236.8,304,232z"
		/>
</g>
<g>
</g>
<g>
</g>
<g>
</g>
<g>
</g>
<g>
</g>
<g>
</g>
<g>
</g>
<g>
</g>
<g>
</g>
<g>
</g>
<g>
</g>
<g>
</g>
<g>
</g>
<g>
</g>
<g>
</g>
</svg>
