<?xml version="1.0" encoding="iso-8859-1"?>
<!-- Generator: Adobe Illustrator 19.0.0, SVG Export Plug-In . SVG Version: 6.00 Build 0)  -->
<svg version="1.1" id="Capa_1" xmlns="http://www.w3.org/2000/svg" xmlns:xlink="http://www.w3.org/1999/xlink" x="0px" y="0px"
	 viewBox="0 0 464 464" style="enable-background:new 0 0 464 464;" xml:space="preserve">
<path style="fill:#00F2A9;" d="M232,72c-35.2,0-64,28.8-64,64s64,96,64,96s64-60.8,64-96S267.2,72,232,72z M232,168
	c-17.6,0-32-14.4-32-32s14.4-32,32-32s32,14.4,32,32S249.6,168,232,168z"/>
<g>
	<path style="fill:#322153;" d="M66.4,429.6c1.6,1.6,3.2,2.4,5.6,2.4c0.8,0,2.4,0,3.2-0.8c3.2-1.6,4.8-4,4.8-7.2v-44.8l50.4,50.4
		c1.6,1.6,3.2,2.4,5.6,2.4c0.8,0,2.4,0,3.2-0.8c3.2-1.6,4.8-4,4.8-7.2v-44.8l50.4,50.4c1.6,1.6,3.2,2.4,5.6,2.4c0.8,0,2.4,0,3.2-0.8
		c3.2-1.6,4.8-4,4.8-7.2v-44.8l50.4,50.4c1.6,1.6,3.2,2.4,5.6,2.4c0.8,0,2.4,0,3.2-0.8c3.2-1.6,4.8-4,4.8-7.2v-44.8l50.4,50.4
		c1.6,1.6,4,2.4,5.6,2.4s4-0.8,5.6-2.4l128-128c3.2-3.2,3.2-8,0-11.2l-64-64c-3.2-3.2-8-3.2-11.2,0L360,252.8l-26.4-26.4
		c-3.2-3.2-8-3.2-11.2,0L296,252.8l-26.4-26.4c-3.2-3.2-8-3.2-11.2,0L232,252.8l-26.4-26.4c-3.2-3.2-8-3.2-11.2,0L168,252.8
		l-26.4-26.4c-3.2-3.2-8-3.2-11.2,0l-128,128c-3.2,3.2-3.2,8,0,11.2L66.4,429.6z M392,243.2l52.8,52.8L328,412.8L275.2,360
		L392,243.2z M328,243.2l20.8,20.8l-90.4,90.4c-0.8,0.8-1.6,1.6-1.6,2.4c-0.8,0.8-0.8,2.4-0.8,3.2v44.8L211.2,360L328,243.2z
		 M264,243.2l20.8,20.8l-90.4,90.4c-0.8,0.8-1.6,1.6-1.6,2.4c-0.8,0.8-0.8,2.4-0.8,3.2v44.8L147.2,360L264,243.2z M200,243.2
		l20.8,20.8l-90.4,90.4c-0.8,0.8-1.6,1.6-1.6,2.4c-0.8,0.8-0.8,2.4-0.8,3.2v44.8L83.2,360L200,243.2z M136,243.2l20.8,20.8
		l-90.4,90.4c-0.8,0.8-1.6,1.6-1.6,2.4c-0.8,0.8-0.8,2.4-0.8,3.2v44.8L19.2,360L136,243.2z"/>
	<path style="fill:#322153;" d="M160,104c0,37.6,60,95.2,66.4,101.6c1.6,1.6,3.2,2.4,5.6,2.4c2.4,0,4-0.8,5.6-2.4
		c7.2-6.4,66.4-64,66.4-101.6c0-40-32-72-72-72S160,64,160,104z M288,104c0,24-36.8,64.8-56,84.8c-19.2-20-56-60.8-56-84.8
		c0-31.2,24.8-56,56-56S288,72.8,288,104z"/>
	<path style="fill:#322153;" d="M192,104c0,22.4,17.6,40,40,40s40-17.6,40-40s-17.6-40-40-40S192,81.6,192,104z M256,104
		c0,13.6-10.4,24-24,24s-24-10.4-24-24s10.4-24,24-24S256,90.4,256,104z"/>
	<path style="fill:#322153;" d="M386.4,290.4l-64,64c-3.2,3.2-3.2,8,0,11.2c1.6,1.6,4,2.4,5.6,2.4s4-0.8,5.6-2.4l64-64
		c3.2-3.2,3.2-8,0-11.2S389.6,287.2,386.4,290.4z"/>
	<path style="fill:#322153;" d="M322.4,333.6c1.6,1.6,4,2.4,5.6,2.4s4-0.8,5.6-2.4l64-64c3.2-3.2,3.2-8,0-11.2s-8-3.2-11.2,0l-64,64
		C319.2,325.6,319.2,330.4,322.4,333.6z"/>
	<path style="fill:#322153;" d="M386.4,322.4l-32,32c-3.2,3.2-3.2,8,0,11.2c1.6,1.6,4,2.4,5.6,2.4s4-0.8,5.6-2.4l32-32
		c3.2-3.2,3.2-8,0-11.2S389.6,319.2,386.4,322.4z"/>
</g>
<g>
</g>
<g>
</g>
<g>
</g>
<g>
</g>
<g>
</g>
<g>
</g>
<g>
</g>
<g>
</g>
<g>
</g>
<g>
</g>
<g>
</g>
<g>
</g>
<g>
</g>
<g>
</g>
<g>
</g>
</svg>
