<?xml version="1.0" encoding="iso-8859-1"?>
<!-- Generator: Adobe Illustrator 19.0.0, SVG Export Plug-In . SVG Version: 6.00 Build 0)  -->
<svg version="1.1" id="Capa_1" xmlns="http://www.w3.org/2000/svg" xmlns:xlink="http://www.w3.org/1999/xlink" x="0px" y="0px"
	 viewBox="0 0 464 464" style="enable-background:new 0 0 464 464;" xml:space="preserve">
<path style="fill:#00F2A9;" d="M72,72c-8.8,0-16,7.2-16,16v64c0,8.8,7.2,16,16,16h224c8.8,0,16-7.2,16-16V88c0-8.8-7.2-16-16-16H72z
	"/>
<g>
	<path style="fill:#322153;" d="M16,424c0,22.4,17.6,40,40,40h320h32c22.4,0,40-17.6,40-40V232c0-22.4-17.6-40-40-40h-56V40
		c0-22.4-17.6-40-40-40H56C33.6,0,16,17.6,16,40V424z M432,232v192c0,13.6-10.4,24-24,24h-32c-13.6,0-24-10.4-24-24v-24h24
		c4.8,0,8-3.2,8-8s-3.2-8-8-8h-24v-16h24c4.8,0,8-3.2,8-8s-3.2-8-8-8h-24v-16h24c4.8,0,8-3.2,8-8s-3.2-8-8-8h-24v-16h24
		c4.8,0,8-3.2,8-8s-3.2-8-8-8h-24v-16h24c4.8,0,8-3.2,8-8s-3.2-8-8-8h-24v-48h56C421.6,208,432,218.4,432,232z M32,40
		c0-13.6,10.4-24,24-24h256c13.6,0,24,10.4,24,24v160v224c0,8.8,3.2,17.6,8,24H56c-13.6,0-24-10.4-24-24V40z"/>
	<path style="fill:#322153;" d="M56,176h96c4.8,0,8-3.2,8-8s-3.2-8-8-8H56c-4.8,0-8,3.2-8,8S51.2,176,56,176z"/>
	<path style="fill:#322153;" d="M72,144h224c13.6,0,24-10.4,24-24V56c0-13.6-10.4-24-24-24H72c-13.6,0-24,10.4-24,24v64
		C48,133.6,58.4,144,72,144z M64,56c0-4.8,3.2-8,8-8h224c4.8,0,8,3.2,8,8v64c0,4.8-3.2,8-8,8H72c-4.8,0-8-3.2-8-8V56z"/>
	<path style="fill:#322153;" d="M56,208h32c4.8,0,8-3.2,8-8s-3.2-8-8-8H56c-4.8,0-8,3.2-8,8S51.2,208,56,208z"/>
	<path style="fill:#322153;" d="M152,224H88c-4.8,0-8,3.2-8,8c0,4.8,3.2,8,8,8h64c4.8,0,8-3.2,8-8S156.8,224,152,224z"/>
	<path style="fill:#322153;" d="M56,304h32c4.8,0,8-3.2,8-8s-3.2-8-8-8H56c-4.8,0-8,3.2-8,8S51.2,304,56,304z"/>
	<path style="fill:#322153;" d="M56,336h64c4.8,0,8-3.2,8-8s-3.2-8-8-8H56c-4.8,0-8,3.2-8,8S51.2,336,56,336z"/>
	<path style="fill:#322153;" d="M56,368h96c4.8,0,8-3.2,8-8s-3.2-8-8-8H56c-4.8,0-8,3.2-8,8S51.2,368,56,368z"/>
	<path style="fill:#322153;" d="M56,400h32c4.8,0,8-3.2,8-8s-3.2-8-8-8H56c-4.8,0-8,3.2-8,8S51.2,400,56,400z"/>
	<path style="fill:#322153;" d="M152,384h-32c-4.8,0-8,3.2-8,8s3.2,8,8,8h32c4.8,0,8-3.2,8-8S156.8,384,152,384z"/>
	<path style="fill:#322153;" d="M312,160h-96c-4.8,0-8,3.2-8,8s3.2,8,8,8h96c4.8,0,8-3.2,8-8S316.8,160,312,160z"/>
	<path style="fill:#322153;" d="M216,208h64c4.8,0,8-3.2,8-8s-3.2-8-8-8h-64c-4.8,0-8,3.2-8,8S211.2,208,216,208z"/>
	<path style="fill:#322153;" d="M216,240h32c4.8,0,8-3.2,8-8s-3.2-8-8-8h-32c-4.8,0-8,3.2-8,8C208,236.8,211.2,240,216,240z"/>
	<path style="fill:#322153;" d="M312,224h-32c-4.8,0-8,3.2-8,8c0,4.8,3.2,8,8,8h32c4.8,0,8-3.2,8-8S316.8,224,312,224z"/>
	<path style="fill:#322153;" d="M312,288h-96c-4.8,0-8,3.2-8,8s3.2,8,8,8h96c4.8,0,8-3.2,8-8S316.8,288,312,288z"/>
	<path style="fill:#322153;" d="M216,336h64c4.8,0,8-3.2,8-8s-3.2-8-8-8h-64c-4.8,0-8,3.2-8,8S211.2,336,216,336z"/>
	<path style="fill:#322153;" d="M312,352h-96c-4.8,0-8,3.2-8,8s3.2,8,8,8h96c4.8,0,8-3.2,8-8S316.8,352,312,352z"/>
	<path style="fill:#322153;" d="M248,384h-32c-4.8,0-8,3.2-8,8s3.2,8,8,8h32c4.8,0,8-3.2,8-8S252.8,384,248,384z"/>
	<path style="fill:#322153;" d="M56,272h64c4.8,0,8-3.2,8-8s-3.2-8-8-8H56c-4.8,0-8,3.2-8,8S51.2,272,56,272z"/>
	<path style="fill:#322153;" d="M152,192h-32c-4.8,0-8,3.2-8,8s3.2,8,8,8h32c4.8,0,8-3.2,8-8S156.8,192,152,192z"/>
	<path style="fill:#322153;" d="M152,288h-32c-4.8,0-8,3.2-8,8s3.2,8,8,8h32c4.8,0,8-3.2,8-8S156.8,288,152,288z"/>
</g>
<g>
</g>
<g>
</g>
<g>
</g>
<g>
</g>
<g>
</g>
<g>
</g>
<g>
</g>
<g>
</g>
<g>
</g>
<g>
</g>
<g>
</g>
<g>
</g>
<g>
</g>
<g>
</g>
<g>
</g>
</svg>
