<?xml version="1.0" encoding="iso-8859-1"?>
<!-- Generator: Adobe Illustrator 19.0.0, SVG Export Plug-In . SVG Version: 6.00 Build 0)  -->
<svg version="1.1" id="Capa_1" xmlns="http://www.w3.org/2000/svg" xmlns:xlink="http://www.w3.org/1999/xlink" x="0px" y="0px"
	 viewBox="0 0 488 488" style="enable-background:new 0 0 488 488;" xml:space="preserve">
<g>
	<circle style="fill:#00F2A9;" cx="84.387" cy="136" r="32"/>
	<circle style="fill:#00F2A9;" cx="180.387" cy="136" r="32"/>
	<circle style="fill:#00F2A9;" cx="308.387" cy="136" r="32"/>
	<circle style="fill:#00F2A9;" cx="404.387" cy="136" r="32"/>
	<path style="fill:#00F2A9;" d="M74.787,478.4c6.4,6.4,14.4,9.6,22.4,9.6h293.6c8.8,0,16.8-3.2,22.4-9.6l23.2-22.4h-384
		L74.787,478.4z"/>
</g>
<g>
	<path style="fill:#322153;" d="M436.387,32h-24V8c0-4.8-3.2-8-8-8s-8,3.2-8,8v24h-80V8c0-4.8-3.2-8-8-8s-8,3.2-8,8v24h-112V8
		c0-4.8-3.2-8-8-8s-8,3.2-8,8v24h-80V8c0-4.8-3.2-8-8-8s-8,3.2-8,8v24h-24c-22.4,0-40,17.6-40,40v320c0,20.8,16,37.6,36,40
		l20.8,20.8c7.2,7.2,17.6,12,28,12h293.6c10.4,0,20.8-4,28-12l20.8-20.8c20-1.6,36-19.2,36-40V72
		C476.387,49.6,458.787,32,436.387,32z M408.387,440.8c-4.8,4.8-10.4,7.2-16.8,7.2h-293.6c-6.4,0-12.8-2.4-16.8-7.2l-9.6-8.8h345.6
		L408.387,440.8z M460.387,392c0,13.6-10.4,24-24,24h-384c-13.6,0-24-10.4-24-24V72c0-13.6,10.4-24,24-24h24v16.8
		c-18.4,4-32,20-32,39.2c0,22.4,17.6,40,40,40s40-17.6,40-40c0-19.2-13.6-35.2-32-39.2V48h80v16.8c-18.4,4-32,20-32,39.2
		c0,22.4,17.6,40,40,40s40-17.6,40-40c0-19.2-13.6-35.2-32-39.2V48h112v16.8c-18.4,4-32,20-32,39.2c0,22.4,17.6,40,40,40
		s40-17.6,40-40c0-19.2-13.6-35.2-32-39.2V48h80v16.8c-18.4,4-32,20-32,39.2c0,22.4,17.6,40,40,40s40-17.6,40-40
		c0-19.2-13.6-35.2-32-39.2V48h24c13.6,0,24,10.4,24,24V392z M84.387,112c4.8,0,8-3.2,8-8V81.6c9.6,3.2,16,12,16,22.4
		c0,13.6-10.4,24-24,24s-24-10.4-24-24c0-10.4,6.4-19.2,16-22.4V104C76.387,108.8,79.587,112,84.387,112z M180.387,112
		c4.8,0,8-3.2,8-8V81.6c9.6,3.2,16,12,16,22.4c0,13.6-10.4,24-24,24s-24-10.4-24-24c0-10.4,6.4-19.2,16-22.4V104
		C172.387,108.8,175.587,112,180.387,112z M308.387,112c4.8,0,8-3.2,8-8V81.6c9.6,3.2,16,12,16,22.4c0,13.6-10.4,24-24,24
		s-24-10.4-24-24c0-10.4,6.4-19.2,16-22.4V104C300.387,108.8,303.587,112,308.387,112z M404.387,112c4.8,0,8-3.2,8-8V81.6
		c9.6,3.2,16,12,16,22.4c0,13.6-10.4,24-24,24s-24-10.4-24-24c0-10.4,6.4-19.2,16-22.4V104C396.387,108.8,399.587,112,404.387,112z"
		/>
	<path style="fill:#322153;" d="M84.387,208h128c4.8,0,8-3.2,8-8s-3.2-8-8-8h-128c-4.8,0-8,3.2-8,8S79.587,208,84.387,208z"/>
	<path style="fill:#322153;" d="M404.387,192h-160c-4.8,0-8,3.2-8,8s3.2,8,8,8h160c4.8,0,8-3.2,8-8S409.187,192,404.387,192z"/>
	<path style="fill:#322153;" d="M84.387,240h64c4.8,0,8-3.2,8-8s-3.2-8-8-8h-64c-4.8,0-8,3.2-8,8
		C76.387,236.8,79.587,240,84.387,240z"/>
	<path style="fill:#322153;" d="M404.387,224h-224c-4.8,0-8,3.2-8,8c0,4.8,3.2,8,8,8h224c4.8,0,8-3.2,8-8S409.187,224,404.387,224z"
		/>
	<path style="fill:#322153;" d="M84.387,336h128c4.8,0,8-3.2,8-8s-3.2-8-8-8h-128c-4.8,0-8,3.2-8,8S79.587,336,84.387,336z"/>
	<path style="fill:#322153;" d="M404.387,320h-160c-4.8,0-8,3.2-8,8s3.2,8,8,8h160c4.8,0,8-3.2,8-8S409.187,320,404.387,320z"/>
	<path style="fill:#322153;" d="M148.387,352h-64c-4.8,0-8,3.2-8,8s3.2,8,8,8h64c4.8,0,8-3.2,8-8S153.187,352,148.387,352z"/>
	<path style="fill:#322153;" d="M404.387,352h-224c-4.8,0-8,3.2-8,8s3.2,8,8,8h224c4.8,0,8-3.2,8-8S409.187,352,404.387,352z"/>
	<path style="fill:#322153;" d="M84.387,272h224c4.8,0,8-3.2,8-8s-3.2-8-8-8h-224c-4.8,0-8,3.2-8,8S79.587,272,84.387,272z"/>
	<path style="fill:#322153;" d="M404.387,256h-64c-4.8,0-8,3.2-8,8s3.2,8,8,8h64c4.8,0,8-3.2,8-8S409.187,256,404.387,256z"/>
	<path style="fill:#322153;" d="M84.387,304h96c4.8,0,8-3.2,8-8s-3.2-8-8-8h-96c-4.8,0-8,3.2-8,8S79.587,304,84.387,304z"/>
	<path style="fill:#322153;" d="M404.387,288h-192c-4.8,0-8,3.2-8,8s3.2,8,8,8h192c4.8,0,8-3.2,8-8S409.187,288,404.387,288z"/>
</g>
<g>
</g>
<g>
</g>
<g>
</g>
<g>
</g>
<g>
</g>
<g>
</g>
<g>
</g>
<g>
</g>
<g>
</g>
<g>
</g>
<g>
</g>
<g>
</g>
<g>
</g>
<g>
</g>
<g>
</g>
</svg>
