<?xml version="1.0" encoding="iso-8859-1"?>
<!-- Generator: Adobe Illustrator 19.0.0, SVG Export Plug-In . SVG Version: 6.00 Build 0)  -->
<svg version="1.1" id="Capa_1" xmlns="http://www.w3.org/2000/svg" xmlns:xlink="http://www.w3.org/1999/xlink" x="0px" y="0px"
	 viewBox="0 0 464 464" style="enable-background:new 0 0 464 464;" xml:space="preserve">
<g>
	<path style="fill:#00F2A9;" d="M24,200c8.8,0,16-7.2,16-16s7.2-16,16-16s16,7.2,16,16v16c0,17.6,14.4,32,32,32s32-14.4,32-32v-64
		H24c-8.8,0-16,7.2-16,16v32C8,192.8,15.2,200,24,200z"/>
	<path style="fill:#00F2A9;" d="M168,136v48c0,8.8,7.2,16,16,16s16-7.2,16-16v-32c0-8.8-7.2-16-16-16H168z"/>
	<path style="fill:#00F2A9;" d="M232,264c0,17.6,14.4,32,32,32s32-14.4,32-32v-32h-64V264z"/>
	<path style="fill:#00F2A9;" d="M408,328c8.8,0,16-7.2,16-16v-80h-96v48c0,8.8,7.2,16,16,16c4,0,8-1.6,11.2-4.8
		c3.2-3.2,4.8-7.2,4.8-11.2c0-8.8,7.2-16,16-16s16,7.2,16,16v32C392,320.8,399.2,328,408,328z"/>
</g>
<g>
	<circle style="fill:#322153;" cx="104" cy="360" r="16"/>
	<path style="fill:#322153;" d="M296,0c-64.8,0-124,37.6-152,96H24c-13.6,0-24,10.4-24,24v32v80v32c0,22.4,17.6,40,40,40h24v56
		c0,22.4,17.6,40,40,40s40-17.6,40-40v-56h16v120c0,22.4,17.6,40,40,40h192c22.4,0,40-17.6,40-40V280v-72h24c4.8,0,8-3.2,8-8v-32
		C464,75.2,388.8,0,296,0z M174.4,112h9.6c4.8,0,8,3.2,8,8v32c0,4.8-3.2,8-8,8s-8-3.2-8-8v-32c0-1.6,0-3.2-0.8-4.8
		c0-0.8,0-0.8,0-1.6C175.2,113.6,175.2,112.8,174.4,112z M40,192c-4.8,0-8,3.2-8,8v24H16v-49.6c0.8,0,1.6,0,2.4,0.8
		c0.8,0,0.8,0,1.6,0c0.8,0.8,2.4,0.8,4,0.8c13.6,0,24-10.4,24-24c0-4.8,3.2-8,8-8s8,3.2,8,8v16c0,22.4,17.6,40,40,40s40-17.6,40-40
		v-48c0-4.8,3.2-8,8-8s8,3.2,8,8v32c0,13.6,10.4,24,24,24c1.6,0,3.2,0,4.8-0.8c0.8,0,0.8,0,1.6,0s1.6,0,2.4-0.8V200v24H48v-24
		C48,195.2,44.8,192,40,192z M16,120c0-4.8,3.2-8,8-8h105.6c0,0.8,0,1.6-0.8,2.4c0,0.8,0,0.8,0,1.6c0,1.6-0.8,3.2-0.8,4.8v48
		c0,13.6-10.4,24-24,24s-24-10.4-24-24v-16c0-13.6-10.4-24-24-24s-24,10.4-24,24c0,4.8-3.2,8-8,8s-8-3.2-8-8V120z M128,304v56
		c0,13.6-10.4,24-24,24s-24-10.4-24-24v-56c0-8.8-7.2-16-16-16H40c-10.4,0-19.2-6.4-22.4-16H136c4.8,0,8-3.2,8-8s-3.2-8-8-8H16v-16
		h176v24c0,13.6-10.4,24-24,24h-24C135.2,288,128,295.2,128,304z M392,448H200c-13.6,0-24-10.4-24-24V303.2c18.4-4,32-20,32-39.2
		v-32v-24h16v24c0,22.4,17.6,40,40,40s40-17.6,40-40v-24h16v40c0,13.6,10.4,24,24,24c6.4,0,12.8-2.4,16.8-7.2
		c4.8-4.8,7.2-10.4,7.2-16.8c0-4.8,3.2-8,8-8s8,3.2,8,8v32c0,13.6,10.4,24,24,24c3.2,0,5.6-0.8,8-1.6V424
		C416,437.6,405.6,448,392,448z M240,208h48v24c0,13.6-10.4,24-24,24s-24-10.4-24-24V208z M416,280c0,4.8-3.2,8-8,8s-8-3.2-8-8v-32
		c0-13.6-10.4-24-24-24s-24,10.4-24,24c0,2.4-0.8,4-2.4,5.6s-3.2,2.4-5.6,2.4c-4.8,0-8-3.2-8-8v-40h80V280z M448,192h-24h-96h-32
		h-64h-24v-16h216h24V192z M424,160H208v-8v-32c0-13.6-10.4-24-24-24h-21.6C188.8,47.2,240,16,296,16c80.8,0,148,64,152,144H424z"/>
	<path style="fill:#322153;" d="M322.4,322.4l-64,64c-3.2,3.2-3.2,8,0,11.2c1.6,1.6,4,2.4,5.6,2.4s4-0.8,5.6-2.4l64-64
		c3.2-3.2,3.2-8,0-11.2S325.6,319.2,322.4,322.4z"/>
	<path style="fill:#322153;" d="M264,368c2.4,0,4-0.8,5.6-2.4l32-32c3.2-3.2,3.2-8,0-11.2s-8-3.2-11.2,0l-32,32
		c-3.2,3.2-3.2,8,0,11.2C260,367.2,261.6,368,264,368z"/>
	<path style="fill:#322153;" d="M322.4,354.4l-32,32c-3.2,3.2-3.2,8,0,11.2c1.6,1.6,4,2.4,5.6,2.4s4-0.8,5.6-2.4l32-32
		c3.2-3.2,3.2-8,0-11.2S325.6,351.2,322.4,354.4z"/>
</g>
<g>
</g>
<g>
</g>
<g>
</g>
<g>
</g>
<g>
</g>
<g>
</g>
<g>
</g>
<g>
</g>
<g>
</g>
<g>
</g>
<g>
</g>
<g>
</g>
<g>
</g>
<g>
</g>
<g>
</g>
</svg>
