<?xml version="1.0" encoding="iso-8859-1"?>
<!-- Generator: Adobe Illustrator 19.0.0, SVG Export Plug-In . SVG Version: 6.00 Build 0)  -->
<svg version="1.1" id="Capa_1" xmlns="http://www.w3.org/2000/svg" xmlns:xlink="http://www.w3.org/1999/xlink" x="0px" y="0px"
	 viewBox="0 0 463.2 463.2" style="enable-background:new 0 0 463.2 463.2;" xml:space="preserve">
<path style="fill:#00F2A9;" d="M332,58.9L167.2,223.7l96,96l169.6-169.6c12.8-12.8,12.8-32.8,0-45.6l-46.4-46.4
	C371.2,43.7,347.2,43.7,332,58.9z"/>
<g>
	<path style="fill:#322153;" d="M438.4,67.7L392,21.3c-18.4-18.4-48-18.4-65.6,0L161.6,186.1c0,0,0,0,0,0.8
		c-0.8,0.8-0.8,0.8-1.6,1.6v0.8c0,0.8-0.8,1.6-0.8,2.4v18.4c0,6.4-2.4,12.8-7.2,16.8L33.6,346.1c-0.8,0.8-1.6,1.6-1.6,3.2l0,0
		l-32,96c0,0.8,0,1.6,0,2.4l0,0l0,0c0,0.8,0,1.6,0.8,2.4v0.8c0,0.8,0.8,1.6,1.6,2.4c0.8,0.8,1.6,1.6,2.4,1.6c0,0.8,1.6,0.8,2.4,0.8
		h192c4.8,0,8-3.2,8-8s-3.2-8-8-8H56.8l49.6-16.8l0,0c0.8,0,2.4-0.8,3.2-1.6L228,302.9c4.8-4.8,10.4-7.2,16.8-7.2h18.4
		c0.8,0,2.4,0,3.2-0.8c0.8-0.8,1.6-0.8,2.4-1.6l169.6-169.6c4-4,7.2-8.8,8.8-13.6c0,0.8,0,0.8,0,1.6c0,8-3.2,16-8.8,21.6
		L321.6,250.1c-3.2,3.2-3.2,8,0,11.2c1.6,1.6,4,2.4,5.6,2.4c1.6,0,4-0.8,5.6-2.4l116.8-116.8c8.8-8.8,13.6-20.8,13.6-32.8
		s-4.8-24-13.6-32.8L438.4,67.7z M42.4,366.9L88,412.5l-68.8,23.2L42.4,366.9z M427.2,112.5L260,279.7h-15.2c-10.4,0-20.8,4-28,12
		L103.2,404.5l-52.8-52.8l112.8-112.8c7.2-7.2,11.2-17.6,12-28l50.4,50.4c3.2,3.2,8,3.2,11.2,0s3.2-8,0-11.2l-58.4-58.4L337.6,32.5
		c12-12,31.2-12,43.2,0l46.4,46.4C436,87.7,436,103.7,427.2,112.5z"/>
	<path style="fill:#322153;" d="M161.6,250.1l-96,96c-3.2,3.2-3.2,8,0,11.2c1.6,1.6,4,2.4,5.6,2.4s4-0.8,5.6-2.4l96-96
		c3.2-3.2,3.2-8,0-11.2S164.8,246.9,161.6,250.1z"/>
	<path style="fill:#322153;" d="M353.6,58.1l-64,64c-3.2,3.2-3.2,8,0,11.2c1.6,1.6,4,2.4,5.6,2.4c1.6,0,4-0.8,5.6-2.4l64-64
		c3.2-3.2,3.2-8,0-11.2S356.8,54.9,353.6,58.1z"/>
	<path style="fill:#322153;" d="M295.2,103.7c2.4,0,4-0.8,5.6-2.4l32-32c3.2-3.2,3.2-8,0-11.2s-8-3.2-11.2,0l-32,32
		c-3.2,3.2-3.2,8,0,11.2C291.2,102.9,292.8,103.7,295.2,103.7z"/>
	<path style="fill:#322153;" d="M353.6,90.1l-32,32c-3.2,3.2-3.2,8,0,11.2c1.6,1.6,4,2.4,5.6,2.4c1.6,0,4-0.8,5.6-2.4l32-32
		c3.2-3.2,3.2-8,0-11.2S356.8,86.9,353.6,90.1z"/>
	<path style="fill:#322153;" d="M231.2,455.7h128c4.8,0,8-3.2,8-8s-3.2-8-8-8h-128c-4.8,0-8,3.2-8,8S226.4,455.7,231.2,455.7z"/>
	<path style="fill:#322153;" d="M423.2,455.7c4.8,0,8-3.2,8-8s-3.2-8-8-8h-32c-4.8,0-8,3.2-8,8s3.2,8,8,8H423.2z"/>
</g>
<g>
</g>
<g>
</g>
<g>
</g>
<g>
</g>
<g>
</g>
<g>
</g>
<g>
</g>
<g>
</g>
<g>
</g>
<g>
</g>
<g>
</g>
<g>
</g>
<g>
</g>
<g>
</g>
<g>
</g>
</svg>
