<?xml version="1.0" encoding="iso-8859-1"?>
<!-- Generator: Adobe Illustrator 19.0.0, SVG Export Plug-In . SVG Version: 6.00 Build 0)  -->
<svg version="1.1" id="Capa_1" xmlns="http://www.w3.org/2000/svg" xmlns:xlink="http://www.w3.org/1999/xlink" x="0px" y="0px"
	 viewBox="0 0 464 464" style="enable-background:new 0 0 464 464;" xml:space="preserve">
<polygon style="fill:#00F2A9;" points="40,392 424,392 424,328 360,264 328,296 296,264 264,296 232,264 168,200 104,264 40,328 "/>
<g>
	<path style="fill:#322153;" d="M40,368h384c4.8,0,8-3.2,8-8v-64V56c0-13.6-10.4-24-24-24H56c-13.6,0-24,10.4-24,24v240v64
		C32,364.8,35.2,368,40,368z M416,352h-52.8l-29.6-29.6c-3.2-3.2-8-3.2-11.2,0s-3.2,8,0,11.2l18.4,18.4H48v-52.8l56-56l26.4,26.4
		c3.2,3.2,8,3.2,11.2,0l26.4-26.4l26.4,26.4c1.6,1.6,4,2.4,5.6,2.4s4-0.8,5.6-2.4l26.4-26.4l26.4,26.4l32,32c1.6,1.6,4,2.4,5.6,2.4
		s4-0.8,5.6-2.4c3.2-3.2,3.2-8,0-11.2L275.2,264l20.8-20.8l26.4,26.4c1.6,1.6,4,2.4,5.6,2.4s4-0.8,5.6-2.4l26.4-26.4l56,56V352z
		 M115.2,232l52.8-52.8l52.8,52.8L200,252.8l-26.4-26.4c-1.6-1.6-3.2-2.4-5.6-2.4s-4,0.8-5.6,2.4L136,252.8L115.2,232z M307.2,232
		l20.8-20.8l20.8,20.8L328,252.8L307.2,232z M48,56c0-4.8,3.2-8,8-8h352c4.8,0,8,3.2,8,8v220.8l-50.4-50.4l-32-32
		c-1.6-1.6-3.2-2.4-5.6-2.4s-4,0.8-5.6,2.4l-32,32L264,252.8l-26.4-26.4l-64-64c-3.2-3.2-8-3.2-11.2,0l-64,64L48,276.8V56z"/>
	<path style="fill:#322153;" d="M40,464h384c22.4,0,40-17.6,40-40V40c0-22.4-17.6-40-40-40H40C17.6,0,0,17.6,0,40v384
		C0,446.4,17.6,464,40,464z M16,40c0-13.6,10.4-24,24-24h384c13.6,0,24,10.4,24,24v384c0,13.6-10.4,24-24,24H40
		c-13.6,0-24-10.4-24-24V40z"/>
	<path style="fill:#322153;" d="M98.4,290.4l-32,32c-3.2,3.2-3.2,8,0,11.2c1.6,1.6,4,2.4,5.6,2.4s4-0.8,5.6-2.4l32-32
		c3.2-3.2,3.2-8,0-11.2S101.6,287.2,98.4,290.4z"/>
	<path style="fill:#322153;" d="M200,416H72c-4.8,0-8,3.2-8,8s3.2,8,8,8h128c4.8,0,8-3.2,8-8S204.8,416,200,416z"/>
	<path style="fill:#322153;" d="M264,416h-32c-4.8,0-8,3.2-8,8s3.2,8,8,8h32c4.8,0,8-3.2,8-8S268.8,416,264,416z"/>
	<path style="fill:#322153;" d="M392,416h-96c-4.8,0-8,3.2-8,8s3.2,8,8,8h96c4.8,0,8-3.2,8-8S396.8,416,392,416z"/>
	<path style="fill:#322153;" d="M328,144c22.4,0,40-17.6,40-40s-17.6-40-40-40s-40,17.6-40,40S305.6,144,328,144z M328,80
		c13.6,0,24,10.4,24,24s-10.4,24-24,24s-24-10.4-24-24S314.4,80,328,80z"/>
</g>
<g>
</g>
<g>
</g>
<g>
</g>
<g>
</g>
<g>
</g>
<g>
</g>
<g>
</g>
<g>
</g>
<g>
</g>
<g>
</g>
<g>
</g>
<g>
</g>
<g>
</g>
<g>
</g>
<g>
</g>
</svg>
