<?xml version="1.0" encoding="iso-8859-1"?>
<!-- Generator: Adobe Illustrator 19.0.0, SVG Export Plug-In . SVG Version: 6.00 Build 0)  -->
<svg version="1.1" id="Capa_1" xmlns="http://www.w3.org/2000/svg" xmlns:xlink="http://www.w3.org/1999/xlink" x="0px" y="0px"
	 viewBox="0 0 464 464" style="enable-background:new 0 0 464 464;" xml:space="preserve">
<polygon style="fill:#00F2A9;" points="168,104 136,328 328,328 296,104 200,104 "/>
<g>
	<path style="fill:#322153;" d="M85.6,335.2c-5.6,5.6-7.2,13.6-4,20.8c3.2,7.2,10.4,12,17.6,12h94.4l30.4,90.4
		c0.8,3.2,4,5.6,7.2,5.6s6.4-2.4,7.2-5.6l31.2-90.4h95.2c8,0,14.4-4.8,17.6-12s1.6-15.2-4-20.8L335.2,292L304,74.4l28.8-28.8
		c0,0,0,0,0.8-0.8l4.8-4.8c7.2-7.2,8.8-16.8,5.6-26.4C340,5.6,331.2,0,321.6,0H142.4C132.8,0,124,5.6,120,15.2
		c-4,8.8-1.6,19.2,5.6,26.4l33.6,33.6L128,292.8L85.6,335.2z M232,430.4L211.2,368h41.6L232,430.4z M135.2,20.8
		c0.8-0.8,2.4-4.8,7.2-4.8h178.4c4.8,0,7.2,4,7.2,4.8c0.8,0.8,1.6,5.6-1.6,8.8l-1.6,2.4H232c-4.8,0-8,3.2-8,8s3.2,8,8,8h76.8l-16,16
		h-89.6l-29.6-29.6c-3.2-3.2-8-3.2-11.2,0s-3.2,8,0,11.2l32,32c1.6,1.6,3.2,2.4,5.6,2.4h88.8L320,296.8v0.8c0,0.8,0,0.8,0.8,1.6
		c0,0.8,0.8,0.8,0.8,1.6c0,0,0,0.8,0.8,0.8l44.8,44.8c1.6,1.6,0.8,2.4,0.8,3.2c0,0.8-0.8,1.6-3.2,1.6H100c-1.6,0-3.2-1.6-3.2-2.4
		s-0.8-2.4,0.8-4l42.4-42.4h9.6l-18.4,18.4c-3.2,3.2-3.2,8,0,11.2c1.6,1.6,4,2.4,5.6,2.4s4-0.8,5.6-2.4l29.6-29.6h124
		c4.8,0,8-3.2,8-8s-3.2-8-8-8H145.6L176,72.8c0,0,0,0,0-0.8s0-0.8,0-1.6c0-0.8,0-0.8,0-1.6c0-0.8,0-0.8-0.8-1.6
		c0-0.8-0.8-0.8-0.8-1.6c0,0,0,0,0-0.8L137.6,28C133.6,26.4,135.2,22.4,135.2,20.8z"/>
	<path style="fill:#322153;" d="M200,208c2.4,0,4-0.8,5.6-2.4l64-64c3.2-3.2,3.2-8,0-11.2s-8-3.2-11.2,0l-64,64
		c-3.2,3.2-3.2,8,0,11.2C196,207.2,197.6,208,200,208z"/>
	<path style="fill:#322153;" d="M200,176c2.4,0,4-0.8,5.6-2.4l32-32c3.2-3.2,3.2-8,0-11.2s-8-3.2-11.2,0l-32,32
		c-3.2,3.2-3.2,8,0,11.2C196,175.2,197.6,176,200,176z"/>
	<path style="fill:#322153;" d="M258.4,162.4l-32,32c-3.2,3.2-3.2,8,0,11.2c1.6,1.6,4,2.4,5.6,2.4s4-0.8,5.6-2.4l32-32
		c3.2-3.2,3.2-8,0-11.2S261.6,159.2,258.4,162.4z"/>
</g>
<g>
</g>
<g>
</g>
<g>
</g>
<g>
</g>
<g>
</g>
<g>
</g>
<g>
</g>
<g>
</g>
<g>
</g>
<g>
</g>
<g>
</g>
<g>
</g>
<g>
</g>
<g>
</g>
<g>
</g>
</svg>
