<?xml version="1.0" encoding="iso-8859-1"?>
<!-- Generator: Adobe Illustrator 19.0.0, SVG Export Plug-In . SVG Version: 6.00 Build 0)  -->
<svg version="1.1" id="Capa_1" xmlns="http://www.w3.org/2000/svg" xmlns:xlink="http://www.w3.org/1999/xlink" x="0px" y="0px"
	 viewBox="0 0 464 464" style="enable-background:new 0 0 464 464;" xml:space="preserve">
<path style="fill:#00F2A9;" d="M424,104H40c-17.6,0-32,14.4-32,32v96c0,17.6,14.4,32,32,32h128h96h160c17.6,0,32-14.4,32-32v-96
	C456,118.4,441.6,104,424,104z"/>
<g>
	<path style="fill:#322153;" d="M424,64h-88.8c-4-18.4-20-32-39.2-32H168c-19.2,0-35.2,13.6-39.2,32H40C17.6,64,0,81.6,0,104v96v192
		c0,22.4,17.6,40,40,40h384c22.4,0,40-17.6,40-40V200v-96C464,81.6,446.4,64,424,64z M448,104v24h-56c-4.8,0-8,3.2-8,8s3.2,8,8,8h56
		v16h-24c-4.8,0-8,3.2-8,8s3.2,8,8,8h24v24c0,13.6-10.4,24-24,24H272V104c0-4.8-3.2-8-8-8s-8,3.2-8,8v204.8l-18.4-18.4
		c-3.2-3.2-8-3.2-11.2,0L208,308.8V80h216C437.6,80,448,90.4,448,104z M168,48h128c10.4,0,19.2,6.4,22.4,16H145.6
		C148.8,54.4,157.6,48,168,48z M424,416H40c-13.6,0-24-10.4-24-24V232c6.4,4.8,15.2,8,24,8h128c4.8,0,8-3.2,8-8s-3.2-8-8-8H40
		c-13.6,0-24-10.4-24-24v-24h24c4.8,0,8-3.2,8-8s-3.2-8-8-8H16v-16h56c4.8,0,8-3.2,8-8s-3.2-8-8-8H16v-24c0-13.6,10.4-24,24-24h152
		v248c0,3.2,1.6,6.4,4.8,7.2c3.2,1.6,6.4,0.8,8.8-1.6l26.4-26.4l26.4,26.4c1.6,1.6,3.2,2.4,5.6,2.4c0.8,0,2.4,0,3.2-0.8
		c3.2-1.6,4.8-4,4.8-7.2v-88h152c8.8,0,17.6-3.2,24-8v160C448,405.6,437.6,416,424,416z"/>
	<circle style="fill:#322153;" cx="232" cy="264" r="16"/>
	<path style="fill:#322153;" d="M130.4,290.4l-64,64c-3.2,3.2-3.2,8,0,11.2c1.6,1.6,4,2.4,5.6,2.4s4-0.8,5.6-2.4l64-64
		c3.2-3.2,3.2-8,0-11.2S133.6,287.2,130.4,290.4z"/>
	<path style="fill:#322153;" d="M72,336c2.4,0,4-0.8,5.6-2.4l32-32c3.2-3.2,3.2-8,0-11.2s-8-3.2-11.2,0l-32,32
		c-3.2,3.2-3.2,8,0,11.2C68,335.2,69.6,336,72,336z"/>
	<path style="fill:#322153;" d="M130.4,322.4l-32,32c-3.2,3.2-3.2,8,0,11.2c1.6,1.6,4,2.4,5.6,2.4s4-0.8,5.6-2.4l32-32
		c3.2-3.2,3.2-8,0-11.2S133.6,319.2,130.4,322.4z"/>
	<path style="fill:#322153;" d="M424,352c-4.8,0-8,3.2-8,8c0,22.4-20,24-24,24h-32c-4.8,0-8,3.2-8,8s3.2,8,8,8h32c13.6,0,40-8,40-40
		C432,355.2,428.8,352,424,352z"/>
</g>
<g>
</g>
<g>
</g>
<g>
</g>
<g>
</g>
<g>
</g>
<g>
</g>
<g>
</g>
<g>
</g>
<g>
</g>
<g>
</g>
<g>
</g>
<g>
</g>
<g>
</g>
<g>
</g>
<g>
</g>
</svg>
