<?xml version="1.0" encoding="iso-8859-1"?>
<!-- Generator: Adobe Illustrator 19.0.0, SVG Export Plug-In . SVG Version: 6.00 Build 0)  -->
<svg version="1.1" id="Capa_1" xmlns="http://www.w3.org/2000/svg" xmlns:xlink="http://www.w3.org/1999/xlink" x="0px" y="0px"
	 viewBox="0 0 464 464" style="enable-background:new 0 0 464 464;" xml:space="preserve">
<circle style="fill:#00F2A9;" cx="232" cy="232" r="64"/>
<g>
	<path style="fill:#322153;" d="M440,32H240V8c0-4.8-3.2-8-8-8s-8,3.2-8,8v24H24C10.4,32,0,42.4,0,56s10.4,24,24,24h8v264
		c0,13.6,10.4,24,24,24h156.8l-80,80H72c-4.8,0-8,3.2-8,8s3.2,8,8,8h320c4.8,0,8-3.2,8-8s-3.2-8-8-8h-60.8l-80-80H408
		c13.6,0,24-10.4,24-24V80h8c13.6,0,24-10.4,24-24S453.6,32,440,32z M224,379.2V448h-68.8L224,379.2z M240,448v-68.8l68.8,68.8H240z
		 M416,344c0,4.8-3.2,8-8,8H56c-4.8,0-8-3.2-8-8V80h368V344z M440,64h-16H40H24c-4.8,0-8-3.2-8-8s3.2-8,8-8h416c4.8,0,8,3.2,8,8
		S444.8,64,440,64z"/>
	<path style="fill:#322153;" d="M104,144h28.8l29.6,29.6c0.8,0.8,1.6,0.8,2.4,1.6c-3.2,8-4.8,16-4.8,24.8c0,40,32,72,72,72
		c24.8,0,47.2-12.8,60-32.8l30.4,30.4c1.6,1.6,3.2,2.4,5.6,2.4h32c4.8,0,8-3.2,8-8s-3.2-8-8-8h-28.8l-29.6-29.6
		c-0.8-0.8-1.6-0.8-2.4-1.6c3.2-8,4.8-16,4.8-24.8c0-40-32-72-72-72c-24.8,0-47.2,12.8-60,32.8l-30.4-30.4c-1.6-1.6-3.2-2.4-5.6-2.4
		h-32c-4.8,0-8,3.2-8,8S99.2,144,104,144z M232,144c31.2,0,56,24.8,56,56s-24.8,56-56,56s-56-24.8-56-56S200.8,144,232,144z"/>
	<path style="fill:#322153;" d="M72,304h64c4.8,0,8-3.2,8-8s-3.2-8-8-8H72c-4.8,0-8,3.2-8,8S67.2,304,72,304z"/>
	<path style="fill:#322153;" d="M72,336h32c4.8,0,8-3.2,8-8s-3.2-8-8-8H72c-4.8,0-8,3.2-8,8S67.2,336,72,336z"/>
	<path style="fill:#322153;" d="M200,320h-64c-4.8,0-8,3.2-8,8s3.2,8,8,8h64c4.8,0,8-3.2,8-8S204.8,320,200,320z"/>
	<path style="fill:#322153;" d="M328,320h-96c-4.8,0-8,3.2-8,8s3.2,8,8,8h96c4.8,0,8-3.2,8-8S332.8,320,328,320z"/>
	<path style="fill:#322153;" d="M352,328c0,4.8,3.2,8,8,8h32c4.8,0,8-3.2,8-8s-3.2-8-8-8h-32C355.2,320,352,323.2,352,328z"/>
	<path style="fill:#322153;" d="M194.4,237.6c1.6,1.6,4,2.4,5.6,2.4s4-0.8,5.6-2.4l64-64c3.2-3.2,3.2-8,0-11.2s-8-3.2-11.2,0l-64,64
		C191.2,229.6,191.2,234.4,194.4,237.6z"/>
	<path style="fill:#322153;" d="M200,208c2.4,0,4-0.8,5.6-2.4l32-32c3.2-3.2,3.2-8,0-11.2s-8-3.2-11.2,0l-32,32
		c-3.2,3.2-3.2,8,0,11.2C196,207.2,197.6,208,200,208z"/>
	<path style="fill:#322153;" d="M258.4,194.4l-32,32c-3.2,3.2-3.2,8,0,11.2c1.6,1.6,4,2.4,5.6,2.4s4-0.8,5.6-2.4l32-32
		c3.2-3.2,3.2-8,0-11.2S261.6,191.2,258.4,194.4z"/>
</g>
<g>
</g>
<g>
</g>
<g>
</g>
<g>
</g>
<g>
</g>
<g>
</g>
<g>
</g>
<g>
</g>
<g>
</g>
<g>
</g>
<g>
</g>
<g>
</g>
<g>
</g>
<g>
</g>
<g>
</g>
</svg>
