<?xml version="1.0" encoding="iso-8859-1"?>
<!-- Generator: Adobe Illustrator 19.0.0, SVG Export Plug-In . SVG Version: 6.00 Build 0)  -->
<svg version="1.1" id="Capa_1" xmlns="http://www.w3.org/2000/svg" xmlns:xlink="http://www.w3.org/1999/xlink" x="0px" y="0px"
	 viewBox="0 0 464 464" style="enable-background:new 0 0 464 464;" xml:space="preserve">
<g>
	<path style="fill:#00F2A9;" d="M190.4,382.4c6.4,6.4,14.4,9.6,22.4,9.6h37.6c8.8,0,16.8-3.2,22.4-9.6L296,360H168L190.4,382.4z"/>
	<circle style="fill:#00F2A9;" cx="232" cy="104" r="32"/>
</g>
<g>
	<path style="fill:#322153;" d="M224,392v64c0,4.8,3.2,8,8,8c4.8,0,8-3.2,8-8v-64c0-4.8-3.2-8-8-8S224,387.2,224,392z"/>
	<path style="fill:#322153;" d="M208,392c0-4.8-3.2-8-8-8s-8,3.2-8,8v32c0,4.8,3.2,8,8,8s8-3.2,8-8V392z"/>
	<path style="fill:#322153;" d="M256,392v32c0,4.8,3.2,8,8,8s8-3.2,8-8v-32c0-4.8-3.2-8-8-8S256,387.2,256,392z"/>
	<path style="fill:#322153;" d="M232,112c22.4,0,40-17.6,40-40s-17.6-40-40-40s-40,17.6-40,40S209.6,112,232,112z M232,48
		c13.6,0,24,10.4,24,24s-10.4,24-24,24s-24-10.4-24-24S218.4,48,232,48z"/>
	<path style="fill:#322153;" d="M200,240c2.4,0,4-0.8,5.6-2.4l64-64c3.2-3.2,3.2-8,0-11.2s-8-3.2-11.2,0l-64,64
		c-3.2,3.2-3.2,8,0,11.2C196,239.2,197.6,240,200,240z"/>
	<path style="fill:#322153;" d="M200,208c2.4,0,4-0.8,5.6-2.4l32-32c3.2-3.2,3.2-8,0-11.2s-8-3.2-11.2,0l-32,32
		c-3.2,3.2-3.2,8,0,11.2C196,207.2,197.6,208,200,208z"/>
	<path style="fill:#322153;" d="M258.4,194.4l-32,32c-3.2,3.2-3.2,8,0,11.2c1.6,1.6,4,2.4,5.6,2.4s4-0.8,5.6-2.4l32-32
		c3.2-3.2,3.2-8,0-11.2S261.6,191.2,258.4,194.4z"/>
	<path style="fill:#322153;" d="M64,296c0,4.8,3.2,8,8,8h56.8c3.2,16.8,17.6,30.4,35.2,32l20.8,20.8c7.2,7.2,17.6,12,28,12h37.6
		c10.4,0,20.8-4,28-12l20.8-20.8c17.6-1.6,32-14.4,35.2-32H392c4.8,0,8-3.2,8-8c0-40.8-30.4-74.4-70.4-79.2h-2.4l-16-146.4
		C306.4,30.4,272.8,0,232,0s-74.4,30.4-79.2,70.4l-16,146.4h-2.4C94.4,221.6,64,255.2,64,296z M250.4,352h-37.6
		c-6.4,0-12.8-2.4-16.8-7.2l-8.8-8.8h89.6l-8.8,8.8C263.2,349.6,256.8,352,250.4,352z M383.2,288h-48l-6.4-55.2
		C357.6,236.8,380,260,383.2,288z M168.8,72.8C172.8,40,199.2,16,232,16s59.2,24,63.2,56.8L320,296c0,12.8-11.2,24-24,24H168
		c-10.4,0-19.2-6.4-22.4-16H296c4.8,0,8-3.2,8-8s-3.2-8-8-8H144.8L168.8,72.8z M135.2,232.8l-6.4,55.2h-48
		C84,260,106.4,236.8,135.2,232.8z"/>
	<path style="fill:#322153;" d="M0,408c0,31.2,24.8,56,56,56h96c7.2,0,13.6-3.2,18.4-8.8s6.4-12.8,5.6-19.2
		c-1.6-11.2-12.8-20-24.8-20c-4,0-7.2-3.2-7.2-7.2V408l0,0c0-13.6-10.4-24-24-24c-4,0-8.8,0.8-12,3.2c-8-20.8-28.8-35.2-52-35.2
		C24.8,352,0,376.8,0,408z M96,408c0,4.8,3.2,8,8,8s8-3.2,8-8s3.2-8,8-8s8,3.2,8,8s-3.2,8-8,8s-8,3.2-8,8s3.2,8,8,8
		c6.4,0,11.2-2.4,16-5.6c4,4,9.6,5.6,15.2,5.6c4,0,8,3.2,8.8,6.4c0,2.4,0,4.8-1.6,6.4c-1.6,2.4-4,3.2-6.4,3.2H56
		c-22.4,0-40-17.6-40-40s17.6-40,40-40S96,385.6,96,408z"/>
	<path style="fill:#322153;" d="M32,408c0,4.8,3.2,8,8,8s8-3.2,8-8s3.2-8,8-8s8-3.2,8-8s-3.2-8-8-8C42.4,384,32,394.4,32,408z"/>
	<path style="fill:#322153;" d="M408,352c-23.2,0-44,14.4-52,35.2c-3.2-2.4-8-3.2-12-3.2c-13.6,0-24,10.4-24,24l0,0v0.8
		c0,4-3.2,7.2-7.2,7.2c-12,0-22.4,8.8-24.8,20c-0.8,7.2,0.8,14.4,5.6,19.2s11.2,8.8,18.4,8.8h96c31.2,0,56-24.8,56-56
		S439.2,352,408,352z M408,448h-96c-2.4,0-4.8-0.8-6.4-3.2c-1.6-1.6-1.6-4-1.6-6.4c0.8-4,4.8-6.4,8.8-6.4c5.6,0,11.2-2.4,15.2-5.6
		c4,4,9.6,5.6,16,5.6c4.8,0,8-3.2,8-8s-3.2-8-8-8s-8-3.2-8-8s3.2-8,8-8s8,3.2,8,8s3.2,8,8,8s8-3.2,8-8c0-22.4,17.6-40,40-40
		s40,17.6,40,40S430.4,448,408,448z"/>
	<path style="fill:#322153;" d="M424,400c-4.8,0-8,3.2-8,8s-3.2,8-8,8h-16c-4.8,0-8,3.2-8,8s3.2,8,8,8h16c13.6,0,24-10.4,24-24
		C432,403.2,428.8,400,424,400z"/>
</g>
<g>
</g>
<g>
</g>
<g>
</g>
<g>
</g>
<g>
</g>
<g>
</g>
<g>
</g>
<g>
</g>
<g>
</g>
<g>
</g>
<g>
</g>
<g>
</g>
<g>
</g>
<g>
</g>
<g>
</g>
</svg>
