<?xml version="1.0" encoding="iso-8859-1"?>
<!-- Generator: Adobe Illustrator 19.0.0, SVG Export Plug-In . SVG Version: 6.00 Build 0)  -->
<svg version="1.1" id="Capa_1" xmlns="http://www.w3.org/2000/svg" xmlns:xlink="http://www.w3.org/1999/xlink" x="0px" y="0px"
	 viewBox="0 0 464.4 464.4" style="enable-background:new 0 0 464.4 464.4;" xml:space="preserve">
<polygon style="fill:#00F2A9;" points="392.2,136.4 360.2,168.4 328.2,136.4 296.2,168.4 264.2,136.4 264.2,456.4 392.2,456.4 "/>
<g>
	<path style="fill:#322153;" d="M104.2,0.4c-22.4,0-40,17.6-40,40v384c0,22.4,17.6,40,40,40h64c22.4,0,40-17.6,40-40v-384
		c0-22.4-17.6-40-40-40H104.2z M192.2,40.4v384c0,13.6-10.4,24-24,24h-64c-10.4,0-19.2-6.4-22.4-16h22.4c4.8,0,8-3.2,8-8s-3.2-8-8-8
		h-24v-16h56c4.8,0,8-3.2,8-8s-3.2-8-8-8h-56v-16h24c4.8,0,8-3.2,8-8s-3.2-8-8-8h-24v-16h56c4.8,0,8-3.2,8-8s-3.2-8-8-8h-56v-16h24
		c4.8,0,8-3.2,8-8s-3.2-8-8-8h-24v-16h56c4.8,0,8-3.2,8-8s-3.2-8-8-8h-56v-16h24c4.8,0,8-3.2,8-8s-3.2-8-8-8h-24v-16h56
		c4.8,0,8-3.2,8-8s-3.2-8-8-8h-56v-16h24c4.8,0,8-3.2,8-8s-3.2-8-8-8h-24v-16h56c4.8,0,8-3.2,8-8s-3.2-8-8-8h-56v-16h24
		c4.8,0,8-3.2,8-8s-3.2-8-8-8h-24v-56c0-13.6,10.4-24,24-24h64C181.8,16.4,192.2,26.8,192.2,40.4z"/>
	<path style="fill:#322153;" d="M128.2,56.4c0,13.6,10.4,24,24,24s24-10.4,24-24s-10.4-24-24-24S128.2,42.8,128.2,56.4z M160.2,56.4
		c0,4.8-3.2,8-8,8s-8-3.2-8-8s3.2-8,8-8S160.2,51.6,160.2,56.4z"/>
	<path style="fill:#322153;" d="M398.6,99.6l-64-96c-3.2-4.8-10.4-4.8-13.6,0l-64,96c-0.8,0.8-0.8,1.6-0.8,2.4v0.8v0.8v320
		c0,22.4,17.6,40,40,40h64c22.4,0,40-17.6,40-40V104.4c0-0.8,0-0.8,0-0.8v-0.8C399.4,101.2,399.4,100.4,398.6,99.6z M360.2,224.4
		c-4.8,0-8,3.2-8,8v184h-16v-24c0-4.8-3.2-8-8-8s-8,3.2-8,8v24h-16v-88c0-4.8-3.2-8-8-8s-8,3.2-8,8v88h-16V123.6l16,16v156.8
		c0,4.8,3.2,8,8,8s8-3.2,8-8V139.6l16-16v236.8c0,4.8,3.2,8,8,8s8-3.2,8-8V123.6l16,16v60.8c0,4.8,3.2,8,8,8s8-3.2,8-8v-60.8l16-16
		v292.8h-16v-184C368.2,227.6,365,224.4,360.2,224.4z M328.2,22.8l53.6,80.8l-21.6,21.6l-26.4-26.4c-0.8-0.8-1.6-1.6-2.4-1.6
		c-0.8-0.8-2.4-0.8-3.2-0.8s-2.4,0-3.2,0.8c-0.8,0.8-1.6,0.8-2.4,1.6l-26.4,26.4l-21.6-21.6L328.2,22.8z M360.2,448.4h-64
		c-10.4,0-19.2-6.4-22.4-16h109.6C379.4,442,370.6,448.4,360.2,448.4z"/>
</g>
<g>
</g>
<g>
</g>
<g>
</g>
<g>
</g>
<g>
</g>
<g>
</g>
<g>
</g>
<g>
</g>
<g>
</g>
<g>
</g>
<g>
</g>
<g>
</g>
<g>
</g>
<g>
</g>
<g>
</g>
</svg>
