<?xml version="1.0" encoding="iso-8859-1"?>
<!-- Generator: Adobe Illustrator 19.0.0, SVG Export Plug-In . SVG Version: 6.00 Build 0)  -->
<svg version="1.1" id="Capa_1" xmlns="http://www.w3.org/2000/svg" xmlns:xlink="http://www.w3.org/1999/xlink" x="0px" y="0px"
	 viewBox="0 0 472.031 472.031" style="enable-background:new 0 0 472.031 472.031;" xml:space="preserve">
<path style="fill:#00F2A9;" d="M20,52.031v420h420.8c10.4,0,15.2-12,8-19.2L40,43.231C32.8,36.031,20,41.631,20,52.031z
	 M148,280.031l64,64h-64V280.031z"/>
<g>
	<path style="fill:#322153;" d="M12,376.031L12,376.031v64c0,4.8,4,8,8,8h420.8c8,0,14.4-4.8,17.6-12s1.6-15.2-4-20.8L45.6,5.631
		c-5.6-5.6-14.4-7.2-21.6-4c-7.2,3.2-12,10.4-12,18.4v100c0,0,0,0,0,0.8s0,0,0,0.8v31.2c0,0,0,0,0,0.8s0,0,0,0.8v31.2c0,0,0,0,0,0.8
		s0,0,0,0.8v31.2c0,0,0,0,0,0.8s0,0,0,0.8v31.2c0,0,0,0,0,0.8s0,0,0,0.8v31.2c0,0,0,0,0,0.8s0,0,0,0.8v31.2c0,0,0,0,0,0.8s0,0,0,0.8
		v31.2c0,0,0,0,0,0.8s0,0,0,0.8V376.031L12,376.031z M30.4,16.831c0.8-0.8,2.4-0.8,4,0.8l408.8,409.6c1.6,1.6,0.8,2.4,0.8,3.2
		c0,0.8-0.8,1.6-3.2,1.6H348v-24c0-4.8-3.2-8-8-8s-8,3.2-8,8v24h-48v-56c0-4.8-3.2-8-8-8s-8,3.2-8,8v56h-48v-24c0-4.8-3.2-8-8-8
		s-8,3.2-8,8v24h-48v-56c0-4.8-3.2-8-8-8s-8,3.2-8,8v56H92v-24c0-4.8-3.2-8-8-8s-8,3.2-8,8v24H28v-48h24c4.8,0,8-3.2,8-8s-3.2-8-8-8
		H28v-16h56c4.8,0,8-3.2,8-8s-3.2-8-8-8H28v-16h24c4.8,0,8-3.2,8-8s-3.2-8-8-8H28v-16h56c4.8,0,8-3.2,8-8s-3.2-8-8-8H28v-16h24
		c4.8,0,8-3.2,8-8s-3.2-8-8-8H28v-16h56c4.8,0,8-3.2,8-8s-3.2-8-8-8H28v-16h24c4.8,0,8-3.2,8-8s-3.2-8-8-8H28v-16h56
		c4.8,0,8-3.2,8-8s-3.2-8-8-8H28v-16h24c4.8,0,8-3.2,8-8s-3.2-8-8-8H28v-92C28,17.631,29.6,16.831,30.4,16.831z"/>
	<path style="fill:#322153;" d="M148,320.031h64c3.2,0,6.4-1.6,7.2-4.8c1.6-3.2,0.8-6.4-1.6-8.8l-64-64c-2.4-2.4-5.6-3.2-8.8-1.6
		c-3.2,0.8-4.8,4-4.8,7.2v64C140,316.831,143.2,320.031,148,320.031z M156,267.231l36.8,36.8H156V267.231z"/>
</g>
<g>
</g>
<g>
</g>
<g>
</g>
<g>
</g>
<g>
</g>
<g>
</g>
<g>
</g>
<g>
</g>
<g>
</g>
<g>
</g>
<g>
</g>
<g>
</g>
<g>
</g>
<g>
</g>
<g>
</g>
</svg>
