<?xml version="1.0" encoding="iso-8859-1"?>
<!-- Generator: Adobe Illustrator 19.0.0, SVG Export Plug-In . SVG Version: 6.00 Build 0)  -->
<svg version="1.1" id="Capa_1" xmlns="http://www.w3.org/2000/svg" xmlns:xlink="http://www.w3.org/1999/xlink" x="0px" y="0px"
	 viewBox="0 0 464 464" style="enable-background:new 0 0 464 464;" xml:space="preserve">
<path style="fill:#00F2A9;" d="M424,104H40c-17.6,0-32,14.4-32,32v32h448v-32C456,118.4,441.6,104,424,104z"/>
<g>
	<path style="fill:#322153;" d="M40,400h384c22.4,0,40-17.6,40-40V136v-32c0-22.4-17.6-40-40-40H40C17.6,64,0,81.6,0,104v32v224
		C0,382.4,17.6,400,40,400z M448,360c0,13.6-10.4,24-24,24H40c-13.6,0-24-10.4-24-24V144h432V360z M16,104c0-13.6,10.4-24,24-24h384
		c13.6,0,24,10.4,24,24v24H16V104z"/>
	<path style="fill:#322153;" d="M72,176h192c4.8,0,8-3.2,8-8s-3.2-8-8-8H72c-4.8,0-8,3.2-8,8S67.2,176,72,176z"/>
	<path style="fill:#322153;" d="M296,176h96c4.8,0,8-3.2,8-8s-3.2-8-8-8h-96c-4.8,0-8,3.2-8,8S291.2,176,296,176z"/>
	<path style="fill:#322153;" d="M72,208h32c4.8,0,8-3.2,8-8s-3.2-8-8-8H72c-4.8,0-8,3.2-8,8S67.2,208,72,208z"/>
	<path style="fill:#322153;" d="M392,192H136c-4.8,0-8,3.2-8,8s3.2,8,8,8h256c4.8,0,8-3.2,8-8S396.8,192,392,192z"/>
	<path style="fill:#322153;" d="M392,224L392,224c-120,0.8-302.4,2.4-317.6,0c-2.4,0-4,0-6.4,0.8c-4,2.4-5.6,7.2-3.2,11.2
		s3.2,5.6,73.6,5.6c23.2,0,53.6,0,94.4,0c80-0.8,159.2-1.6,159.2-1.6c4.8,0,8-4,8-8C400,227.2,396,224,392,224z"/>
	<path style="fill:#322153;" d="M72,272h96c4.8,0,8-3.2,8-8s-3.2-8-8-8H72c-4.8,0-8,3.2-8,8S67.2,272,72,272z"/>
	<path style="fill:#322153;" d="M392,256H200c-4.8,0-8,3.2-8,8s3.2,8,8,8h192c4.8,0,8-3.2,8-8S396.8,256,392,256z"/>
	<path style="fill:#322153;" d="M72,304h160c4.8,0,8-3.2,8-8s-3.2-8-8-8H72c-4.8,0-8,3.2-8,8S67.2,304,72,304z"/>
	<path style="fill:#322153;" d="M392,288H264c-4.8,0-8,3.2-8,8s3.2,8,8,8h128c4.8,0,8-3.2,8-8S396.8,288,392,288z"/>
	<path style="fill:#322153;" d="M72,336h224c4.8,0,8-3.2,8-8s-3.2-8-8-8H72c-4.8,0-8,3.2-8,8S67.2,336,72,336z"/>
	<circle style="fill:#322153;" cx="40" cy="104" r="16"/>
</g>
<g>
</g>
<g>
</g>
<g>
</g>
<g>
</g>
<g>
</g>
<g>
</g>
<g>
</g>
<g>
</g>
<g>
</g>
<g>
</g>
<g>
</g>
<g>
</g>
<g>
</g>
<g>
</g>
<g>
</g>
</svg>
