<?xml version="1.0" encoding="iso-8859-1"?>
<!-- Generator: Adobe Illustrator 19.0.0, SVG Export Plug-In . SVG Version: 6.00 Build 0)  -->
<svg version="1.1" id="Capa_1" xmlns="http://www.w3.org/2000/svg" xmlns:xlink="http://www.w3.org/1999/xlink" x="0px" y="0px"
	 viewBox="0 0 488 488" style="enable-background:new 0 0 488 488;" xml:space="preserve">
<g>
	<path style="fill:#00F2A9;" d="M132,488c8.8,0,16-7.2,16-16v-16H52v16c0,8.8,7.2,16,16,16H132z"/>
	<path style="fill:#00F2A9;" d="M436,456h-96v16c0,8.8,7.2,16,16,16h64c8.8,0,16-7.2,16-16V456z"/>
	<circle style="fill:#00F2A9;" cx="244" cy="168" r="64"/>
</g>
<g>
	<path style="fill:#322153;" d="M436,0H52C29.6,0,12,17.6,12,40v352c0,19.2,13.6,35.2,32,39.2v8.8c0,13.6,10.4,24,24,24h64
		c13.6,0,24-10.4,24-24v-8h176v8c0,13.6,10.4,24,24,24h64c13.6,0,24-10.4,24-24v-8.8c18.4-4,32-20,32-39.2V40
		C476,17.6,458.4,0,436,0z M140,440c0,4.8-3.2,8-8,8H68c-4.8,0-8-3.2-8-8v-8h80V440z M420,448h-64c-4.8,0-8-3.2-8-8v-8h80v8
		C428,444.8,424.8,448,420,448z M460,392c0,13.6-10.4,24-24,24H52c-13.6,0-24-10.4-24-24V40c0-13.6,10.4-24,24-24h384
		c13.6,0,24,10.4,24,24V392z"/>
	<path style="fill:#322153;" d="M192.8,187.2C192.8,187.2,193.6,187.2,192.8,187.2C206.4,200,224,208,244,208s37.6-8,50.4-20.8l0,0
		l0,0C308,173.6,316,156,316,136s-8-37.6-20.8-50.4l0,0l0,0C281.6,72,264,64,244,64s-37.6,8-50.4,20.8l0,0l0,0
		C180,98.4,172,116,172,136S180,173.6,192.8,187.2C192.8,186.4,192.8,187.2,192.8,187.2z M212,128h-23.2c1.6-9.6,4.8-18.4,10.4-25.6
		l16.8,16.8c1.6,1.6,4,2.4,5.6,2.4s4-0.8,5.6-2.4c3.2-3.2,3.2-8,0-11.2l-16.8-16.8c7.2-5.6,16-9.6,25.6-10.4V104c0,4.8,3.2,8,8,8
		s8-3.2,8-8V80.8c9.6,1.6,18.4,4.8,25.6,10.4L260.8,108c-3.2,3.2-3.2,8,0,11.2c1.6,1.6,4,2.4,5.6,2.4s4-0.8,5.6-2.4l16.8-16.8
		c5.6,7.2,9.6,16,10.4,25.6H276c-4.8,0-8,3.2-8,8s3.2,8,8,8h23.2c-1.6,9.6-4.8,18.4-10.4,25.6L272,152.8c-3.2-3.2-8-3.2-11.2,0
		s-3.2,8,0,11.2l16.8,16.8c-7.2,5.6-16,9.6-25.6,10.4V168c0-4.8-3.2-8-8-8s-8,3.2-8,8v23.2c-9.6-1.6-18.4-4.8-25.6-10.4l16.8-16.8
		c3.2-3.2,3.2-8,0-11.2s-8-3.2-11.2,0l-16.8,16.8c-5.6-7.2-9.6-16-10.4-25.6H212c4.8,0,8-3.2,8-8S216.8,128,212,128z"/>
	<path style="fill:#322153;" d="M174.4,365.6c1.6,1.6,4,2.4,5.6,2.4s4-0.8,5.6-2.4l58.4-58.4l58.4,58.4c1.6,1.6,4,2.4,5.6,2.4
		s4-0.8,5.6-2.4c3.2-3.2,3.2-8,0-11.2L252,292.8V232c0-4.8-3.2-8-8-8s-8,3.2-8,8v60.8l-61.6,61.6
		C171.2,357.6,171.2,362.4,174.4,365.6z"/>
	<path style="fill:#322153;" d="M84,272c4.8,0,8-4,8-8s-4-8-8-8l0,0c-7.2,0-16.8,0-24,0v-16h56c4.8,0,8-3.2,8-8s-3.2-8-8-8H60v-16
		h24c4.8,0,8-3.2,8-8s-3.2-8-8-8H60V56c0-4.8,3.2-8,8-8h16c4.8,0,8-3.2,8-8s-3.2-8-8-8H68c-13.6,0-24,10.4-24,24v304
		c0,4.8,3.2,8,8,8s8-3.2,8-8v-88c0.8,0,2.4,0,3.2,0C72.8,272,82.4,272,84,272z"/>
	<path style="fill:#322153;" d="M420,32H116c-4.8,0-8,3.2-8,8s3.2,8,8,8h304c4.8,0,8,3.2,8,8v72h-24c-4.8,0-8,3.2-8,8s3.2,8,8,8h24
		v16h-56c-4.8,0-8,3.2-8,8s3.2,8,8,8h56v16h-24c-4.8,0-8,3.2-8,8s3.2,8,8,8h24v56c0,4.8,3.2,8,8,8s8-3.2,8-8V56
		C444,42.4,433.6,32,420,32z"/>
	<path style="fill:#322153;" d="M436,288c-4.8,0-8,3.2-8,8v80c0,4.8-3.2,8-8,8H84c-4.8,0-8,3.2-8,8s3.2,8,8,8h336
		c13.6,0,24-10.4,24-24v-80C444,291.2,440.8,288,436,288z"/>
</g>
<g>
</g>
<g>
</g>
<g>
</g>
<g>
</g>
<g>
</g>
<g>
</g>
<g>
</g>
<g>
</g>
<g>
</g>
<g>
</g>
<g>
</g>
<g>
</g>
<g>
</g>
<g>
</g>
<g>
</g>
</svg>
