<?xml version="1.0" encoding="iso-8859-1"?>
<!-- Generator: Adobe Illustrator 19.0.0, SVG Export Plug-In . SVG Version: 6.00 Build 0)  -->
<svg version="1.1" id="Capa_1" xmlns="http://www.w3.org/2000/svg" xmlns:xlink="http://www.w3.org/1999/xlink" x="0px" y="0px"
	 viewBox="0 0 464 464" style="enable-background:new 0 0 464 464;" xml:space="preserve">
<circle style="fill:#00F2A9;" cx="232" cy="200" r="128"/>
<g>
	<path style="fill:#322153;" d="M232,0C139.2,0,64,75.2,64,168c0,79.2,54.4,144.8,128,163.2V360v24c0,5.6,3.2,11.2,8,13.6l0.8,20
		c-5.6,2.4-8.8,8-8.8,14.4v16c0,8.8,7.2,16,16,16h48c8.8,0,16-7.2,16-16v-16c0-5.6-3.2-11.2-8-13.6l0,0l-0.8-20
		c5.6-2.4,8.8-8,8.8-14.4v-24v-28.8c73.6-18.4,128-84,128-163.2C400,75.2,324.8,0,232,0z M256,384c-8,2.4-8,8-8,13.6v20
		c0,5.6,3.2,11.2,8,13.6v16h-48v-16c8-2.4,8-8,8-13.6v-20c0-5.6-3.2-11.2-8-13.6v-16h48V384z M256,352h-48v-17.6
		c8,0.8,16,1.6,24,1.6s16-0.8,24-1.6V352z M232,320c-84,0-152-68-152-152S148,16,232,16s152,68,152,152S316,320,232,320z"/>
	<path style="fill:#322153;" d="M232,32C156.8,32,96,92.8,96,168s60.8,136,136,136s136-60.8,136-136S307.2,32,232,32z M232,288
		c-66.4,0-120-53.6-120-120S165.6,48,232,48s120,53.6,120,120S298.4,288,232,288z"/>
	<path style="fill:#322153;" d="M240,72c0-4.8-3.2-8-8-8c-57.6,0-104,46.4-104,104c0,4.8,3.2,8,8,8s8-3.2,8-8c0-48.8,39.2-88,88-88
		C236.8,80,240,76.8,240,72z"/>
	<path style="fill:#322153;" d="M258.4,130.4l-64,64c-3.2,3.2-3.2,8,0,11.2c1.6,1.6,4,2.4,5.6,2.4s4-0.8,5.6-2.4l64-64
		c3.2-3.2,3.2-8,0-11.2S261.6,127.2,258.4,130.4z"/>
	<path style="fill:#322153;" d="M226.4,130.4l-32,32c-3.2,3.2-3.2,8,0,11.2c1.6,1.6,4,2.4,5.6,2.4s4-0.8,5.6-2.4l32-32
		c3.2-3.2,3.2-8,0-11.2S229.6,127.2,226.4,130.4z"/>
	<path style="fill:#322153;" d="M258.4,162.4l-32,32c-3.2,3.2-3.2,8,0,11.2c1.6,1.6,4,2.4,5.6,2.4s4-0.8,5.6-2.4l32-32
		c3.2-3.2,3.2-8,0-11.2S261.6,159.2,258.4,162.4z"/>
</g>
<g>
</g>
<g>
</g>
<g>
</g>
<g>
</g>
<g>
</g>
<g>
</g>
<g>
</g>
<g>
</g>
<g>
</g>
<g>
</g>
<g>
</g>
<g>
</g>
<g>
</g>
<g>
</g>
<g>
</g>
</svg>
