<?xml version="1.0" encoding="iso-8859-1"?>
<!-- Generator: Adobe Illustrator 19.0.0, SVG Export Plug-In . SVG Version: 6.00 Build 0)  -->
<svg version="1.1" id="Capa_1" xmlns="http://www.w3.org/2000/svg" xmlns:xlink="http://www.w3.org/1999/xlink" x="0px" y="0px"
	 viewBox="0 0 464 464" style="enable-background:new 0 0 464 464;" xml:space="preserve">
<g>
	<path style="fill:#00F2A9;" d="M264,104V72h16c8.8,0,16-7.2,16-16s-7.2-16-16-16h-96c-8.8,0-16,7.2-16,16s7.2,16,16,16h16v32H264z"
		/>
	<path style="fill:#00F2A9;" d="M72,296c0,88,72,160,160,160s160-72,160-160s-72-160-160-160S72,208,72,296z M232,168
		c70.4,0,128,57.6,128,128s-57.6,128-128,128s-128-57.6-128-128S161.6,168,232,168z"/>
</g>
<g>
	<path style="fill:#322153;" d="M32,264c0,110.4,89.6,200,200,200s200-89.6,200-200c0-60-27.2-114.4-69.6-151.2L376,99.2l10.4,10.4
		c1.6,1.6,4,2.4,5.6,2.4s4-0.8,5.6-2.4c3.2-3.2,3.2-8,0-11.2l-32-32c-3.2-3.2-8-3.2-11.2,0s-3.2,8,0,11.2L364.8,88l-14.4,14.4
		C327.2,85.6,300.8,73.6,272,68V48h8c13.6,0,24-10.4,24-24S293.6,0,280,0h-96c-13.6,0-24,10.4-24,24s10.4,24,24,24h8v20
		c-28.8,5.6-55.2,17.6-78.4,34.4L99.2,88l10.4-10.4c3.2-3.2,3.2-8,0-11.2s-8-3.2-11.2,0L68,96.8c-3.2,3.2-3.2,8,0,11.2
		c1.6,1.6,4,2.4,5.6,2.4s4-0.8,5.6-2.4l8.8-8.8l13.6,13.6C59.2,149.6,32,204,32,264z M416,264c0,101.6-82.4,184-184,184
		S48,365.6,48,264S130.4,80,232,80S416,162.4,416,264z M208,48h24c4.8,0,8-3.2,8-8s-3.2-8-8-8h-48c-4.8,0-8-3.2-8-8s3.2-8,8-8h96
		c4.8,0,8,3.2,8,8s-3.2,8-8,8h-16c-4.8,0-8,3.2-8,8v25.6c-8-0.8-16-1.6-24-1.6s-16,0.8-24,1.6V48z"/>
	<path style="fill:#322153;" d="M232,416c-84,0-152-68-152-152s68-152,152-152c4.8,0,8-3.2,8-8s-3.2-8-8-8c-92.8,0-168,75.2-168,168
		s75.2,168,168,168s168-75.2,168-168c0-4.8-3.2-8-8-8s-8,3.2-8,8C384,348,316,416,232,416z"/>
	<path style="fill:#322153;" d="M232,128c-4.8,0-8,3.2-8,8v32c0,4.8,3.2,8,8,8c4.8,0,8-3.2,8-8v-24c62.4,4,112,56,112,120
		s-49.6,116-112,120v-24c0-4.8-3.2-8-8-8s-8,3.2-8,8v32c0,4.8,3.2,8,8,8c75.2,0,136-60.8,136-136S307.2,128,232,128z"/>
	<circle style="fill:#322153;" cx="144" cy="176" r="8"/>
	<circle style="fill:#322153;" cx="112" cy="264" r="8"/>
	<circle style="fill:#322153;" cx="144" cy="352" r="8"/>
	<path style="fill:#322153;" d="M301.6,194.4c-3.2-3.2-8-3.2-11.2,0l-36,36c-6.4-4-14.4-6.4-22.4-6.4c-22.4,0-40,17.6-40,40
		s17.6,40,40,40s40-17.6,40-40c0-8-2.4-16-6.4-22.4l36-36C304.8,202.4,304.8,197.6,301.6,194.4z M256,264c0,13.6-10.4,24-24,24
		s-24-10.4-24-24s10.4-24,24-24c4,0,7.2,0.8,10.4,2.4l-16,16c-3.2,3.2-3.2,8,0,11.2c1.6,1.6,4,2.4,5.6,2.4s4-0.8,5.6-2.4l16-16
		C255.2,256.8,256,260,256,264z"/>
</g>
<g>
</g>
<g>
</g>
<g>
</g>
<g>
</g>
<g>
</g>
<g>
</g>
<g>
</g>
<g>
</g>
<g>
</g>
<g>
</g>
<g>
</g>
<g>
</g>
<g>
</g>
<g>
</g>
<g>
</g>
</svg>
