<?xml version="1.0" encoding="iso-8859-1"?>
<!-- Generator: Adobe Illustrator 19.0.0, SVG Export Plug-In . SVG Version: 6.00 Build 0)  -->
<svg version="1.1" id="Capa_1" xmlns="http://www.w3.org/2000/svg" xmlns:xlink="http://www.w3.org/1999/xlink" x="0px" y="0px"
	 viewBox="0 0 449.8 449.8" style="enable-background:new 0 0 449.8 449.8;" xml:space="preserve">
<g>
	<path style="fill:#00F2A9;" d="M224.9,161.8l41.6-41.6c12.8-12.8,12.8-32.8,0-45.6l-18.4-18.4c-12.8-12.8-32.8-12.8-45.6,0
		l-41.6,41.6L224.9,161.8z"/>
	<ellipse style="fill:#00F2A9;" cx="384.899" cy="257.804" rx="32" ry="32"/>
</g>
<g>
	<path style="fill:#322153;" d="M272.1,29.8l-18.4-18.4c-15.2-15.2-40.8-15.2-56.8,0l-39.2,38.4H64.9c-3.2,0-6.4,1.6-7.2,4.8
		c-1.6,3.2-0.8,6.4,1.6,8.8L88.9,93c0.8,21.6,9.6,41.6,24.8,56.8l18.4,18.4c15.2,15.2,35.2,24,56.8,24.8l29.6,29.6
		c1.6,1.6,3.2,2.4,5.6,2.4c0.8,0,2.4,0,3.2-0.8c3.2-1.6,4.8-4,4.8-7.2v-92l24-24l94.4,94.4c-3.2,7.2-5.6,14.4-5.6,22.4
		s2.4,15.2,6.4,22.4L221.7,369.8h-20.8v-24c0-4.8-3.2-8-8-8s-8,3.2-8,8v24h-8c-13.6,0-24,10.4-24,24v8h-8c-13.6,0-24,10.4-24,24
		s10.4,24,24,24h160c13.6,0,24-10.4,24-24s-10.4-24-24-24h-8v-8c0-13.6-10.4-24-24-24h-28.8l118.4-118.4c7.2,4,14.4,6.4,22.4,6.4
		c10.4,0,20.8-4,28-12c7.2-7.2,12-17.6,12-28s-4-20.8-12-28s-17.6-12-28-12c-8,0-15.2,2.4-22.4,6.4l-94.4-94.4l4-4
		C287.3,70.6,287.3,45,272.1,29.8z M280.9,393.8v8h-88c-4.8,0-8,3.2-8,8s3.2,8,8,8h112c4.8,0,8,3.2,8,8s-3.2,8-8,8h-160
		c-4.8,0-8-3.2-8-8s3.2-8,8-8h16c4.8,0,8-3.2,8-8v-16c0-4.8,3.2-8,8-8h96C277.7,385.8,280.9,389,280.9,393.8z M395.3,196.2l-16,16
		c-3.2,3.2-3.2,8,0,11.2c1.6,1.6,4,2.4,5.6,2.4s4-0.8,5.6-2.4l16-16c1.6,3.2,2.4,6.4,2.4,10.4c0,6.4-2.4,12.8-7.2,16.8
		c-8.8,8.8-24.8,8.8-33.6,0c-4.8-4-7.2-10.4-7.2-16.8s2.4-12.8,7.2-16.8s10.4-7.2,16.8-7.2C388.9,193.8,392.1,194.6,395.3,196.2z
		 M192.9,37l26.4,26.4c1.6,1.6,4,2.4,5.6,2.4s4-0.8,5.6-2.4c3.2-3.2,3.2-8,0-11.2l-26.4-26.4l4-4c9.6-9.6,24.8-9.6,33.6,0l18.4,18.4
		c9.6,9.6,9.6,24.8,0,33.6l-35.2,36.8l-52.8-52.8L192.9,37z M144.1,157.8l-18.4-18.4c-7.2-7.2-12.8-16-16-25.6l60.8,60.8
		C160.1,170.6,151.3,165,144.1,157.8z M198.5,180.2L198.5,180.2l-96-96l0,0L84.1,65.8h73.6l59.2,59.2v73.6L198.5,180.2z"/>
	<path style="fill:#322153;" d="M91.3,180.2l-32,32c-3.2,3.2-3.2,8,0,11.2c1.6,1.6,4,2.4,5.6,2.4s4-0.8,5.6-2.4l32-32
		c3.2-3.2,3.2-8,0-11.2S94.5,177,91.3,180.2z"/>
	<path style="fill:#322153;" d="M24.9,153.8c0,4.8,3.2,8,8,8h32c4.8,0,8-3.2,8-8s-3.2-8-8-8h-32C28.1,145.8,24.9,149,24.9,153.8z"/>
	<path style="fill:#322153;" d="M136.9,249.8v-32c0-4.8-3.2-8-8-8c-4.8,0-8,3.2-8,8v32c0,4.8,3.2,8,8,8
		C133.7,257.8,136.9,254.6,136.9,249.8z"/>
</g>
<g>
</g>
<g>
</g>
<g>
</g>
<g>
</g>
<g>
</g>
<g>
</g>
<g>
</g>
<g>
</g>
<g>
</g>
<g>
</g>
<g>
</g>
<g>
</g>
<g>
</g>
<g>
</g>
<g>
</g>
</svg>
