<?xml version="1.0" encoding="iso-8859-1"?>
<!-- Generator: Adobe Illustrator 19.0.0, SVG Export Plug-In . SVG Version: 6.00 Build 0)  -->
<svg version="1.1" id="Capa_1" xmlns="http://www.w3.org/2000/svg" xmlns:xlink="http://www.w3.org/1999/xlink" x="0px" y="0px"
	 viewBox="0 0 464.032 464.032" style="enable-background:new 0 0 464.032 464.032;" xml:space="preserve">
<circle style="fill:#00F2A9;" cx="231.855" cy="264.032" r="128"/>
<g>
	<path style="fill:#322153;" d="M372.655,373.632C372.655,373.632,373.455,373.632,372.655,373.632
		C373.455,373.632,373.455,372.832,372.655,373.632c36.8-36.8,59.2-86.4,59.2-141.6s-22.4-104.8-58.4-140.8c0,0,0,0,0-0.8s0,0-0.8,0
		c-36-36-85.6-58.4-140.8-58.4c-40,0-78.4,12-112,34.4c-4,2.4-4.8,7.2-2.4,11.2c2.4,4,7.2,4.8,11.2,2.4c28.8-20,60.8-30.4,95.2-32
		v24c0,4.8,3.2,8,8,8c84,0,152,68,152,152c0,4.8,3.2,8,8,8h24c-1.6,44.8-20,85.6-48,116l-16.8-16.8c-3.2-3.2-8-3.2-11.2,0
		s-3.2,8,0,11.2l16.8,16.8c-31.2,28-71.2,46.4-116,48v-24c0-4.8-3.2-8-8-8s-8,3.2-8,8v24c-44.8-1.6-85.6-20-116-48l16.8-16.8
		c3.2-3.2,3.2-8,0-11.2s-8-3.2-11.2,0l-16.8,16.8c-28-31.2-46.4-71.2-48-116h24c4.8,0,8-3.2,8-8s-3.2-8-8-8h-25.6
		c1.6-33.6,12-65.6,30.4-93.6c2.4-4,1.6-8.8-2.4-11.2s-8.8-1.6-11.2,2.4c-21.6,32.8-32.8,71.2-32.8,110.4
		c0,55.2,22.4,104.8,58.4,140.8c0,0,0,0,0,0.8s0,0,0.8,0c36,36,85.6,58.4,140.8,58.4S336.655,409.632,372.655,373.632z
		 M344.655,108.032c-28-25.6-64.8-41.6-104.8-43.2v-16.8c44.8,1.6,85.6,20,116,48L344.655,108.032z M355.855,119.232l11.2-11.2
		c28,31.2,46.4,71.2,48,116h-16C397.455,184.032,381.455,147.232,355.855,119.232z"/>
	<path style="fill:#322153;" d="M36.655,0.832c-3.2,0.8-4.8,4-4.8,7.2v24h-24c-3.2,0-6.4,1.6-7.2,4.8s-0.8,6.4,1.6,8.8l32,32
		c1.6,1.6,3.2,2.4,5.6,2.4h28.8l144,144h-12.8c-4.8,0-8,3.2-8,8c0,4.8,3.2,8,8,8h32c0.8,0,1.6,0,2.4-0.8h0.8c0.8,0,0.8-0.8,1.6-0.8
		c0,0,0.8,0,0.8-0.8c0.8-0.8,0.8-1.6,1.6-2.4l0,0l0,0c0-0.8,0.8-1.6,0.8-2.4l0,0v-32c0-4.8-3.2-8-8-8s-8,3.2-8,8v12.8l-144-144
		v-29.6c0-2.4-0.8-4-2.4-5.6l-32-32C43.055,0.032,39.855-0.768,36.655,0.832z M43.055,64.032l-16-16h9.6l16,16H43.055z
		 M47.855,27.232l16,16v9.6l-16-16V27.232z"/>
	<path style="fill:#322153;" d="M123.855,163.232c-4-2.4-8.8-0.8-11.2,3.2c-11.2,20-16.8,42.4-16.8,65.6c0,75.2,60.8,136,136,136
		s136-60.8,136-136s-60.8-136-136-136c-23.2,0-45.6,5.6-65.6,16.8c-4,2.4-5.6,7.2-3.2,11.2c2.4,4,7.2,5.6,11.2,3.2
		c17.6-9.6,37.6-15.2,58.4-15.2c66.4,0,120,53.6,120,120s-53.6,120-120,120s-120-53.6-120-120c0-20,4.8-40.8,15.2-58.4
		C128.655,170.432,127.855,164.832,123.855,163.232z"/>
	<circle style="fill:#322153;" cx="231.855" cy="136.032" r="8"/>
	<circle style="fill:#322153;" cx="231.855" cy="328.032" r="8"/>
	<circle style="fill:#322153;" cx="135.855" cy="232.032" r="8"/>
	<circle style="fill:#322153;" cx="327.855" cy="232.032" r="8"/>
	<ellipse style="fill:#322153;" cx="299.896" cy="299.92" rx="8" ry="8"/>
	<ellipse style="fill:#322153;" cx="163.971" cy="300.07" rx="8" ry="8"/>
	<ellipse style="fill:#322153;" cx="299.739" cy="163.987" rx="8" ry="8"/>
	<path style="fill:#322153;" d="M455.855,224.032c-4.8,0-8,3.2-8,8c0,119.2-96.8,216-216,216c-4.8,0-8,3.2-8,8s3.2,8,8,8
		c128,0,232-104,232-232C463.855,227.232,460.655,224.032,455.855,224.032z"/>
</g>
<g>
</g>
<g>
</g>
<g>
</g>
<g>
</g>
<g>
</g>
<g>
</g>
<g>
</g>
<g>
</g>
<g>
</g>
<g>
</g>
<g>
</g>
<g>
</g>
<g>
</g>
<g>
</g>
<g>
</g>
</svg>
