<?xml version="1.0" encoding="iso-8859-1"?>
<!-- Generator: Adobe Illustrator 19.0.0, SVG Export Plug-In . SVG Version: 6.00 Build 0)  -->
<svg version="1.1" id="Capa_1" xmlns="http://www.w3.org/2000/svg" xmlns:xlink="http://www.w3.org/1999/xlink" x="0px" y="0px"
	 viewBox="0 0 464 464" style="enable-background:new 0 0 464 464;" xml:space="preserve">
<path style="fill:#00F2A9;" d="M424,136l-96-96v64c0,17.6,14.4,32,32,32H424z"/>
<g>
	<path style="fill:#322153;" d="M333.6,2.4c-0.8-0.8-1.6-0.8-2.4-1.6h-0.8c-0.8,0-1.6,0-2.4-0.8c0,0,0,0-0.8,0H72
		C49.6,0,32,17.6,32,40v384c0,22.4,17.6,40,40,40h320c22.4,0,40-17.6,40-40V104c0,0,0,0,0-0.8s0-1.6-0.8-2.4V100
		c0-0.8-0.8-1.6-1.6-2.4l0,0L333.6,2.4L333.6,2.4z M392,448H72c-13.6,0-24-10.4-24-24V40c0-13.6,10.4-24,24-24h248v56
		c0,22.4,17.6,40,40,40h56v312C416,437.6,405.6,448,392,448z M360,96c-13.6,0-24-10.4-24-24V27.2L404.8,96H360z"/>
	<path style="fill:#322153;" d="M200,80h64c4.8,0,8-3.2,8-8s-3.2-8-8-8h-64c-4.8,0-8,3.2-8,8S195.2,80,200,80z"/>
	<path style="fill:#322153;" d="M104,144h96c4.8,0,8-3.2,8-8s-3.2-8-8-8h-96c-4.8,0-8,3.2-8,8S99.2,144,104,144z"/>
	<path style="fill:#322153;" d="M104,208h192c4.8,0,8-3.2,8-8s-3.2-8-8-8H104c-4.8,0-8,3.2-8,8S99.2,208,104,208z"/>
	<path style="fill:#322153;" d="M360,192h-32c-4.8,0-8,3.2-8,8s3.2,8,8,8h32c4.8,0,8-3.2,8-8S364.8,192,360,192z"/>
	<path style="fill:#322153;" d="M104,272h160c4.8,0,8-3.2,8-8s-3.2-8-8-8H104c-4.8,0-8,3.2-8,8S99.2,272,104,272z"/>
	<path style="fill:#322153;" d="M360,256h-64c-4.8,0-8,3.2-8,8s3.2,8,8,8h64c4.8,0,8-3.2,8-8S364.8,256,360,256z"/>
	<path style="fill:#322153;" d="M360,320H104c-4.8,0-8,3.2-8,8s3.2,8,8,8h256c4.8,0,8-3.2,8-8S364.8,320,360,320z"/>
	<path style="fill:#322153;" d="M136,384h-32c-4.8,0-8,3.2-8,8s3.2,8,8,8h32c4.8,0,8-3.2,8-8S140.8,384,136,384z"/>
	<path style="fill:#322153;" d="M360,384H168c-4.8,0-8,3.2-8,8s3.2,8,8,8h192c4.8,0,8-3.2,8-8S364.8,384,360,384z"/>
	<path style="fill:#322153;" d="M104,240h64c4.8,0,8-3.2,8-8s-3.2-8-8-8h-64c-4.8,0-8,3.2-8,8C96,236.8,99.2,240,104,240z"/>
	<path style="fill:#322153;" d="M360,224H200c-4.8,0-8,3.2-8,8c0,4.8,3.2,8,8,8h160c4.8,0,8-3.2,8-8S364.8,224,360,224z"/>
	<path style="fill:#322153;" d="M104,304h192c4.8,0,8-3.2,8-8s-3.2-8-8-8H104c-4.8,0-8,3.2-8,8S99.2,304,104,304z"/>
	<path style="fill:#322153;" d="M104,368h160c4.8,0,8-3.2,8-8s-3.2-8-8-8H104c-4.8,0-8,3.2-8,8S99.2,368,104,368z"/>
	<path style="fill:#322153;" d="M360,352h-64c-4.8,0-8,3.2-8,8s3.2,8,8,8h64c4.8,0,8-3.2,8-8S364.8,352,360,352z"/>
</g>
<g>
</g>
<g>
</g>
<g>
</g>
<g>
</g>
<g>
</g>
<g>
</g>
<g>
</g>
<g>
</g>
<g>
</g>
<g>
</g>
<g>
</g>
<g>
</g>
<g>
</g>
<g>
</g>
<g>
</g>
</svg>
