<?xml version="1.0" encoding="iso-8859-1"?>
<!-- Generator: Adobe Illustrator 19.0.0, SVG Export Plug-In . SVG Version: 6.00 Build 0)  -->
<svg version="1.1" id="Capa_1" xmlns="http://www.w3.org/2000/svg" xmlns:xlink="http://www.w3.org/1999/xlink" x="0px" y="0px"
	 viewBox="0 0 464 464" style="enable-background:new 0 0 464 464;" xml:space="preserve">
<g>
	<rect x="88" y="328" style="fill:#00F2A9;" width="32" height="32"/>
	<rect x="344" y="328" style="fill:#00F2A9;" width="32" height="32"/>
	<path style="fill:#00F2A9;" d="M328,40v64c0,17.6,14.4,32,32,32h64L328,40z"/>
</g>
<g>
	<path style="fill:#322153;" d="M431.2,100.8c0-0.8-0.8-1.6-1.6-2.4l0,0l-96-96l0,0c-0.8-0.8-1.6-0.8-2.4-1.6h-0.8
		c-0.8,0-1.6,0-2.4-0.8c0,0,0,0-0.8,0H72C49.6,0,32,17.6,32,40v384c0,22.4,17.6,40,40,40h320c22.4,0,40-17.6,40-40V104
		c0,0,0,0,0-0.8C432,102.4,432,102.4,431.2,100.8L431.2,100.8z M336,27.2L404.8,96H360c-13.6,0-24-10.4-24-24V27.2z M392,448H72
		c-13.6,0-24-10.4-24-24V40c0-13.6,10.4-24,24-24h248v56c0,22.4,17.6,40,40,40h56v312C416,437.6,405.6,448,392,448z"/>
	<path style="fill:#322153;" d="M376,280h-8.8c-3.2-48.8-31.2-90.4-72-112h50.4c2.4,4.8,8,8,13.6,8c8.8,0,16-7.2,16-16
		s-7.2-16-16-16c-5.6,0-11.2,3.2-13.6,8H248c0-4.8-3.2-8-8-8h-16c-4.8,0-8,3.2-8,8h-98.4c-2.4-4.8-8-8-13.6-8c-8.8,0-16,7.2-16,16
		s7.2,16,16,16c5.6,0,11.2-3.2,13.6-8H168c-40.8,21.6-68.8,63.2-72,112h-8c-4.8,0-8,3.2-8,8v32c0,4.8,3.2,8,8,8h32c4.8,0,8-3.2,8-8
		v-32c0-4.8-3.2-8-8-8h-7.2c4-56.8,48-103.2,104-111.2c0.8,4,4,7.2,8,7.2h16c4,0,7.2-3.2,8-7.2c56,7.2,100,53.6,104,111.2H344
		c-4.8,0-8,3.2-8,8v32c0,4.8,3.2,8,8,8h32c4.8,0,8-3.2,8-8v-32C384,283.2,380.8,280,376,280z M112,312H96v-16h16V312z M368,312h-16
		v-16h16V312z"/>
	<path style="fill:#322153;" d="M360,384h-64c-4.8,0-8,3.2-8,8s3.2,8,8,8h64c4.8,0,8-3.2,8-8S364.8,384,360,384z"/>
	<path style="fill:#322153;" d="M264,384H104c-4.8,0-8,3.2-8,8s3.2,8,8,8h160c4.8,0,8-3.2,8-8S268.8,384,264,384z"/>
	<path style="fill:#322153;" d="M200,80h64c4.8,0,8-3.2,8-8s-3.2-8-8-8h-64c-4.8,0-8,3.2-8,8S195.2,80,200,80z"/>
</g>
<g>
</g>
<g>
</g>
<g>
</g>
<g>
</g>
<g>
</g>
<g>
</g>
<g>
</g>
<g>
</g>
<g>
</g>
<g>
</g>
<g>
</g>
<g>
</g>
<g>
</g>
<g>
</g>
<g>
</g>
</svg>
