<?xml version="1.0" encoding="iso-8859-1"?>
<!-- Generator: Adobe Illustrator 19.0.0, SVG Export Plug-In . SVG Version: 6.00 Build 0)  -->
<svg version="1.1" id="Capa_1" xmlns="http://www.w3.org/2000/svg" xmlns:xlink="http://www.w3.org/1999/xlink" x="0px" y="0px"
	 viewBox="0 0 464 464" style="enable-background:new 0 0 464 464;" xml:space="preserve">
<path style="fill:#00F2A9;" d="M408,72c0-17.6-14.4-32-32-32H88c-17.6,0-32,14.4-32,32v64h352V72z"/>
<g>
	<path style="fill:#322153;" d="M88,464h288c22.4,0,40-17.6,40-40V104V40c0-22.4-17.6-40-40-40H88C65.6,0,48,17.6,48,40v64v320
		C48,446.4,65.6,464,88,464z M400,424c0,13.6-10.4,24-24,24H88c-13.6,0-24-10.4-24-24V112h336V424z M64,40c0-13.6,10.4-24,24-24h288
		c13.6,0,24,10.4,24,24v56H64V40z"/>
	<path style="fill:#322153;" d="M96,272h112c8.8,0,16-7.2,16-16V144c0-8.8-7.2-16-16-16H96c-8.8,0-16,7.2-16,16v112
		C80,264.8,87.2,272,96,272z M96,144h112v112H96V144z"/>
	<path style="fill:#322153;" d="M256,272h112c8.8,0,16-7.2,16-16V144c0-8.8-7.2-16-16-16H256c-8.8,0-16,7.2-16,16v112
		C240,264.8,247.2,272,256,272z M256,144h112v112H256V144z"/>
	<path style="fill:#322153;" d="M256,432h112c8.8,0,16-7.2,16-16V304c0-8.8-7.2-16-16-16H256c-8.8,0-16,7.2-16,16v112
		C240,424.8,247.2,432,256,432z M256,304h112v112H256V304z"/>
	<path style="fill:#322153;" d="M96,432h112c8.8,0,16-7.2,16-16V304c0-8.8-7.2-16-16-16H96c-8.8,0-16,7.2-16,16v112
		C80,424.8,87.2,432,96,432z M96,304h112v112H96V304z"/>
	<path style="fill:#322153;" d="M176,192h-16v-16c0-4.8-3.2-8-8-8s-8,3.2-8,8v16h-16c-4.8,0-8,3.2-8,8s3.2,8,8,8h16v16
		c0,4.8,3.2,8,8,8s8-3.2,8-8v-16h16c4.8,0,8-3.2,8-8S180.8,192,176,192z"/>
	<path style="fill:#322153;" d="M336,192h-48c-4.8,0-8,3.2-8,8s3.2,8,8,8h48c4.8,0,8-3.2,8-8S340.8,192,336,192z"/>
	<path style="fill:#322153;" d="M181.6,330.4c-3.2-3.2-8-3.2-11.2,0L152,348.8l-18.4-18.4c-3.2-3.2-8-3.2-11.2,0s-3.2,8,0,11.2
		l18.4,18.4l-18.4,18.4c-3.2,3.2-3.2,8,0,11.2c1.6,1.6,4,2.4,5.6,2.4s4-0.8,5.6-2.4l18.4-18.4l18.4,18.4c1.6,1.6,4,2.4,5.6,2.4
		s4-0.8,5.6-2.4c3.2-3.2,3.2-8,0-11.2L163.2,360l18.4-18.4C184.8,338.4,184.8,333.6,181.6,330.4z"/>
	<path style="fill:#322153;" d="M336,352h-24h-24c-4.8,0-8,3.2-8,8s3.2,8,8,8h24h24c4.8,0,8-3.2,8-8S340.8,352,336,352z"/>
	<circle style="fill:#322153;" cx="312" cy="336" r="16"/>
	<circle style="fill:#322153;" cx="312" cy="384" r="16"/>
	<path style="fill:#322153;" d="M125.6,34.4c-3.2-3.2-8-3.2-11.2,0l-32,32c-3.2,3.2-3.2,8,0,11.2c1.6,1.6,4,2.4,5.6,2.4
		s4-0.8,5.6-2.4l32-32C128.8,42.4,128.8,37.6,125.6,34.4z"/>
	<path style="fill:#322153;" d="M146.4,34.4l-32,32c-3.2,3.2-3.2,8,0,11.2c1.6,1.6,4,2.4,5.6,2.4s4-0.8,5.6-2.4l32-32
		c3.2-3.2,3.2-8,0-11.2S149.6,31.2,146.4,34.4z"/>
</g>
<g>
</g>
<g>
</g>
<g>
</g>
<g>
</g>
<g>
</g>
<g>
</g>
<g>
</g>
<g>
</g>
<g>
</g>
<g>
</g>
<g>
</g>
<g>
</g>
<g>
</g>
<g>
</g>
<g>
</g>
</svg>
