<?xml version="1.0" encoding="iso-8859-1"?>
<!-- Generator: Adobe Illustrator 19.0.0, SVG Export Plug-In . SVG Version: 6.00 Build 0)  -->
<svg version="1.1" id="Capa_1" xmlns="http://www.w3.org/2000/svg" xmlns:xlink="http://www.w3.org/1999/xlink" x="0px" y="0px"
	 viewBox="0 0 488 488" style="enable-background:new 0 0 488 488;" xml:space="preserve">
<path style="fill:#00F2A9;" d="M436,40H52c-17.6,0-32,14.4-32,32v384c0,17.6,14.4,32,32,32h384c17.6,0,32-14.4,32-32V72
	C468,54.4,453.6,40,436,40z M436,440c0,8.8-7.2,16-16,16H68c-8.8,0-16-7.2-16-16V88c0-8.8,7.2-16,16-16h352c8.8,0,16,7.2,16,16V440z
	"/>
<g>
	<path style="fill:#322153;" d="M436,0H52C29.6,0,12,17.6,12,40v384c0,22.4,17.6,40,40,40h384c22.4,0,40-17.6,40-40V40
		C476,17.6,458.4,0,436,0z M460,424c0,13.6-10.4,24-24,24H52c-13.6,0-24-10.4-24-24V40c0-13.6,10.4-24,24-24h384
		c13.6,0,24,10.4,24,24V424z"/>
	<path style="fill:#322153;" d="M345.6,130.4c-3.2-3.2-8-3.2-11.2,0l-68,68c-6.4-4-14.4-6.4-22.4-6.4c-22.4,0-40,17.6-40,40
		c0,19.2,13.6,35.2,32,39.2V296c0,4.8,3.2,8,8,8c4.8,0,8-3.2,8-8v-24.8c18.4-4,32-20,32-39.2c0-8-2.4-16-6.4-22.4l68-68
		C348.8,138.4,348.8,133.6,345.6,130.4z M220,232c0-13.6,10.4-24,24-24c4,0,7.2,0.8,10.4,2.4l-16,16c-1.6,1.6-2.4,3.2-2.4,5.6v22.4
		C226.4,251.2,220,242.4,220,232z M268,232c0,10.4-6.4,19.2-16,22.4v-19.2l13.6-13.6C267.2,224.8,268,228,268,232z"/>
	<circle style="fill:#322153;" cx="92" cy="80" r="16"/>
	<circle style="fill:#322153;" cx="244" cy="80" r="16"/>
	<circle style="fill:#322153;" cx="396" cy="80" r="16"/>
	<circle style="fill:#322153;" cx="92" cy="384" r="16"/>
	<circle style="fill:#322153;" cx="244" cy="384" r="16"/>
	<circle style="fill:#322153;" cx="396" cy="384" r="16"/>
	<circle style="fill:#322153;" cx="396" cy="232" r="16"/>
	<circle style="fill:#322153;" cx="92" cy="232" r="16"/>
	<path style="fill:#322153;" d="M185.6,290.4c-3.2-3.2-8-3.2-11.2,0l-64,64c-3.2,3.2-3.2,8,0,11.2c1.6,1.6,4,2.4,5.6,2.4
		s4-0.8,5.6-2.4l64-64C188.8,298.4,188.8,293.6,185.6,290.4z"/>
	<path style="fill:#322153;" d="M174.4,322.4l-32,32c-3.2,3.2-3.2,8,0,11.2c1.6,1.6,4,2.4,5.6,2.4s4-0.8,5.6-2.4l32-32
		c3.2-3.2,3.2-8,0-11.2S177.6,319.2,174.4,322.4z"/>
	<path style="fill:#322153;" d="M110.4,333.6c1.6,1.6,4,2.4,5.6,2.4c1.6,0,4-0.8,5.6-2.4l32-32c3.2-3.2,3.2-8,0-11.2s-8-3.2-11.2,0
		l-32,32C107.2,325.6,107.2,330.4,110.4,333.6z"/>
	<path style="fill:#322153;" d="M52,272c4.8,0,8-3.2,8-8V56c0-4.8,3.2-8,8-8h240c4.8,0,8-3.2,8-8s-3.2-8-8-8H68
		c-13.6,0-24,10.4-24,24v208C44,268.8,47.2,272,52,272z"/>
	<path style="fill:#322153;" d="M420,32h-80c-4.8,0-8,3.2-8,8s3.2,8,8,8h80c4.8,0,8,3.2,8,8v352c0,4.8-3.2,8-8,8H68
		c-4.8,0-8-3.2-8-8V296c0-4.8-3.2-8-8-8s-8,3.2-8,8v112c0,13.6,10.4,24,24,24h352c13.6,0,24-10.4,24-24V56C444,42.4,433.6,32,420,32
		z"/>
	<path style="fill:#322153;" d="M204,136c0,4.8,3.2,8,8,8h64c4.8,0,8-3.2,8-8s-3.2-8-8-8h-64C207.2,128,204,131.2,204,136z"/>
</g>
<g>
</g>
<g>
</g>
<g>
</g>
<g>
</g>
<g>
</g>
<g>
</g>
<g>
</g>
<g>
</g>
<g>
</g>
<g>
</g>
<g>
</g>
<g>
</g>
<g>
</g>
<g>
</g>
<g>
</g>
</svg>
