<?xml version="1.0" encoding="iso-8859-1"?>
<!-- Generator: Adobe Illustrator 19.0.0, SVG Export Plug-In . SVG Version: 6.00 Build 0)  -->
<svg version="1.1" id="Capa_1" xmlns="http://www.w3.org/2000/svg" xmlns:xlink="http://www.w3.org/1999/xlink" x="0px" y="0px"
	 viewBox="0 0 488 488" style="enable-background:new 0 0 488 488;" xml:space="preserve">
<path style="fill:#00F2A9;" d="M84.009,452.8c-1.6,19.2,13.6,35.2,32.8,35.2h254.4c19.2,0,34.4-16,32.8-35.2l-26.4-288
	c-1.6-16.8-16-28.8-32.8-28.8h-201.6c-16.8,0-31.2,12.8-32.8,28.8L84.009,452.8z"/>
<g>
	<path style="fill:#322153;" d="M348.009,96c-4-54.4-48-96-104-96s-100,41.6-104,96c-20,1.6-36,16-37.6,36l-26.4,288
		c-0.8,11.2,2.4,22.4,10.4,30.4c8,8.8,18.4,13.6,30.4,13.6h254.4c11.2,0,22.4-4.8,30.4-13.6c7.2-8,11.2-19.2,10.4-30.4l-26.4-288
		C383.209,112.8,367.209,97.6,348.009,96z M244.009,16c46.4,0,84,34.4,88,80h-176C160.009,50.4,197.609,16,244.009,16z M389.609,440
		c-4.8,4.8-11.2,8-18.4,8h-87.2v-24c0-4.8-3.2-8-8-8s-8,3.2-8,8v24h-16v-56c0-4.8-3.2-8-8-8s-8,3.2-8,8v56h-16v-24c0-4.8-3.2-8-8-8
		s-8,3.2-8,8v24h-87.2c-7.2,0-13.6-3.2-18.4-8s-6.4-11.2-6.4-18.4l26.4-288c0.8-11.2,9.6-20,21.6-21.6v144h-8c-4.8,0-8,3.2-8,8
		s3.2,8,8,8h32c4.8,0,8-3.2,8-8s-3.2-8-8-8h-8V112h176v144h-8c-4.8,0-8,3.2-8,8s3.2,8,8,8h32c4.8,0,8-3.2,8-8s-3.2-8-8-8h-8V112
		c11.2,1.6,20,10.4,21.6,21.6l26.4,288C396.809,428.8,394.409,435.2,389.609,440z"/>
	<path style="fill:#322153;" d="M271.209,258.4l-65.6,64c-3.2,3.2-3.2,8,0,11.2c1.6,1.6,4,2.4,5.6,2.4c2.4,0,4-0.8,5.6-2.4l65.6-64
		c3.2-3.2,3.2-8,0-11.2C279.209,255.2,274.409,255.2,271.209,258.4z"/>
	<path style="fill:#322153;" d="M216.809,301.6l32.8-32c3.2-3.2,3.2-8,0-11.2s-8-3.2-11.2,0l-32.8,32c-3.2,3.2-3.2,8,0,11.2
		c1.6,1.6,4,2.4,5.6,2.4C213.609,304,215.209,303.2,216.809,301.6z"/>
	<path style="fill:#322153;" d="M271.209,290.4l-32.8,32c-3.2,3.2-3.2,8,0,11.2c1.6,1.6,4,2.4,5.6,2.4c2.4,0,4-0.8,5.6-2.4l32.8-32
		c3.2-3.2,3.2-8,0-11.2C279.209,287.2,274.409,287.2,271.209,290.4z"/>
	<path style="fill:#322153;" d="M308.009,128h-128c-4.8,0-8,3.2-8,8s3.2,8,8,8h128c4.8,0,8-3.2,8-8S312.809,128,308.009,128z"/>
</g>
<g>
</g>
<g>
</g>
<g>
</g>
<g>
</g>
<g>
</g>
<g>
</g>
<g>
</g>
<g>
</g>
<g>
</g>
<g>
</g>
<g>
</g>
<g>
</g>
<g>
</g>
<g>
</g>
<g>
</g>
</svg>
