<?xml version="1.0" encoding="iso-8859-1"?>
<!-- Generator: Adobe Illustrator 19.0.0, SVG Export Plug-In . SVG Version: 6.00 Build 0)  -->
<svg version="1.1" id="Capa_1" xmlns="http://www.w3.org/2000/svg" xmlns:xlink="http://www.w3.org/1999/xlink" x="0px" y="0px"
	 viewBox="0 0 464 464" style="enable-background:new 0 0 464 464;" xml:space="preserve">
<path style="fill:#00F2A9;" d="M440,72H152c-8.8,0-16,7.2-16,16v80h176c8.8,0,16,7.2,16,16v112h32l64,64v-64h16c8.8,0,16-7.2,16-16
	V88C456,79.2,448.8,72,440,72z"/>
<g>
	<path style="fill:#322153;" d="M24,368h8v56c0,3.2,1.6,6.4,4.8,7.2c0.8,0.8,2.4,0.8,3.2,0.8c2.4,0,4-0.8,5.6-2.4l61.6-61.6H312
		c13.6,0,24-10.4,24-24v-72h20.8l61.6,61.6c1.6,1.6,3.2,2.4,5.6,2.4c0.8,0,2.4,0,3.2-0.8c3.2-1.6,4.8-4,4.8-7.2v-56h8
		c13.6,0,24-10.4,24-24V56c0-13.6-10.4-24-24-24H152c-13.6,0-24,10.4-24,24v72H24c-13.6,0-24,10.4-24,24v192
		C0,357.6,10.4,368,24,368z M144,56c0-4.8,3.2-8,8-8h288c4.8,0,8,3.2,8,8v192c0,4.8-3.2,8-8,8h-16c-4.8,0-8,3.2-8,8v44.8l-50.4-50.4
		c-1.6-1.6-3.2-2.4-5.6-2.4h-24V152c0-13.6-10.4-24-24-24H144V56z M16,152c0-4.8,3.2-8,8-8h112h176c4.8,0,8,3.2,8,8v112v80
		c0,4.8-3.2,8-8,8H104c-2.4,0-4,0.8-5.6,2.4L48,404.8V360c0-4.8-3.2-8-8-8H24c-4.8,0-8-3.2-8-8V152z"/>
	<path style="fill:#322153;" d="M72,208h128c4.8,0,8-3.2,8-8s-3.2-8-8-8H72c-4.8,0-8,3.2-8,8S67.2,208,72,208z"/>
	<path style="fill:#322153;" d="M232,208h32c4.8,0,8-3.2,8-8s-3.2-8-8-8h-32c-4.8,0-8,3.2-8,8S227.2,208,232,208z"/>
	<path style="fill:#322153;" d="M72,240h64c4.8,0,8-3.2,8-8s-3.2-8-8-8H72c-4.8,0-8,3.2-8,8C64,236.8,67.2,240,72,240z"/>
	<path style="fill:#322153;" d="M264,224h-96c-4.8,0-8,3.2-8,8c0,4.8,3.2,8,8,8h96c4.8,0,8-3.2,8-8S268.8,224,264,224z"/>
	<path style="fill:#322153;" d="M72,272h192c4.8,0,8-3.2,8-8s-3.2-8-8-8H72c-4.8,0-8,3.2-8,8S67.2,272,72,272z"/>
	<path style="fill:#322153;" d="M72,304h32c4.8,0,8-3.2,8-8s-3.2-8-8-8H72c-4.8,0-8,3.2-8,8S67.2,304,72,304z"/>
	<path style="fill:#322153;" d="M264,288H136c-4.8,0-8,3.2-8,8s3.2,8,8,8h128c4.8,0,8-3.2,8-8S268.8,288,264,288z"/>
	<path style="fill:#322153;" d="M336,104c0-4.8-3.2-8-8-8H200c-4.8,0-8,3.2-8,8s3.2,8,8,8h128C332.8,112,336,108.8,336,104z"/>
	<path style="fill:#322153;" d="M360,112h32c4.8,0,8-3.2,8-8s-3.2-8-8-8h-32c-4.8,0-8,3.2-8,8S355.2,112,360,112z"/>
	<path style="fill:#322153;" d="M360,144h32c4.8,0,8-3.2,8-8s-3.2-8-8-8h-32c-4.8,0-8,3.2-8,8S355.2,144,360,144z"/>
	<path style="fill:#322153;" d="M360,176h32c4.8,0,8-3.2,8-8s-3.2-8-8-8h-32c-4.8,0-8,3.2-8,8S355.2,176,360,176z"/>
	<path style="fill:#322153;" d="M360,208h32c4.8,0,8-3.2,8-8s-3.2-8-8-8h-32c-4.8,0-8,3.2-8,8S355.2,208,360,208z"/>
</g>
<g>
</g>
<g>
</g>
<g>
</g>
<g>
</g>
<g>
</g>
<g>
</g>
<g>
</g>
<g>
</g>
<g>
</g>
<g>
</g>
<g>
</g>
<g>
</g>
<g>
</g>
<g>
</g>
<g>
</g>
</svg>
