<?xml version="1.0" encoding="iso-8859-1"?>
<!-- Generator: Adobe Illustrator 19.0.0, SVG Export Plug-In . SVG Version: 6.00 Build 0)  -->
<svg version="1.1" id="Capa_1" xmlns="http://www.w3.org/2000/svg" xmlns:xlink="http://www.w3.org/1999/xlink" x="0px" y="0px"
	 viewBox="0 0 464 464" style="enable-background:new 0 0 464 464;" xml:space="preserve">
<g>
	<path style="fill:#00F2A9;" d="M120,72H56c-8.8,0-16,7.2-16,16v64c0,8.8,7.2,16,16,16h64c8.8,0,16-7.2,16-16V88
		C136,79.2,128.8,72,120,72z"/>
	<path style="fill:#00F2A9;" d="M424,440v-96c0-8.8-7.2-16-16-16h-96c-8.8,0-16,7.2-16,16v96c0,8.8,7.2,16,16,16h96
		C416.8,456,424,448.8,424,440z"/>
	<path style="fill:#00F2A9;" d="M424,88c0-8.8-7.2-16-16-16h-32c-8.8,0-16,7.2-16,16v32c0,8.8,7.2,16,16,16h32c8.8,0,16-7.2,16-16
		V88z"/>
	<path style="fill:#00F2A9;" d="M40,440c0,8.8,7.2,16,16,16h32c8.8,0,16-7.2,16-16v-32c0-8.8-7.2-16-16-16H56c-8.8,0-16,7.2-16,16
		V440z"/>
	<path style="fill:#00F2A9;" d="M216,232h-64c-8.8,0-16,7.2-16,16v64c0,8.8,7.2,16,16,16h64c8.8,0,16-7.2,16-16v-64
		C232,239.2,224.8,232,216,232z"/>
	<path style="fill:#00F2A9;" d="M280,168c8.8,0,16-7.2,16-16v-32c0-8.8-7.2-16-16-16h-32c-8.8,0-16,7.2-16,16v32c0,8.8,7.2,16,16,16
		H280z"/>
</g>
<g>
	<path style="fill:#322153;" d="M424,0H40C17.6,0,0,17.6,0,40v384c0,22.4,17.6,40,40,40h384c22.4,0,40-17.6,40-40V40
		C464,17.6,446.4,0,424,0z M448,424c0,13.6-10.4,24-24,24H40c-13.6,0-24-10.4-24-24V40c0-13.6,10.4-24,24-24h384
		c13.6,0,24,10.4,24,24V424z"/>
	<path style="fill:#322153;" d="M56,144h64c13.6,0,24-10.4,24-24V56c0-13.6-10.4-24-24-24H56c-13.6,0-24,10.4-24,24v64
		C32,133.6,42.4,144,56,144z M48,56c0-4.8,3.2-8,8-8h64c4.8,0,8,3.2,8,8v64c0,4.8-3.2,8-8,8H56c-4.8,0-8-3.2-8-8V56z"/>
	<path style="fill:#322153;" d="M408,288h-96c-13.6,0-24,10.4-24,24v96c0,13.6,10.4,24,24,24h96c13.6,0,24-10.4,24-24v-96
		C432,298.4,421.6,288,408,288z M416,408c0,4.8-3.2,8-8,8h-96c-4.8,0-8-3.2-8-8v-96c0-4.8,3.2-8,8-8h96c4.8,0,8,3.2,8,8V408z"/>
	<path style="fill:#322153;" d="M408,32h-32c-13.6,0-24,10.4-24,24v32c0,13.6,10.4,24,24,24h32c13.6,0,24-10.4,24-24V56
		C432,42.4,421.6,32,408,32z M416,88c0,4.8-3.2,8-8,8h-32c-4.8,0-8-3.2-8-8V56c0-4.8,3.2-8,8-8h32c4.8,0,8,3.2,8,8V88z"/>
	<path style="fill:#322153;" d="M88,352H56c-13.6,0-24,10.4-24,24v32c0,13.6,10.4,24,24,24h32c13.6,0,24-10.4,24-24v-32
		C112,362.4,101.6,352,88,352z M96,408c0,4.8-3.2,8-8,8H56c-4.8,0-8-3.2-8-8v-32c0-4.8,3.2-8,8-8h32c4.8,0,8,3.2,8,8V408z"/>
	<path style="fill:#322153;" d="M152,192c-13.6,0-24,10.4-24,24v64c0,13.6,10.4,24,24,24h64c13.6,0,24-10.4,24-24v-64
		c0-13.6-10.4-24-24-24H152z M224,216v64c0,4.8-3.2,8-8,8h-64c-4.8,0-8-3.2-8-8v-64c0-4.8,3.2-8,8-8h64C220.8,208,224,211.2,224,216
		z"/>
	<path style="fill:#322153;" d="M304,120V88c0-13.6-10.4-24-24-24h-32c-13.6,0-24,10.4-24,24v32c0,13.6,10.4,24,24,24h32
		C293.6,144,304,133.6,304,120z M288,120c0,4.8-3.2,8-8,8h-32c-4.8,0-8-3.2-8-8V88c0-4.8,3.2-8,8-8h32c4.8,0,8,3.2,8,8V120z"/>
	<path style="fill:#322153;" d="M40,176h112c13.6,0,24-10.4,24-24V40c0-4.8-3.2-8-8-8s-8,3.2-8,8v112c0,4.8-3.2,8-8,8H40
		c-4.8,0-8,3.2-8,8S35.2,176,40,176z"/>
	<path style="fill:#322153;" d="M216,176h48c4.8,0,8-3.2,8-8s-3.2-8-8-8h-48c-4.8,0-8-3.2-8-8V56c0-4.8,3.2-8,8-8h96
		c4.8,0,8,3.2,8,8v80c0,4.8,3.2,8,8,8s8-3.2,8-8V56c0-13.6-10.4-24-24-24h-96c-13.6,0-24,10.4-24,24v96C192,165.6,202.4,176,216,176
		z"/>
	<path style="fill:#322153;" d="M288,168c0,4.8,3.2,8,8,8h48c13.6,0,24-10.4,24-24v-16c0-4.8-3.2-8-8-8s-8,3.2-8,8v16
		c0,4.8-3.2,8-8,8h-48C291.2,160,288,163.2,288,168z"/>
	<path style="fill:#322153;" d="M400,136c0-4.8-3.2-8-8-8s-8,3.2-8,8v48c0,4.8-3.2,8-8,8H264c-4.8,0-8,3.2-8,8s3.2,8,8,8h112
		c13.6,0,24-10.4,24-24V136z"/>
	<path style="fill:#322153;" d="M424,128c-4.8,0-8,3.2-8,8v128c0,4.8,3.2,8,8,8s8-3.2,8-8V136C432,131.2,428.8,128,424,128z"/>
	<path style="fill:#322153;" d="M392,272c4.8,0,8-3.2,8-8v-16c0-13.6-10.4-24-24-24H264c-4.8,0-8,3.2-8,8c0,4.8,3.2,8,8,8h112
		c4.8,0,8,3.2,8,8v16C384,268.8,387.2,272,392,272z"/>
	<path style="fill:#322153;" d="M368,264c0-4.8-3.2-8-8-8h-80c-13.6,0-24,10.4-24,24v48c0,4.8,3.2,8,8,8s8-3.2,8-8v-48
		c0-4.8,3.2-8,8-8h80C364.8,272,368,268.8,368,264z"/>
	<path style="fill:#322153;" d="M240,328c0-4.8-3.2-8-8-8h-80c-13.6,0-24,10.4-24,24v80c0,4.8,3.2,8,8,8s8-3.2,8-8v-80
		c0-4.8,3.2-8,8-8h80C236.8,336,240,332.8,240,328z"/>
	<path style="fill:#322153;" d="M200,352h-32c-4.8,0-8,3.2-8,8s3.2,8,8,8h32c4.8,0,8-3.2,8-8S204.8,352,200,352z"/>
	<path style="fill:#322153;" d="M160,392c0,4.8,3.2,8,8,8h64c4.8,0,8-3.2,8-8s-3.2-8-8-8h-64C163.2,384,160,387.2,160,392z"/>
	<path style="fill:#322153;" d="M264,384c-4.8,0-8,3.2-8,8v16c0,4.8-3.2,8-8,8h-80c-4.8,0-8,3.2-8,8s3.2,8,8,8h80
		c13.6,0,24-10.4,24-24v-16C272,387.2,268.8,384,264,384z"/>
	<path style="fill:#322153;" d="M264,352h-32c-4.8,0-8,3.2-8,8s3.2,8,8,8h32c4.8,0,8-3.2,8-8S268.8,352,264,352z"/>
	<path style="fill:#322153;" d="M56,336h16c4.8,0,8-3.2,8-8s-3.2-8-8-8H56c-4.8,0-8-3.2-8-8V200c0-4.8-3.2-8-8-8s-8,3.2-8,8v112
		C32,325.6,42.4,336,56,336z"/>
	<path style="fill:#322153;" d="M88,288H72c-4.8,0-8,3.2-8,8s3.2,8,8,8h16c4.8,0,8,3.2,8,8v16c0,4.8,3.2,8,8,8s8-3.2,8-8v-16
		C112,298.4,101.6,288,88,288z"/>
	<path style="fill:#322153;" d="M104,256H88c-4.8,0-8-3.2-8-8v-16c0-4.8-3.2-8-8-8s-8,3.2-8,8v16c0,13.6,10.4,24,24,24h16
		c4.8,0,8-3.2,8-8S108.8,256,104,256z"/>
	<path style="fill:#322153;" d="M88,192H72c-4.8,0-8,3.2-8,8s3.2,8,8,8h16c4.8,0,8,3.2,8,8v16c0,4.8,3.2,8,8,8s8-3.2,8-8v-16
		C112,202.4,101.6,192,88,192z"/>
</g>
<g>
</g>
<g>
</g>
<g>
</g>
<g>
</g>
<g>
</g>
<g>
</g>
<g>
</g>
<g>
</g>
<g>
</g>
<g>
</g>
<g>
</g>
<g>
</g>
<g>
</g>
<g>
</g>
<g>
</g>
</svg>
