<?xml version="1.0" encoding="iso-8859-1"?>
<!-- Generator: Adobe Illustrator 19.0.0, SVG Export Plug-In . SVG Version: 6.00 Build 0)  -->
<svg version="1.1" id="Capa_1" xmlns="http://www.w3.org/2000/svg" xmlns:xlink="http://www.w3.org/1999/xlink" x="0px" y="0px"
	 viewBox="0 0 480 480" style="enable-background:new 0 0 480 480;" xml:space="preserve">
<path style="fill:#00F2A9;" d="M311.2,352c-4,0-7.2,3.2-8,7.2c-3.2,32-30.4,56.8-64,56.8s-60-24.8-64-56.8c-0.8-4-4-7.2-8-7.2H16v96
	c0,17.6,14.4,32,32,32h384c17.6,0,32-14.4,32-32v-96h-96H311.2z"/>
<g>
	<path style="fill:#322153;" d="M176,72h128c4.8,0,8-3.2,8-8s-3.2-8-8-8H176c-4.8,0-8,3.2-8,8S171.2,72,176,72z"/>
	<path style="fill:#322153;" d="M144,136h192c4.8,0,8-3.2,8-8s-3.2-8-8-8H144c-4.8,0-8,3.2-8,8S139.2,136,144,136z"/>
	<path style="fill:#322153;" d="M112,200h256c4.8,0,8-3.2,8-8s-3.2-8-8-8H112c-4.8,0-8,3.2-8,8S107.2,200,112,200z"/>
	<path style="fill:#322153;" d="M408,256c0-4.8-3.2-8-8-8H80c-4.8,0-8,3.2-8,8s3.2,8,8,8h320C404.8,264,408,260.8,408,256z"/>
	<path style="fill:#322153;" d="M138.4,346.4l-64,64c-3.2,3.2-3.2,8,0,11.2c1.6,1.6,4,2.4,5.6,2.4s4-0.8,5.6-2.4l64-64
		c3.2-3.2,3.2-8,0-11.2S141.6,343.2,138.4,346.4z"/>
	<path style="fill:#322153;" d="M80,392c2.4,0,4-0.8,5.6-2.4l32-32c3.2-3.2,3.2-8,0-11.2s-8-3.2-11.2,0l-32,32
		c-3.2,3.2-3.2,8,0,11.2C76,391.2,77.6,392,80,392z"/>
	<path style="fill:#322153;" d="M138.4,378.4l-32,32c-3.2,3.2-3.2,8,0,11.2c1.6,1.6,4,2.4,5.6,2.4s4-0.8,5.6-2.4l32-32
		c3.2-3.2,3.2-8,0-11.2S141.6,375.2,138.4,378.4z"/>
	<path style="fill:#322153;" d="M472,316.8L472,316.8L472,316.8l-120.8-288C345.6,12,329.6,0,312.8,0H167.2c-16.8,0-32,12-37.6,28
		L8.8,316C8,317.6,8,318.4,8,320l0,0v96c0,22.4,17.6,40,40,40h384c22.4,0,40-17.6,40-40v-96l0,0C472,318.4,472,317.6,472,316.8z
		 M432,440H48c-13.6,0-24-10.4-24-24v-88h144.8c4,36.8,34.4,64,71.2,64s68-28,71.2-64H336h32c4.8,0,8-3.2,8-8s-3.2-8-8-8h-32h-24.8
		H208c-4.8,0-8,3.2-8,8s3.2,8,8,8h87.2c-4,27.2-27.2,48-55.2,48c-28.8,0-52.8-21.6-56-49.6c-0.8-8-8-14.4-16-14.4H28L144,33.6
		c4-10.4,12.8-17.6,23.2-17.6h145.6c9.6,0,19.2,7.2,23.2,18.4L452,312h-52c-4.8,0-8,3.2-8,8s3.2,8,8,8h56v16h-24c-4.8,0-8,3.2-8,8
		s3.2,8,8,8h24v16h-56c-4.8,0-8,3.2-8,8s3.2,8,8,8h56v16h-24c-4.8,0-8,3.2-8,8s3.2,8,8,8h22.4C451.2,433.6,442.4,440,432,440z"/>
	<path style="fill:#322153;" d="M208,88c-4.8,0-8,3.2-8,8s3.2,8,8,8h64c4.8,0,8-3.2,8-8s-3.2-8-8-8H208z"/>
	<path style="fill:#322153;" d="M176,152c-4.8,0-8,3.2-8,8s3.2,8,8,8h128c4.8,0,8-3.2,8-8s-3.2-8-8-8H176z"/>
	<path style="fill:#322153;" d="M144,216c-4.8,0-8,3.2-8,8c0,4.8,3.2,8,8,8h192c4.8,0,8-3.2,8-8s-3.2-8-8-8H144z"/>
	<path style="fill:#322153;" d="M368,280H112c-4.8,0-8,3.2-8,8s3.2,8,8,8h256c4.8,0,8-3.2,8-8S372.8,280,368,280z"/>
	<circle style="fill:#322153;" cx="240" cy="32" r="8"/>
</g>
<g>
</g>
<g>
</g>
<g>
</g>
<g>
</g>
<g>
</g>
<g>
</g>
<g>
</g>
<g>
</g>
<g>
</g>
<g>
</g>
<g>
</g>
<g>
</g>
<g>
</g>
<g>
</g>
<g>
</g>
</svg>
