<?xml version="1.0" encoding="iso-8859-1"?>
<!-- Generator: Adobe Illustrator 19.0.0, SVG Export Plug-In . SVG Version: 6.00 Build 0)  -->
<svg version="1.1" id="Capa_1" xmlns="http://www.w3.org/2000/svg" xmlns:xlink="http://www.w3.org/1999/xlink" x="0px" y="0px"
	 viewBox="0 0 472.228 472.228" style="enable-background:new 0 0 472.228 472.228;" xml:space="preserve">
<g>
	<path style="fill:#00F2A9;" d="M73.95,461.428c14.4,14.4,38.4,14.4,52.8,0c3.2-3.2,3.2-8,0-11.2l-84.8-84.8c-3.2-3.2-8-3.2-11.2,0
		c-14.4,14.4-14.4,38.4,0,52.8L73.95,461.428z"/>
	<path style="fill:#00F2A9;" d="M414.75,258.228c3.2,3.2,8,3.2,11.2,0l8-7.2c10.4-8.8,10.4-24.8,0.8-34.4l-161.6-165.6
		c-6.4-6.4-16-6.4-22.4-0.8l-16.8,15.2c-3.2,3.2-3.2,8,0,11.2l9.6,9.6l160,160L414.75,258.228z"/>
</g>
<g>
	<path style="fill:#322153;" d="M433.15,15.828l-33.6,33.6c-3.2,3.2-3.2,8,0,11.2c1.6,1.6,4,2.4,5.6,2.4s4-0.8,5.6-2.4l33.6-33.6
		c3.2-3.2,3.2-8,0-11.2S435.55,12.628,433.15,15.828z"/>
	<path style="fill:#322153;" d="M372.35,47.828c3.2,0,5.6-1.6,7.2-4.8l16-32c1.6-4,0-8.8-3.2-10.4c-4-1.6-8.8,0-10.4,3.2l-16,32
		c-1.6,4,0,8.8,3.2,10.4C369.95,47.828,370.75,47.828,372.35,47.828z"/>
	<path style="fill:#322153;" d="M448.35,64.628l-32,16c-4,1.6-5.6,6.4-3.2,10.4c1.6,3.2,4,4.8,7.2,4.8c1.6,0,2.4,0,3.2-0.8l32-16
		c4-1.6,5.6-6.4,3.2-10.4S452.35,63.028,448.35,64.628z"/>
	<path style="fill:#322153;" d="M245.15,13.428l-16.8,15.2c-2.4,3.2-4.8,7.2-4.8,11.2s1.6,8.8,4.8,11.2l4.8,4.8l-183.2,273.6
		l-2.4-1.6c-3.2-3.2-7.2-4.8-11.2-4.8l0,0c-4,0-8,1.6-11.2,4.8c-8,8-12.8,20-12.8,32s4.8,23.2,13.6,32l43.2,43.2
		c8.8,8.8,20,13.6,32,13.6s23.2-4.8,32-13.6c6.4-6.4,6.4-16,0-22.4l-4-4l27.2-17.6l9.6,15.2c10.4,16.8,28.8,25.6,47.2,25.6
		c10.4,0,20.8-3.2,30.4-8.8c25.6-16.8,33.6-51.2,16.8-77.6l-10.4-16.8l154.4-102.4l6.4,6.4c6.4,5.6,16,6.4,21.6,0l8-7.2
		c6.4-5.6,10.4-13.6,10.4-22.4c0-8.8-3.2-16.8-8.8-23.2l-163.2-166.4C269.95,4.628,254.75,3.828,245.15,13.428z M79.55,423.828
		l-43.2-43.2c-5.6-5.6-8-12.8-8-20.8s3.2-15.2,8.8-20.8l84,84.8C109.95,435.028,91.55,435.028,79.55,423.828z M245.95,354.228
		c12,18.4,6.4,43.2-12,55.2s-43.2,6.4-55.2-12l-9.6-15.2l66.4-44L245.95,354.228z M433.15,202.228c0,4-2.4,8.8-5.6,11.2l-8,7.2
		l-11.2-10.4c-2.4-2.4-7.2-3.2-10.4-0.8l-164.8,110.4l0,0l0,0l-80,52.8l0,0l0,0l-36,24l-56-56l183.2-272.8l124.8,124.8
		c3.2,3.2,8,3.2,11.2,0s3.2-8,0-11.2l-130.4-131.2l0,0l-9.6-9.6l16.8-15.2c3.2-3.2,8-3.2,11.2,0l161.6,165.6
		C432.35,193.428,433.95,198.228,433.15,202.228z"/>
	<path style="fill:#322153;" d="M254.75,194.228l-64,64c-3.2,3.2-3.2,8,0,11.2c1.6,1.6,4,2.4,5.6,2.4s4-0.8,5.6-2.4l64-64
		c3.2-3.2,3.2-8,0-11.2S257.95,191.028,254.75,194.228z"/>
	<path style="fill:#322153;" d="M196.35,239.828c2.4,0,4-0.8,5.6-2.4l32-32c3.2-3.2,3.2-8,0-11.2s-8-3.2-11.2,0l-32,32
		c-3.2,3.2-3.2,8,0,11.2C192.35,239.028,194.75,239.828,196.35,239.828z"/>
	<path style="fill:#322153;" d="M254.75,226.228l-32,32c-3.2,3.2-3.2,8,0,11.2c1.6,1.6,4,2.4,5.6,2.4s4-0.8,5.6-2.4l32-32
		c3.2-3.2,3.2-8,0-11.2S257.95,223.028,254.75,226.228z"/>
</g>
<g>
</g>
<g>
</g>
<g>
</g>
<g>
</g>
<g>
</g>
<g>
</g>
<g>
</g>
<g>
</g>
<g>
</g>
<g>
</g>
<g>
</g>
<g>
</g>
<g>
</g>
<g>
</g>
<g>
</g>
</svg>
