<?xml version="1.0" encoding="iso-8859-1"?>
<!-- Generator: Adobe Illustrator 19.0.0, SVG Export Plug-In . SVG Version: 6.00 Build 0)  -->
<svg version="1.1" id="Capa_1" xmlns="http://www.w3.org/2000/svg" xmlns:xlink="http://www.w3.org/1999/xlink" x="0px" y="0px"
	 viewBox="0 0 464 464" style="enable-background:new 0 0 464 464;" xml:space="preserve">
<path style="fill:#00F2A9;" d="M424,156H40c-17.6,0-32,14.4-32,32v192c0,17.6,14.4,32,32,32h384c17.6,0,32-14.4,32-32V188
	C456,170.4,441.6,156,424,156z M232,380c-52.8,0-96-43.2-96-96s43.2-96,96-96s96,43.2,96,96S284.8,380,232,380z"/>
<g>
	<path style="fill:#322153;" d="M424,116H40c-22.4,0-40,17.6-40,40v192c0,22.4,17.6,40,40,40h384c22.4,0,40-17.6,40-40V156
		C464,133.6,446.4,116,424,116z M448,348c0,13.6-10.4,24-24,24H40c-13.6,0-24-10.4-24-24V156c0-13.6,10.4-24,24-24h384
		c13.6,0,24,10.4,24,24V348z"/>
	<path style="fill:#322153;" d="M32,92c0,4.8,3.2,8,8,8h384c4.8,0,8-3.2,8-8s-3.2-8-8-8H40C35.2,84,32,87.2,32,92z"/>
	<path style="fill:#322153;" d="M392,52H72c-4.8,0-8,3.2-8,8s3.2,8,8,8h320c4.8,0,8-3.2,8-8S396.8,52,392,52z"/>
	<path style="fill:#322153;" d="M232,148c-57.6,0-104,46.4-104,104s46.4,104,104,104s104-46.4,104-104S289.6,148,232,148z M232,340
		c-48.8,0-88-39.2-88-88s39.2-88,88-88s88,39.2,88,88S280.8,340,232,340z"/>
	<path style="fill:#322153;" d="M216,228h48c4.8,0,8-3.2,8-8s-3.2-8-8-8h-24v-24c0-4.8-3.2-8-8-8s-8,3.2-8,8v24h-8
		c-13.6,0-24,10.4-24,24s10.4,24,24,24h32c4.8,0,8,3.2,8,8s-3.2,8-8,8h-48c-4.8,0-8,3.2-8,8s3.2,8,8,8h24v24c0,4.8,3.2,8,8,8
		c4.8,0,8-3.2,8-8v-24h8c13.6,0,24-10.4,24-24s-10.4-24-24-24h-32c-4.8,0-8-3.2-8-8S211.2,228,216,228z"/>
	<path style="fill:#322153;" d="M360,228h32c4.8,0,8-3.2,8-8s-3.2-8-8-8h-32c-4.8,0-8,3.2-8,8C352,224.8,355.2,228,360,228z"/>
	<path style="fill:#322153;" d="M424,244h-64c-4.8,0-8,3.2-8,8s3.2,8,8,8h64c4.8,0,8-3.2,8-8S428.8,244,424,244z"/>
	<path style="fill:#322153;" d="M392,292c4.8,0,8-3.2,8-8s-3.2-8-8-8h-32c-4.8,0-8,3.2-8,8s3.2,8,8,8H392z"/>
	<path style="fill:#322153;" d="M72,212c-4.8,0-8,3.2-8,8c0,4.8,3.2,8,8,8h32c4.8,0,8-3.2,8-8s-3.2-8-8-8H72z"/>
	<path style="fill:#322153;" d="M40,260h64c4.8,0,8-3.2,8-8s-3.2-8-8-8H40c-4.8,0-8,3.2-8,8S35.2,260,40,260z"/>
	<path style="fill:#322153;" d="M104,276H72c-4.8,0-8,3.2-8,8s3.2,8,8,8h32c4.8,0,8-3.2,8-8S108.8,276,104,276z"/>
	<path style="fill:#322153;" d="M136,340H40c-4.8,0-8,3.2-8,8s3.2,8,8,8h96c4.8,0,8-3.2,8-8S140.8,340,136,340z"/>
	<path style="fill:#322153;" d="M424,340h-96c-4.8,0-8,3.2-8,8s3.2,8,8,8h96c4.8,0,8-3.2,8-8S428.8,340,424,340z"/>
	<path style="fill:#322153;" d="M40,164h96c4.8,0,8-3.2,8-8s-3.2-8-8-8H40c-4.8,0-8,3.2-8,8S35.2,164,40,164z"/>
	<path style="fill:#322153;" d="M424,148h-96c-4.8,0-8,3.2-8,8s3.2,8,8,8h96c4.8,0,8-3.2,8-8S428.8,148,424,148z"/>
</g>
<g>
</g>
<g>
</g>
<g>
</g>
<g>
</g>
<g>
</g>
<g>
</g>
<g>
</g>
<g>
</g>
<g>
</g>
<g>
</g>
<g>
</g>
<g>
</g>
<g>
</g>
<g>
</g>
<g>
</g>
</svg>
