<?xml version="1.0" encoding="iso-8859-1"?>
<!-- Generator: Adobe Illustrator 19.0.0, SVG Export Plug-In . SVG Version: 6.00 Build 0)  -->
<svg version="1.1" id="Capa_1" xmlns="http://www.w3.org/2000/svg" xmlns:xlink="http://www.w3.org/1999/xlink" x="0px" y="0px"
	 viewBox="0 0 464 464" style="enable-background:new 0 0 464 464;" xml:space="preserve">
<circle style="fill:#00F2A9;" cx="232" cy="296" r="96"/>
<g>
	<path style="fill:#322153;" d="M56,112h8.8l28.8,316c1.6,20.8,19.2,36,39.2,36c16.8,0,40,0,64.8,0c48.8,0,104.8,0,132.8,0
		c20.8,0,37.6-16,39.2-36l29.6-316h8.8c13.6,0,24-10.4,24-24s-10.4-24-24-24h-11.2L376,22.4C368.8,8.8,355.2,0,340,0H124
		c-15.2,0-28.8,8.8-36,22.4L67.2,64H56c-13.6,0-24,10.4-24,24S42.4,112,56,112z M367.2,288h-34.4c1.6-8,3.2-16,3.2-24
		s-0.8-16-3.2-24h38.4L367.2,288z M232,352c-48.8,0-88-39.2-88-88s39.2-88,88-88s88,39.2,88,88S280.8,352,232,352z M131.2,288H96.8
		l-4-48h38.4c-1.6,8-3.2,16-3.2,24S128.8,280,131.2,288z M354.4,426.4c-0.8,12-11.2,21.6-24,21.6c-42.4,0-146.4,0.8-197.6,0
		c-12,0-22.4-9.6-24-21.6L98.4,304H136l0,0c16,37.6,52.8,64,96,64s80-24,96-64l0,0h37.6L354.4,426.4z M372.8,224H328l0,0
		c-16-37.6-52.8-64-96-64s-80,24-96,64l0,0H91.2L80.8,112h302.4L372.8,224z M56,80h16h256c4.8,0,8-3.2,8-8s-3.2-8-8-8H84.8
		l17.6-34.4c4-8,12-13.6,21.6-13.6h216.8c8.8,0,17.6,4.8,21.6,13.6L385.6,76c1.6,2.4,4,4.8,7.2,4.8h16c4.8,0,8,3.2,8,8s-3.2,8-8,8
		H56c-4.8,0-8-3.2-8-8S51.2,80,56,80z"/>
	<path style="fill:#322153;" d="M205.6,226.4c-3.2-3.2-8-3.2-11.2,0s-3.2,8,0,11.2l64,64c1.6,1.6,4,2.4,5.6,2.4s4-0.8,5.6-2.4
		c3.2-3.2,3.2-8,0-11.2L205.6,226.4z"/>
	<path style="fill:#322153;" d="M237.6,226.4c-3.2-3.2-8-3.2-11.2,0s-3.2,8,0,11.2l32,32c1.6,1.6,4,2.4,5.6,2.4s4-0.8,5.6-2.4
		c3.2-3.2,3.2-8,0-11.2L237.6,226.4z"/>
	<path style="fill:#322153;" d="M205.6,258.4c-3.2-3.2-8-3.2-11.2,0s-3.2,8,0,11.2l32,32c1.6,1.6,4,2.4,5.6,2.4c1.6,0,4-0.8,5.6-2.4
		c3.2-3.2,3.2-8,0-11.2L205.6,258.4z"/>
</g>
<g>
</g>
<g>
</g>
<g>
</g>
<g>
</g>
<g>
</g>
<g>
</g>
<g>
</g>
<g>
</g>
<g>
</g>
<g>
</g>
<g>
</g>
<g>
</g>
<g>
</g>
<g>
</g>
<g>
</g>
</svg>
