<?xml version="1.0" encoding="iso-8859-1"?>
<!-- Generator: Adobe Illustrator 19.0.0, SVG Export Plug-In . SVG Version: 6.00 Build 0)  -->
<svg version="1.1" id="Capa_1" xmlns="http://www.w3.org/2000/svg" xmlns:xlink="http://www.w3.org/1999/xlink" x="0px" y="0px"
	 viewBox="0 0 464 464" style="enable-background:new 0 0 464 464;" xml:space="preserve">
<path style="fill:#00F2A9;" d="M208.8,316.8l76.8-38.4c12-5.6,12-22.4,0.8-28.8l-77.6-38.4c-10.4-5.6-24.8,2.4-24.8,14.4v76
	C184,314.4,198.4,321.6,208.8,316.8z"/>
<g>
	<path style="fill:#322153;" d="M424,0H40C17.6,0,0,17.6,0,40v384c0,22.4,17.6,40,40,40h384c22.4,0,40-17.6,40-40V40
		C464,17.6,446.4,0,424,0z M96,448H48v-8c0-4.8,3.2-8,8-8h32c4.8,0,8,3.2,8,8V448z M416,448h-48v-8c0-4.8,3.2-8,8-8h32
		c4.8,0,8,3.2,8,8V448z M448,424c0,10.4-6.4,19.2-16,22.4V440c0-13.6-10.4-24-24-24h-32c-13.6,0-24,10.4-24,24v8h-80v-56
		c0-4.8-3.2-8-8-8s-8,3.2-8,8v56h-16v-24c0-4.8-3.2-8-8-8s-8,3.2-8,8v24h-16v-56c0-4.8-3.2-8-8-8s-8,3.2-8,8v56h-80v-8
		c0-13.6-10.4-24-24-24H56c-13.6,0-24,10.4-24,24v6.4c-9.6-3.2-16-12-16-22.4V40c0-13.6,10.4-24,24-24h152v24c0,4.8,3.2,8,8,8
		s8-3.2,8-8V16h16v56c0,4.8,3.2,8,8,8c4.8,0,8-3.2,8-8V16h16v24c0,4.8,3.2,8,8,8s8-3.2,8-8V16h152c13.6,0,24,10.4,24,24V424z"/>
	<path style="fill:#322153;" d="M88,32H56c-13.6,0-24,10.4-24,24v32c0,13.6,10.4,24,24,24h32c13.6,0,24-10.4,24-24V56
		C112,42.4,101.6,32,88,32z M96,88c0,4.8-3.2,8-8,8H56c-4.8,0-8-3.2-8-8V56c0-4.8,3.2-8,8-8h32c4.8,0,8,3.2,8,8V88z"/>
	<path style="fill:#322153;" d="M88,128H56c-13.6,0-24,10.4-24,24v32c0,13.6,10.4,24,24,24h32c13.6,0,24-10.4,24-24v-32
		C112,138.4,101.6,128,88,128z M96,184c0,4.8-3.2,8-8,8H56c-4.8,0-8-3.2-8-8v-32c0-4.8,3.2-8,8-8h32c4.8,0,8,3.2,8,8V184z"/>
	<path style="fill:#322153;" d="M88,224H56c-13.6,0-24,10.4-24,24v32c0,13.6,10.4,24,24,24h32c13.6,0,24-10.4,24-24v-32
		C112,234.4,101.6,224,88,224z M96,280c0,4.8-3.2,8-8,8H56c-4.8,0-8-3.2-8-8v-32c0-4.8,3.2-8,8-8h32c4.8,0,8,3.2,8,8V280z"/>
	<path style="fill:#322153;" d="M88,320H56c-13.6,0-24,10.4-24,24v32c0,13.6,10.4,24,24,24h32c13.6,0,24-10.4,24-24v-32
		C112,330.4,101.6,320,88,320z M96,376c0,4.8-3.2,8-8,8H56c-4.8,0-8-3.2-8-8v-32c0-4.8,3.2-8,8-8h32c4.8,0,8,3.2,8,8V376z"/>
	<path style="fill:#322153;" d="M408,32h-32c-13.6,0-24,10.4-24,24v32c0,13.6,10.4,24,24,24h32c13.6,0,24-10.4,24-24V56
		C432,42.4,421.6,32,408,32z M416,88c0,4.8-3.2,8-8,8h-32c-4.8,0-8-3.2-8-8V56c0-4.8,3.2-8,8-8h32c4.8,0,8,3.2,8,8V88z"/>
	<path style="fill:#322153;" d="M408,128h-32c-13.6,0-24,10.4-24,24v32c0,13.6,10.4,24,24,24h32c13.6,0,24-10.4,24-24v-32
		C432,138.4,421.6,128,408,128z M416,184c0,4.8-3.2,8-8,8h-32c-4.8,0-8-3.2-8-8v-32c0-4.8,3.2-8,8-8h32c4.8,0,8,3.2,8,8V184z"/>
	<path style="fill:#322153;" d="M408,224h-32c-13.6,0-24,10.4-24,24v32c0,13.6,10.4,24,24,24h32c13.6,0,24-10.4,24-24v-32
		C432,234.4,421.6,224,408,224z M416,280c0,4.8-3.2,8-8,8h-32c-4.8,0-8-3.2-8-8v-32c0-4.8,3.2-8,8-8h32c4.8,0,8,3.2,8,8V280z"/>
	<path style="fill:#322153;" d="M408,320h-32c-13.6,0-24,10.4-24,24v32c0,13.6,10.4,24,24,24h32c13.6,0,24-10.4,24-24v-32
		C432,330.4,421.6,320,408,320z M416,376c0,4.8-3.2,8-8,8h-32c-4.8,0-8-3.2-8-8v-32c0-4.8,3.2-8,8-8h32c4.8,0,8,3.2,8,8V376z"/>
	<path style="fill:#322153;" d="M290.4,210.4L212.8,172c-8-4-16.8-3.2-24.8,1.6c-7.2,4.8-11.2,12-11.2,20v76c0,8,4,15.2,12,20
		c4,2.4,9.6,4,14.4,4c4,0,7.2-0.8,11.2-2.4l77.6-38.4c8-4,13.6-12.8,13.6-21.6C303.2,222.4,298.4,214.4,290.4,210.4z M282.4,239.2
		l-77.6,38.4c-2.4,1.6-6.4,0.8-9.6-0.8c-1.6-0.8-4-3.2-4-6.4v-76c0-3.2,2.4-5.6,4-6.4c1.6-0.8,3.2-1.6,5.6-1.6c1.6,0,2.4,0,4,0.8
		l77.6,38.4c4,1.6,4,5.6,4,7.2C287.2,235.2,285.6,237.6,282.4,239.2z"/>
</g>
<g>
</g>
<g>
</g>
<g>
</g>
<g>
</g>
<g>
</g>
<g>
</g>
<g>
</g>
<g>
</g>
<g>
</g>
<g>
</g>
<g>
</g>
<g>
</g>
<g>
</g>
<g>
</g>
<g>
</g>
</svg>
