<?xml version="1.0" encoding="iso-8859-1"?>
<!-- Generator: Adobe Illustrator 19.0.0, SVG Export Plug-In . SVG Version: 6.00 Build 0)  -->
<svg version="1.1" id="Capa_1" xmlns="http://www.w3.org/2000/svg" xmlns:xlink="http://www.w3.org/1999/xlink" x="0px" y="0px"
	 viewBox="0 0 464 464" style="enable-background:new 0 0 464 464;" xml:space="preserve">
<path style="fill:#00F2A9;" d="M40,200l84.8,84.8c6.4,6.4,16,6.4,22.4,0l137.6-137.6c6.4-6.4,6.4-16,0-22.4L200,40L40,200z"/>
<g>
	<path style="fill:#322153;" d="M34.4,162.4c-3.2,3.2-3.2,8,0,11.2l84.8,84.8c4.8,4.8,10.4,7.2,16.8,7.2s12.8-2.4,16.8-7.2
		l47.2-47.2l207.2,213.6c4.8,4.8,11.2,7.2,16.8,7.2s12-2.4,16.8-7.2l16-16c9.6-9.6,9.6-24.8,0-34.4L243.2,168l47.2-47.2
		c9.6-9.6,9.6-24.8,0-33.6L205.6,2.4c-3.2-3.2-8-3.2-11.2,0L136.8,60l-15.2-20l-0.8-0.8c-8.8-8.8-24.8-8.8-33.6,0l-16,16
		c-9.6,9.6-9.6,24.8,0,33.6l0.8,0.8l20,15.2L34.4,162.4z M141.6,247.2c-3.2,3.2-8,3.2-11.2,0L51.2,168L72,147.2l84.8,84.8
		L141.6,247.2z M168,51.2l84.8,84.8L168,220.8L83.2,136L168,51.2z M445.6,397.6l-16,16c-3.2,3.2-8,3.2-11.2,0l-176-180.8l21.6-21.6
		l180.8,176C448.8,389.6,448.8,394.4,445.6,397.6z M252.8,199.2l-21.6,21.6l-20-20.8l20.8-20.8L252.8,199.2z M200,19.2l79.2,79.2
		c3.2,3.2,3.2,8,0,11.2L264,124.8L179.2,40L200,19.2z M82.4,77.6c-3.2-3.2-2.4-8,0-11.2l16-16c3.2-3.2,8-3.2,11.2,0l16,21.6
		l-22.4,22.4L82.4,77.6z"/>
	<path style="fill:#322153;" d="M386.4,365.6l32,32c1.6,1.6,4,2.4,5.6,2.4s4-0.8,5.6-2.4c3.2-3.2,3.2-8,0-11.2l-32-32
		c-3.2-3.2-8-3.2-11.2,0S383.2,362.4,386.4,365.6z"/>
	<path style="fill:#322153;" d="M8,464h224c4.8,0,8-3.2,8-8v-16c0-13.6-10.4-24-24-24h-8v-8c0-13.6-10.4-24-24-24H56
		c-13.6,0-24,10.4-24,24v8h-8c-13.6,0-24,10.4-24,24v16C0,460.8,3.2,464,8,464z M48,408c0-4.8,3.2-8,8-8h128c4.8,0,8,3.2,8,8v8H48
		V408z M16,440c0-4.8,3.2-8,8-8h192c4.8,0,8,3.2,8,8v8H16V440z"/>
	<path style="fill:#322153;" d="M168,192c4.8,0,8-3.2,8-8V88c0-4.8-3.2-8-8-8s-8,3.2-8,8v96C160,188.8,163.2,192,168,192z"/>
	<path style="fill:#322153;" d="M144,168c4.8,0,8-3.2,8-8v-48c0-4.8-3.2-8-8-8s-8,3.2-8,8v48C136,164.8,139.2,168,144,168z"/>
	<path style="fill:#322153;" d="M192,168c4.8,0,8-3.2,8-8v-48c0-4.8-3.2-8-8-8s-8,3.2-8,8v48C184,164.8,187.2,168,192,168z"/>
</g>
<g>
</g>
<g>
</g>
<g>
</g>
<g>
</g>
<g>
</g>
<g>
</g>
<g>
</g>
<g>
</g>
<g>
</g>
<g>
</g>
<g>
</g>
<g>
</g>
<g>
</g>
<g>
</g>
<g>
</g>
</svg>
