<?xml version="1.0" encoding="iso-8859-1"?>
<!-- Generator: Adobe Illustrator 19.0.0, SVG Export Plug-In . SVG Version: 6.00 Build 0)  -->
<svg version="1.1" id="Capa_1" xmlns="http://www.w3.org/2000/svg" xmlns:xlink="http://www.w3.org/1999/xlink" x="0px" y="0px"
	 viewBox="0 0 472 472" style="enable-background:new 0 0 472 472;" xml:space="preserve">
<path style="fill:#00F2A9;" d="M253.6,462.4c12.8,12.8,32.8,12.8,45.6,0l144-144c12.8-12.8,12.8-32.8,0-45.6l-221.6-224
	c-6.4-5.6-14.4-8.8-23.2-8.8H52c-17.6,0-32,14.4-32,32v146.4c0,8.8,3.2,16.8,9.6,22.4L253.6,462.4z M100,72c26.4,0,48,21.6,48,48
	s-21.6,48-48,48s-48-21.6-48-48S73.6,72,100,72z"/>
<g>
	<path style="fill:#322153;" d="M44.8,235.2C44,244.8,44,254.4,44,264c0,7.2,0.8,168,40,168c26.4,0,35.2-69.6,38.4-119.2l125.6,124
		c7.2,7.2,17.6,12,28,12s20.8-4,28-12l144-144c7.2-7.2,12-17.6,12-28s-4-20.8-12-28l-221.6-224C219.2,4,209.6,0,198.4,0H52
		C29.6,0,12,17.6,12,40v146.4c0,10.4,4,20.8,12,28L44.8,235.2z M84,416c-8.8-3.2-24-57.6-24-152c0-4,0-8.8,0-12.8l47.2,46.4
		C104,371.2,91.2,412.8,84,416z M28,40c0-13.6,10.4-24,24-24h146.4c6.4,0,12.8,2.4,16.8,7.2l221.6,224c4.8,4.8,7.2,10.4,7.2,16.8
		s-2.4,12.8-7.2,16.8l-144,144c-8.8,8.8-24.8,8.8-33.6,0l-136-133.6C124,276,124,265.6,124,264c0-4.8,0-73.6-11.2-121.6
		c24.8-5.6,43.2-28,43.2-54.4c0-31.2-24.8-56-56-56S44,56.8,44,88c0,16.8,7.2,31.2,18.4,41.6c0,0,0.8,0,0.8,0.8
		c8.8,8,20.8,12.8,33.6,13.6c5.6,25.6,11.2,66.4,11.2,120c0,4,0,8,0,12l-72.8-72c-4.8-4.8-7.2-11.2-7.2-17.6V40z M60,88
		c0-22.4,17.6-40,40-40s40,17.6,40,40c0,19.2-13.6,35.2-31.2,39.2C103.2,108.8,95.2,96,84,96c-8,0-13.6,6.4-17.6,13.6
		C62.4,103.2,60,96,60,88z M84,112c2.4,0.8,5.6,6.4,8.8,15.2c-4.8-0.8-9.6-3.2-14.4-5.6C81.6,114.4,84,112,84,112z"/>
	<path style="fill:#322153;" d="M334.4,322.4l-64,64c-3.2,3.2-3.2,8,0,11.2c1.6,1.6,4,2.4,5.6,2.4s4-0.8,5.6-2.4l64-64
		c3.2-3.2,3.2-8,0-11.2S337.6,319.2,334.4,322.4z"/>
	<path style="fill:#322153;" d="M366.4,301.6c1.6,1.6,4,2.4,5.6,2.4s4-0.8,5.6-2.4l32-32c3.2-3.2,3.2-8,0-11.2s-8-3.2-11.2,0l-32,32
		C363.2,293.6,363.2,298.4,366.4,301.6z"/>
	<path style="fill:#322153;" d="M281.6,322.4c-3.2-3.2-8-3.2-11.2,0l-32,32c-3.2,3.2-3.2,8,0,11.2c1.6,1.6,4,2.4,5.6,2.4
		s4-0.8,5.6-2.4l32-32C284.8,330.4,284.8,325.6,281.6,322.4z"/>
	<path style="fill:#322153;" d="M302.4,301.6c1.6,1.6,4,2.4,5.6,2.4s4-0.8,5.6-2.4l64-64c3.2-3.2,3.2-8,0-11.2s-8-3.2-11.2,0l-64,64
		C299.2,293.6,299.2,298.4,302.4,301.6z"/>
	<path style="fill:#322153;" d="M212,336c2.4,0,4-0.8,5.6-2.4l128-128c3.2-3.2,3.2-8,0-11.2s-8-3.2-11.2,0l-128,128
		c-3.2,3.2-3.2,8,0,11.2C208,335.2,209.6,336,212,336z"/>
	<path style="fill:#322153;" d="M212,256c4.8,0,8-3.2,8-8v-96c0-4.8-3.2-8-8-8c-4.8,0-8,3.2-8,8v96C204,252.8,207.2,256,212,256z"/>
	<path style="fill:#322153;" d="M236,232c4.8,0,8-3.2,8-8v-48c0-4.8-3.2-8-8-8c-4.8,0-8,3.2-8,8v48C228,228.8,231.2,232,236,232z"/>
	<path style="fill:#322153;" d="M188,232c4.8,0,8-3.2,8-8v-48c0-4.8-3.2-8-8-8c-4.8,0-8,3.2-8,8v48C180,228.8,183.2,232,188,232z"/>
</g>
<g>
</g>
<g>
</g>
<g>
</g>
<g>
</g>
<g>
</g>
<g>
</g>
<g>
</g>
<g>
</g>
<g>
</g>
<g>
</g>
<g>
</g>
<g>
</g>
<g>
</g>
<g>
</g>
<g>
</g>
</svg>
