<?xml version="1.0" encoding="iso-8859-1"?>
<!-- Generator: Adobe Illustrator 19.0.0, SVG Export Plug-In . SVG Version: 6.00 Build 0)  -->
<svg version="1.1" id="Capa_1" xmlns="http://www.w3.org/2000/svg" xmlns:xlink="http://www.w3.org/1999/xlink" x="0px" y="0px"
	 viewBox="0 0 464 464" style="enable-background:new 0 0 464 464;" xml:space="preserve">
<g>
	<rect x="72" y="168" style="fill:#00F2A9;" width="64" height="256"/>
	<rect x="200" y="168" style="fill:#00F2A9;" width="64" height="256"/>
	<rect x="328" y="168" style="fill:#00F2A9;" width="64" height="256"/>
</g>
<g>
	<path style="fill:#322153;" d="M458.4,64l-224-64c-1.6,0-3.2,0-4.8,0L5.6,64C2.4,65.6,0,68.8,0,72v16c0,13.6,10.4,24,24,24h8v8
		c0,13.6,10.4,24,24,24h8v240h-8c-13.6,0-24,10.4-24,24v8h-8c-13.6,0-24,10.4-24,24v16c0,4.8,3.2,8,8,8h448c4.8,0,8-3.2,8-8v-16
		c0-13.6-10.4-24-24-24h-8v-8c0-13.6-10.4-24-24-24h-8V144h8c13.6,0,24-10.4,24-24v-8h8c13.6,0,24-10.4,24-24V72
		C464,68.8,461.6,65.6,458.4,64z M80,144h48v240H80V144z M192,144v16h-48v-16H192z M320,144v16h-48v-16H320z M272,384V176h48v208
		H272z M256,384h-48V144h48V384z M144,384V176h48v208H144z M448,440v8H16v-8c0-4.8,3.2-8,8-8h16h384h16C444.8,432,448,435.2,448,440
		z M416,408v8H48v-8c0-4.8,3.2-8,8-8h16h64h64h64h64h64h16C412.8,400,416,403.2,416,408z M384,384h-48V144h48V384z M416,120
		c0,4.8-3.2,8-8,8h-16h-64h-64h-64h-64H72H56c-4.8,0-8-3.2-8-8v-8h368V120z M448,88c0,4.8-3.2,8-8,8h-16H40H24c-4.8,0-8-3.2-8-8
		v-9.6L232,16l216,61.6V88z"/>
	<path style="fill:#322153;" d="M104,160c-4.8,0-8,3.2-8,8v96c0,4.8,3.2,8,8,8s8-3.2,8-8v-96C112,163.2,108.8,160,104,160z"/>
	<path style="fill:#322153;" d="M104,288c-4.8,0-8,3.2-8,8v64c0,4.8,3.2,8,8,8s8-3.2,8-8v-64C112,291.2,108.8,288,104,288z"/>
	<path style="fill:#322153;" d="M232,368c4.8,0,8-3.2,8-8V232c0-4.8-3.2-8-8-8s-8,3.2-8,8v128C224,364.8,227.2,368,232,368z"/>
	<path style="fill:#322153;" d="M232,208c4.8,0,8-3.2,8-8v-32c0-4.8-3.2-8-8-8s-8,3.2-8,8v32C224,204.8,227.2,208,232,208z"/>
	<path style="fill:#322153;" d="M360,368c4.8,0,8-3.2,8-8V168c0-4.8-3.2-8-8-8s-8,3.2-8,8v192C352,364.8,355.2,368,360,368z"/>
	<path style="fill:#322153;" d="M208,56c0,13.6,10.4,24,24,24s24-10.4,24-24s-10.4-24-24-24S208,42.4,208,56z M240,56
		c0,4.8-3.2,8-8,8s-8-3.2-8-8s3.2-8,8-8C236.8,48,240,51.2,240,56z"/>
</g>
<g>
</g>
<g>
</g>
<g>
</g>
<g>
</g>
<g>
</g>
<g>
</g>
<g>
</g>
<g>
</g>
<g>
</g>
<g>
</g>
<g>
</g>
<g>
</g>
<g>
</g>
<g>
</g>
<g>
</g>
</svg>
