<?xml version="1.0" encoding="iso-8859-1"?>
<!-- Generator: Adobe Illustrator 19.0.0, SVG Export Plug-In . SVG Version: 6.00 Build 0)  -->
<svg version="1.1" id="Capa_1" xmlns="http://www.w3.org/2000/svg" xmlns:xlink="http://www.w3.org/1999/xlink" x="0px" y="0px"
	 viewBox="0 0 464 464" style="enable-background:new 0 0 464 464;" xml:space="preserve">
<path style="fill:#00F2A9;" d="M424,92H40c-17.6,0-32,14.4-32,32v89.6c0,4,1.6,8,4.8,11.2l16,16c6.4,6.4,6.4,16,0,22.4l-16,16
	c-3.2,3.2-4.8,7.2-4.8,11.2V380c0,17.6,14.4,32,32,32h384c17.6,0,32-14.4,32-32v-89.6c0-4-1.6-8-4.8-11.2l-16-16
	c-6.4-6.4-6.4-16,0-22.4l16-16c3.2-3.2,4.8-7.2,4.8-11.2V124C456,106.4,441.6,92,424,92z"/>
<g>
	<path style="fill:#322153;" d="M424,52H40C17.6,52,0,69.6,0,92v89.6c0,6.4,2.4,12.8,7.2,16.8l16,16c1.6,1.6,2.4,3.2,2.4,5.6
		s-0.8,4-2.4,5.6l-16,16C2.4,246.4,0,252,0,258.4V348c0,22.4,17.6,40,40,40h384c22.4,0,40-17.6,40-40v-89.6c0-6.4-2.4-12.8-7.2-16.8
		l-16-16c-1.6-1.6-2.4-3.2-2.4-5.6s0.8-4,2.4-5.6l16-16c4.8-4.8,7.2-10.4,7.2-16.8V92C464,69.6,446.4,52,424,52z M448,181.6
		c0,2.4-0.8,4-2.4,5.6l-16,16c-9.6,9.6-9.6,24.8,0,33.6l16,16c1.6,1.6,2.4,3.2,2.4,5.6V348c0,13.6-10.4,24-24,24H40
		c-13.6,0-24-10.4-24-24v-89.6c0-2.4,0.8-4,2.4-5.6l16-16c9.6-9.6,9.6-24.8,0-33.6l-16-16c-1.6-1.6-2.4-4-2.4-5.6V92
		c0-13.6,10.4-24,24-24h384c13.6,0,24,10.4,24,24V181.6z"/>
	<path style="fill:#322153;" d="M136,340H72c-4.8,0-8,3.2-8,8s3.2,8,8,8h64c4.8,0,8-3.2,8-8S140.8,340,136,340z"/>
	<path style="fill:#322153;" d="M200,340h-32c-4.8,0-8,3.2-8,8s3.2,8,8,8h32c4.8,0,8-3.2,8-8S204.8,340,200,340z"/>
	<path style="fill:#322153;" d="M328,340h-96c-4.8,0-8,3.2-8,8s3.2,8,8,8h96c4.8,0,8-3.2,8-8S332.8,340,328,340z"/>
	<path style="fill:#322153;" d="M392,340h-32c-4.8,0-8,3.2-8,8s3.2,8,8,8h32c4.8,0,8-3.2,8-8S396.8,340,392,340z"/>
	<path style="fill:#322153;" d="M72,292c4.8,0,8-3.2,8-8V124c0-4.8-3.2-8-8-8s-8,3.2-8,8v160C64,288.8,67.2,292,72,292z"/>
	<path style="fill:#322153;" d="M104,164c4.8,0,8-3.2,8-8v-32c0-4.8-3.2-8-8-8s-8,3.2-8,8v32C96,160.8,99.2,164,104,164z"/>
	<path style="fill:#322153;" d="M136,116c-4.8,0-8,3.2-8,8v160c0,4.8,3.2,8,8,8s8-3.2,8-8V124C144,119.2,140.8,116,136,116z"/>
	<path style="fill:#322153;" d="M168,196c4.8,0,8-3.2,8-8v-64c0-4.8-3.2-8-8-8s-8,3.2-8,8v64C160,192.8,163.2,196,168,196z"/>
	<path style="fill:#322153;" d="M200,116c-4.8,0-8,3.2-8,8v160c0,4.8,3.2,8,8,8s8-3.2,8-8V124C208,119.2,204.8,116,200,116z"/>
	<path style="fill:#322153;" d="M232,228c4.8,0,8-3.2,8-8v-96c0-4.8-3.2-8-8-8s-8,3.2-8,8v96C224,224.8,227.2,228,232,228z"/>
	<path style="fill:#322153;" d="M264,292c4.8,0,8-3.2,8-8V124c0-4.8-3.2-8-8-8s-8,3.2-8,8v160C256,288.8,259.2,292,264,292z"/>
	<path style="fill:#322153;" d="M296,164c4.8,0,8-3.2,8-8v-32c0-4.8-3.2-8-8-8s-8,3.2-8,8v32C288,160.8,291.2,164,296,164z"/>
	<path style="fill:#322153;" d="M328,116c-4.8,0-8,3.2-8,8v96c0,4.8,3.2,8,8,8s8-3.2,8-8v-96C336,119.2,332.8,116,328,116z"/>
	<path style="fill:#322153;" d="M360,292c4.8,0,8-3.2,8-8V124c0-4.8-3.2-8-8-8s-8,3.2-8,8v160C352,288.8,355.2,292,360,292z"/>
	<path style="fill:#322153;" d="M392,116c-4.8,0-8,3.2-8,8v160c0,4.8,3.2,8,8,8s8-3.2,8-8V124C400,119.2,396.8,116,392,116z"/>
	<path style="fill:#322153;" d="M168,292c4.8,0,8-3.2,8-8v-64c0-4.8-3.2-8-8-8s-8,3.2-8,8v64C160,288.8,163.2,292,168,292z"/>
	<path style="fill:#322153;" d="M328,244c-4.8,0-8,3.2-8,8v32c0,4.8,3.2,8,8,8s8-3.2,8-8v-32C336,247.2,332.8,244,328,244z"/>
	<path style="fill:#322153;" d="M232,292c4.8,0,8-3.2,8-8v-32c0-4.8-3.2-8-8-8s-8,3.2-8,8v32C224,288.8,227.2,292,232,292z"/>
	<path style="fill:#322153;" d="M104,292c4.8,0,8-3.2,8-8v-96c0-4.8-3.2-8-8-8s-8,3.2-8,8v96C96,288.8,99.2,292,104,292z"/>
	<path style="fill:#322153;" d="M296,292c4.8,0,8-3.2,8-8v-96c0-4.8-3.2-8-8-8s-8,3.2-8,8v96C288,288.8,291.2,292,296,292z"/>
</g>
<g>
</g>
<g>
</g>
<g>
</g>
<g>
</g>
<g>
</g>
<g>
</g>
<g>
</g>
<g>
</g>
<g>
</g>
<g>
</g>
<g>
</g>
<g>
</g>
<g>
</g>
<g>
</g>
<g>
</g>
</svg>
