<?xml version="1.0" encoding="iso-8859-1"?>
<!-- Generator: Adobe Illustrator 19.0.0, SVG Export Plug-In . SVG Version: 6.00 Build 0)  -->
<svg version="1.1" id="Capa_1" xmlns="http://www.w3.org/2000/svg" xmlns:xlink="http://www.w3.org/1999/xlink" x="0px" y="0px"
	 viewBox="0 0 464 464" style="enable-background:new 0 0 464 464;" xml:space="preserve">
<path style="fill:#00F2A9;" d="M440,40H24c-8.8,0-16,7.2-16,16v32c0,8.8,7.2,16,16,16h336h32h48c8.8,0,16-7.2,16-16V56
	C456,47.2,448.8,40,440,40z"/>
<g>
	<path style="fill:#322153;" d="M280,128h-96c-13.6,0-24,10.4-24,24s10.4,24,24,24h96c13.6,0,24-10.4,24-24S293.6,128,280,128z
		 M280,160h-96c-4.8,0-8-3.2-8-8s3.2-8,8-8h96c4.8,0,8,3.2,8,8S284.8,160,280,160z"/>
	<path style="fill:#322153;" d="M440,0H24C10.4,0,0,10.4,0,24v32c0,13.6,10.4,24,24,24h8v344c0,22.4,17.6,40,40,40h320
		c22.4,0,40-17.6,40-40V80h8c13.6,0,24-10.4,24-24V24C464,10.4,453.6,0,440,0z M440,64h-48c-4.8,0-8,3.2-8,8s3.2,8,8,8h24v344
		c0,13.6-10.4,24-24,24H72c-13.6,0-24-10.4-24-24V80h312c4.8,0,8-3.2,8-8s-3.2-8-8-8H24c-4.8,0-8-3.2-8-8v-8h56c4.8,0,8-3.2,8-8
		s-3.2-8-8-8H16v-8c0-4.8,3.2-8,8-8h416c4.8,0,8,3.2,8,8v8h-56c-4.8,0-8,3.2-8,8s3.2,8,8,8h56v8C448,60.8,444.8,64,440,64z"/>
	<path style="fill:#322153;" d="M258.4,226.4l-64,64c-3.2,3.2-3.2,8,0,11.2c1.6,1.6,4,2.4,5.6,2.4s4-0.8,5.6-2.4l64-64
		c3.2-3.2,3.2-8,0-11.2S261.6,223.2,258.4,226.4z"/>
	<path style="fill:#322153;" d="M200,272c2.4,0,4-0.8,5.6-2.4l32-32c3.2-3.2,3.2-8,0-11.2s-8-3.2-11.2,0l-32,32
		c-3.2,3.2-3.2,8,0,11.2C196,271.2,197.6,272,200,272z"/>
	<path style="fill:#322153;" d="M258.4,258.4l-32,32c-3.2,3.2-3.2,8,0,11.2c1.6,1.6,4,2.4,5.6,2.4s4-0.8,5.6-2.4l32-32
		c3.2-3.2,3.2-8,0-11.2S261.6,255.2,258.4,258.4z"/>
	<path style="fill:#322153;" d="M168,416H72c-4.8,0-8,3.2-8,8s3.2,8,8,8h96c4.8,0,8-3.2,8-8S172.8,416,168,416z"/>
	<path style="fill:#322153;" d="M72,400h64c4.8,0,8-3.2,8-8s-3.2-8-8-8H72c-4.8,0-8,3.2-8,8S67.2,400,72,400z"/>
	<path style="fill:#322153;" d="M320,424c0,4.8,3.2,8,8,8h64c4.8,0,8-3.2,8-8s-3.2-8-8-8h-64C323.2,416,320,419.2,320,424z"/>
</g>
<g>
</g>
<g>
</g>
<g>
</g>
<g>
</g>
<g>
</g>
<g>
</g>
<g>
</g>
<g>
</g>
<g>
</g>
<g>
</g>
<g>
</g>
<g>
</g>
<g>
</g>
<g>
</g>
<g>
</g>
</svg>
