<?xml version="1.0" encoding="iso-8859-1"?>
<!-- Generator: Adobe Illustrator 19.0.0, SVG Export Plug-In . SVG Version: 6.00 Build 0)  -->
<svg version="1.1" id="Capa_1" xmlns="http://www.w3.org/2000/svg" xmlns:xlink="http://www.w3.org/1999/xlink" x="0px" y="0px"
	 viewBox="0 0 463.275 463.275" style="enable-background:new 0 0 463.275 463.275;" xml:space="preserve">
<polygon style="fill:#00F2A9;" points="231.638,295.275 199.638,295.275 199.638,423.275 359.638,423.275 359.638,295.275 
	327.638,295.275 327.638,199.275 231.638,199.275 "/>
<g>
	<path style="fill:#322153;" d="M399.638,407.275c0-13.6-10.4-24-24-24h-8v-120c0-4.8-3.2-8-8-8h-24v-88c0-4.8-3.2-8-8-8h-32h-32
		h-32c-4.8,0-8,3.2-8,8v88h-16v-168c0-13.6-10.4-24-24-24h-8v-5.6c0-31.2-24-56.8-54.4-57.6c-15.2-0.8-29.6,4.8-40.8,16
		c-10.4,9.6-16.8,24-16.8,39.2c0,4.8,3.2,8,8,8s8-3.2,8-8c0-11.2,4-20.8,12-28.8c8-7.2,18.4-11.2,28.8-11.2
		c21.6,0.8,38.4,19.2,38.4,41.6v334.4c-6.4-4.8-15.2-8-24-8c-22.4,0-40,17.6-40,40s17.6,40,40,40c19.2,0,35.2-13.6,39.2-32h181.6
		l29.6,29.6c1.6,1.6,4,2.4,5.6,2.4s4-0.8,5.6-2.4c3.2-3.2,3.2-8,0-11.2l-17.6-18.4C390.838,429.675,399.638,419.275,399.638,407.275
		z M287.638,175.275v8c0,4.8-3.2,8-8,8s-8-3.2-8-8v-8H287.638z M239.638,175.275h16v8c0,13.6,10.4,24,24,24s24-10.4,24-24v-8h16v80
		h-80V175.275z M271.638,271.275h16v40c0,4.8-3.2,8-8,8s-8-3.2-8-8V271.275z M231.638,271.275h24v40c0,13.6,10.4,24,24,24
		s24-10.4,24-24v-40h24h24v112h-144v-112H231.638z M135.638,447.275c-13.6,0-24-10.4-24-24s10.4-24,24-24s24,10.4,24,24
		S149.238,447.275,135.638,447.275z M375.638,415.275h-200v-336h8c4.8,0,8,3.2,8,8v176v128c0,4.8,3.2,8,8,8h160h16c4.8,0,8,3.2,8,8
		S380.438,415.275,375.638,415.275z"/>
	<circle style="fill:#322153;" cx="135.638" cy="423.275" r="8"/>
</g>
<g>
</g>
<g>
</g>
<g>
</g>
<g>
</g>
<g>
</g>
<g>
</g>
<g>
</g>
<g>
</g>
<g>
</g>
<g>
</g>
<g>
</g>
<g>
</g>
<g>
</g>
<g>
</g>
<g>
</g>
</svg>
