<?xml version="1.0" encoding="iso-8859-1"?>
<!-- Generator: Adobe Illustrator 19.0.0, SVG Export Plug-In . SVG Version: 6.00 Build 0)  -->
<svg version="1.1" id="Capa_1" xmlns="http://www.w3.org/2000/svg" xmlns:xlink="http://www.w3.org/1999/xlink" x="0px" y="0px"
	 viewBox="0 0 464.072 464.072" style="enable-background:new 0 0 464.072 464.072;" xml:space="preserve">
<circle style="fill:#00F2A9;" cx="328.072" cy="168.036" r="128"/>
<g>
	<path style="fill:#322153;" d="M452.072,306.436c-11.2-12-30.4-12-41.6,0c-8.8,9.6-19.2,15.2-31.2,18.4l-105.6,19.2
		c1.6-4.8,1.6-9.6,0.8-14.4c-1.6-9.6-7.2-17.6-15.2-21.6l-65.6-37.6c-16-8.8-35.2-9.6-51.2-0.8l-51.2,26.4l-11.2-33.6
		c-1.6-4-4.8-6.4-8-6.4h-64c-2.4,0-4.8,1.6-6.4,3.2c-1.6,2.4-2.4,4.8-0.8,7.2l64,192c0.8,3.2,4,5.6,7.2,5.6h64
		c2.4,0,4.8-1.6,6.4-3.2c1.6-2.4,1.6-4.8,0.8-7.2l-17.6-53.6h4.8l88.8,31.2c0.8,0,1.6,0.8,2.4,0.8c0.8,0,0.8,0,1.6,0l116.8-20.8
		c42.4-8,81.6-28.8,112-61.6C462.472,337.636,462.472,318.436,452.072,306.436z M77.672,448.036l-58.4-176h47.2l58.4,176H77.672z
		 M440.072,338.436c-28,30.4-64,49.6-103.2,56.8l-114.4,20.8l-88-31.2c-0.8,0-1.6-0.8-2.4-0.8h-11.2l-24.8-73.6c0,0,0,0,0.8,0
		l53.6-27.2c11.2-5.6,24.8-5.6,36,0.8l65.6,37.6c4,2.4,6.4,5.6,7.2,10.4c0.8,4.8-0.8,9.6-4,12.8c-1.6,1.6-3.2,2.4-4.8,3.2l-4.8,0.8
		c-0.8,0-2.4,0-3.2-0.8l-77.6-27.2c-4-1.6-8.8,0.8-10.4,4.8c-1.6,4,0.8,8.8,4.8,10.4l77.6,27.2c3.2,0.8,6.4,1.6,9.6,1.6
		c0.8,0,0.8,0,1.6,0l0,0h0.8c1.6,0,3.2-0.8,4.8-0.8l128.8-23.2c15.2-3.2,28.8-11.2,40-22.4c4.8-5.6,13.6-5.6,18.4,0
		C445.672,323.236,445.672,332.836,440.072,338.436z"/>
	<path style="fill:#322153;" d="M328.072,0.036c-75.2,0-136,60.8-136,136s60.8,136,136,136s136-60.8,136-136
		S403.272,0.036,328.072,0.036z M328.072,256.036c-66.4,0-120-53.6-120-120s53.6-120,120-120s120,53.6,120,120
		S394.472,256.036,328.072,256.036z"/>
	<path style="fill:#322153;" d="M328.072,32.036c-57.6,0-104,46.4-104,104s46.4,104,104,104s104-46.4,104-104
		S385.672,32.036,328.072,32.036z M328.072,224.036c-48.8,0-88-39.2-88-88s39.2-88,88-88s88,39.2,88,88
		S376.872,224.036,328.072,224.036z"/>
	<path style="fill:#322153;" d="M354.472,98.436l-64,64c-3.2,3.2-3.2,8,0,11.2c1.6,1.6,4,2.4,5.6,2.4s4-0.8,5.6-2.4l64-64
		c3.2-3.2,3.2-8,0-11.2S357.672,95.236,354.472,98.436z"/>
	<path style="fill:#322153;" d="M296.072,144.036c2.4,0,4-0.8,5.6-2.4l32-32c3.2-3.2,3.2-8,0-11.2s-8-3.2-11.2,0l-32,32
		c-3.2,3.2-3.2,8,0,11.2C292.072,143.236,293.672,144.036,296.072,144.036z"/>
	<path style="fill:#322153;" d="M354.472,130.436l-32,32c-3.2,3.2-3.2,8,0,11.2c1.6,1.6,4,2.4,5.6,2.4s4-0.8,5.6-2.4l32-32
		c3.2-3.2,3.2-8,0-11.2C362.472,127.236,357.672,127.236,354.472,130.436z"/>
	<circle style="fill:#322153;" cx="96.072" cy="424.036" r="8"/>
</g>
<g>
</g>
<g>
</g>
<g>
</g>
<g>
</g>
<g>
</g>
<g>
</g>
<g>
</g>
<g>
</g>
<g>
</g>
<g>
</g>
<g>
</g>
<g>
</g>
<g>
</g>
<g>
</g>
<g>
</g>
</svg>
