<?xml version="1.0" encoding="iso-8859-1"?>
<!-- Generator: Adobe Illustrator 19.0.0, SVG Export Plug-In . SVG Version: 6.00 Build 0)  -->
<svg version="1.1" id="Capa_1" xmlns="http://www.w3.org/2000/svg" xmlns:xlink="http://www.w3.org/1999/xlink" x="0px" y="0px"
	 viewBox="0 0 464 464" style="enable-background:new 0 0 464 464;" xml:space="preserve">
<circle style="fill:#00F2A9;" cx="232" cy="296" r="160"/>
<g>
	<path style="fill:#322153;" d="M232,432c92.8,0,168-75.2,168-168S324.8,96,232,96S64,171.2,64,264S139.2,432,232,432z M232,112
		c84,0,152,68,152,152s-68,152-152,152S80,348,80,264S148,112,232,112z"/>
	<path style="fill:#322153;" d="M160.8,324c-1.6,3.2-1.6,7.2,1.6,9.6c1.6,1.6,3.2,2.4,5.6,2.4c1.6,0,3.2,0,4-0.8l80-48
		c0,0,0,0,0.8-0.8c0,0,0.8,0,0.8-0.8s0.8-0.8,0.8-0.8s0.8,0,0.8-0.8l48-80c1.6-3.2,1.6-7.2-1.6-9.6c-2.4-2.4-6.4-3.2-9.6-1.6l-80,48
		c0,0,0,0-0.8,0.8c0,0-0.8,0-0.8,0.8s-0.8,0.8-0.8,0.8s-0.8,0-0.8,0.8L160.8,324z M217.6,260.8l17.6,17.6l-44,26.4L217.6,260.8z
		 M246.4,267.2l-17.6-17.6l44-26.4L246.4,267.2z"/>
	<circle style="fill:#322153;" cx="232" cy="136" r="8"/>
	<circle style="fill:#322153;" cx="232" cy="392" r="8"/>
	<circle style="fill:#322153;" cx="360" cy="264" r="8"/>
	<circle style="fill:#322153;" cx="104" cy="264" r="8"/>
	<ellipse style="fill:#322153;" cx="322.51" cy="173.648" rx="8" ry="8"/>
	<ellipse style="fill:#322153;" cx="141.486" cy="354.343" rx="8" ry="8"/>
	<ellipse style="fill:#322153;" cx="322.346" cy="354.467" rx="8" ry="8"/>
	<ellipse style="fill:#322153;" cx="141.643" cy="173.491" rx="8" ry="8"/>
	<path style="fill:#322153;" d="M232,464c110.4,0,200-89.6,200-200c0-107.2-85.6-195.2-192-200V46.4c9.6-3.2,16-12,16-22.4
		c0-13.6-10.4-24-24-24s-24,10.4-24,24c0,10.4,6.4,19.2,16,22.4V64C117.6,68.8,32,156.8,32,264C32,374.4,121.6,464,232,464z M232,16
		c4.8,0,8,3.2,8,8s-3.2,8-8,8s-8-3.2-8-8S227.2,16,232,16z M232,80c101.6,0,184,82.4,184,184s-82.4,184-184,184S48,365.6,48,264
		S130.4,80,232,80z"/>
	<path style="fill:#322153;" d="M194.4,237.6c1.6,1.6,4,2.4,5.6,2.4s4-0.8,5.6-2.4c3.2-3.2,3.2-8,0-11.2l-32-32
		c-3.2-3.2-8-3.2-11.2,0s-3.2,8,0,11.2L194.4,237.6z"/>
	<path style="fill:#322153;" d="M269.6,290.4c-3.2-3.2-8-3.2-11.2,0s-3.2,8,0,11.2l32,32c1.6,1.6,4,2.4,5.6,2.4s4-0.8,5.6-2.4
		c3.2-3.2,3.2-8,0-11.2L269.6,290.4z"/>
</g>
<g>
</g>
<g>
</g>
<g>
</g>
<g>
</g>
<g>
</g>
<g>
</g>
<g>
</g>
<g>
</g>
<g>
</g>
<g>
</g>
<g>
</g>
<g>
</g>
<g>
</g>
<g>
</g>
<g>
</g>
</svg>
