<?xml version="1.0" encoding="iso-8859-1"?>
<!-- Generator: Adobe Illustrator 19.0.0, SVG Export Plug-In . SVG Version: 6.00 Build 0)  -->
<svg version="1.1" id="Capa_1" xmlns="http://www.w3.org/2000/svg" xmlns:xlink="http://www.w3.org/1999/xlink" x="0px" y="0px"
	 viewBox="0 0 464 464" style="enable-background:new 0 0 464 464;" xml:space="preserve">
<path style="fill:#00F2A9;" d="M408,200h-64v32h48c8.8,0,16,7.2,16,16v64c0,8.8-7.2,16-16,16h-48v32h64c17.6,0,32-14.4,32-32v-96
	C440,214.4,425.6,200,408,200z"/>
<g>
	<path style="fill:#322153;" d="M408,160h-56v-8c0-13.6-10.4-24-24-24H40c-13.6,0-24,10.4-24,24v140c0,92,72.8,168.8,161.6,172
		c2.4,0,4,0,6.4,0c44,0,84.8-16.8,116.8-47.2c23.2-22.4,39.2-50.4,46.4-80.8H408c22.4,0,40-17.6,40-40v-96
		C448,177.6,430.4,160,408,160z M352,208h40c4.8,0,8,3.2,8,8v64c0,4.8-3.2,8-8,8h-40V208z M289.6,405.6
		c-29.6,28.8-69.6,44-111.2,42.4C97.6,444.8,32,375.2,32,292V152c0-4.8,3.2-8,8-8h288c4.8,0,8,3.2,8,8v16v32v96
		C336,337.6,319.2,376.8,289.6,405.6z M432,296c0,13.6-10.4,24-24,24h-56v-16h40c13.6,0,24-10.4,24-24v-64c0-13.6-10.4-24-24-24h-40
		v-16h56c13.6,0,24,10.4,24,24V296z"/>
	<path style="fill:#322153;" d="M184,416c-66.4,0-120-53.6-120-120c0-4.8-3.2-8-8-8s-8,3.2-8,8c0,75.2,60.8,136,136,136
		c4.8,0,8-3.2,8-8S188.8,416,184,416z"/>
	<path style="fill:#322153;" d="M210.4,226.4l-64,64c-3.2,3.2-3.2,8,0,11.2c1.6,1.6,4,2.4,5.6,2.4s4-0.8,5.6-2.4l64-64
		c3.2-3.2,3.2-8,0-11.2S213.6,223.2,210.4,226.4z"/>
	<path style="fill:#322153;" d="M152,272c2.4,0,4-0.8,5.6-2.4l32-32c3.2-3.2,3.2-8,0-11.2s-8-3.2-11.2,0l-32,32
		c-3.2,3.2-3.2,8,0,11.2C148,271.2,149.6,272,152,272z"/>
	<path style="fill:#322153;" d="M210.4,258.4l-32,32c-3.2,3.2-3.2,8,0,11.2c1.6,1.6,4,2.4,5.6,2.4s4-0.8,5.6-2.4l32-32
		c3.2-3.2,3.2-8,0-11.2S213.6,255.2,210.4,258.4z"/>
	<path style="fill:#322153;" d="M192,104V8c0-4.8-3.2-8-8-8s-8,3.2-8,8v96c0,4.8,3.2,8,8,8S192,108.8,192,104z"/>
	<path style="fill:#322153;" d="M128,72V40c0-4.8-3.2-8-8-8s-8,3.2-8,8v32c0,4.8,3.2,8,8,8S128,76.8,128,72z"/>
	<path style="fill:#322153;" d="M256,72V40c0-4.8-3.2-8-8-8s-8,3.2-8,8v32c0,4.8,3.2,8,8,8S256,76.8,256,72z"/>
	<path style="fill:#322153;" d="M160,104V40c0-4.8-3.2-8-8-8s-8,3.2-8,8v64c0,4.8,3.2,8,8,8S160,108.8,160,104z"/>
	<path style="fill:#322153;" d="M224,72V8c0-4.8-3.2-8-8-8s-8,3.2-8,8v64c0,4.8,3.2,8,8,8C220.8,80,224,76.8,224,72z"/>
</g>
<g>
</g>
<g>
</g>
<g>
</g>
<g>
</g>
<g>
</g>
<g>
</g>
<g>
</g>
<g>
</g>
<g>
</g>
<g>
</g>
<g>
</g>
<g>
</g>
<g>
</g>
<g>
</g>
<g>
</g>
</svg>
