<?xml version="1.0" encoding="iso-8859-1"?>
<!-- Generator: Adobe Illustrator 19.0.0, SVG Export Plug-In . SVG Version: 6.00 Build 0)  -->
<svg version="1.1" id="Capa_1" xmlns="http://www.w3.org/2000/svg" xmlns:xlink="http://www.w3.org/1999/xlink" x="0px" y="0px"
	 viewBox="0 0 464 464" style="enable-background:new 0 0 464 464;" xml:space="preserve">
<g>
	<circle style="fill:#00F2A9;" cx="104" cy="348" r="32"/>
	<circle style="fill:#00F2A9;" cx="360" cy="348" r="32"/>
	<polygon style="fill:#00F2A9;" points="360,188 328,188 328,252 392,252 	"/>
</g>
<g>
	<path style="fill:#322153;" d="M430.4,183.2L408,138.4c-7.2-13.6-20.8-22.4-36-22.4h-68v-8c0-13.6-10.4-24-24-24H24
		C10.4,84,0,94.4,0,108v176v32c0,4.8,3.2,8,8,8h56.8c4,18.4,20,32,39.2,32s35.2-13.6,39.2-32h177.6c4,18.4,20,32,39.2,32
		s35.2-13.6,39.2-32H456c4.8,0,8-3.2,8-8v-32v-64c0-2.4-0.8-4-2.4-5.6L430.4,183.2z M393.6,145.6l23.2,46.4c0,0.8,0.8,1.6,1.6,2.4
		L448,224v20h-24c-4.8,0-8,3.2-8,8s3.2,8,8,8h24v16h-24c-1.6,0-2.4,0-3.2,0.8c-13.6-20-35.2-32.8-60.8-32.8c-4.8,0-8,3.2-8,8
		s3.2,8,8,8c28,0,51.2,20.8,55.2,48h-16c-4-18.4-20-32-39.2-32h-56V132h68C381.6,132,389.6,136.8,393.6,145.6z M24,100h256
		c4.8,0,8,3.2,8,8v16v24h-24c-4.8,0-8,3.2-8,8s3.2,8,8,8h24v16h-56c-4.8,0-8,3.2-8,8s3.2,8,8,8h56v16h-24c-4.8,0-8,3.2-8,8
		c0,4.8,3.2,8,8,8h24v48H168c-4.8,0-8,3.2-8,8s3.2,8,8,8h128h32c-3.2,4.8-6.4,10.4-7.2,16H143.2c-4-18.4-20-32-39.2-32
		s-35.2,13.6-39.2,32h-16c4-27.2,27.2-48,55.2-48c4.8,0,8-3.2,8-8s-3.2-8-8-8c-25.6,0-47.2,12.8-60.8,32.8c-0.8-0.8-1.6-0.8-3.2-0.8
		H16V108C16,103.2,19.2,100,24,100z M16,292h20c-1.6,4.8-3.2,10.4-4,16H16V292z M104,340c-13.6,0-24-10.4-24-24s10.4-24,24-24
		s24,10.4,24,24S117.6,340,104,340z M360,340c-13.6,0-24-10.4-24-24s10.4-24,24-24s24,10.4,24,24S373.6,340,360,340z M448,308h-16.8
		c-0.8-5.6-1.6-11.2-4-16H448V308z"/>
	<path style="fill:#322153;" d="M72,228c2.4,0,4-0.8,5.6-2.4l64-64c3.2-3.2,3.2-8,0-11.2s-8-3.2-11.2,0l-64,64
		c-3.2,3.2-3.2,8,0,11.2C68,227.2,69.6,228,72,228z"/>
	<path style="fill:#322153;" d="M130.4,182.4l-32,32c-3.2,3.2-3.2,8,0,11.2c1.6,1.6,4,2.4,5.6,2.4s4-0.8,5.6-2.4l32-32
		c3.2-3.2,3.2-8,0-11.2S133.6,179.2,130.4,182.4z"/>
	<path style="fill:#322153;" d="M72,196c2.4,0,4-0.8,5.6-2.4l32-32c3.2-3.2,3.2-8,0-11.2s-8-3.2-11.2,0l-32,32
		c-3.2,3.2-3.2,8,0,11.2C68,195.2,69.6,196,72,196z"/>
	<path style="fill:#322153;" d="M328,228h64c2.4,0,5.6-1.6,7.2-4s1.6-5.6,0-8l-32-64c-1.6-2.4-4-4-7.2-4h-32c-4.8,0-8,3.2-8,8v64
		C320,224.8,323.2,228,328,228z M336,164h19.2l24,48H336V164z"/>
</g>
<g>
</g>
<g>
</g>
<g>
</g>
<g>
</g>
<g>
</g>
<g>
</g>
<g>
</g>
<g>
</g>
<g>
</g>
<g>
</g>
<g>
</g>
<g>
</g>
<g>
</g>
<g>
</g>
<g>
</g>
</svg>
