<?xml version="1.0" encoding="iso-8859-1"?>
<!-- Generator: Adobe Illustrator 19.0.0, SVG Export Plug-In . SVG Version: 6.00 Build 0)  -->
<svg version="1.1" id="Capa_1" xmlns="http://www.w3.org/2000/svg" xmlns:xlink="http://www.w3.org/1999/xlink" x="0px" y="0px"
	 viewBox="0 0 488 488" style="enable-background:new 0 0 488 488;" xml:space="preserve">
<path style="fill:#00F2A9;" d="M404,360h-96c0,35.2-28.8,64-64,64s-64-28.8-64-64H84c-17.6,0-32,14.4-32,32v64c0,17.6,14.4,32,32,32
	h320c17.6,0,32-14.4,32-32v-64C436,374.4,421.6,360,404,360z"/>
<g>
	<path style="fill:#322153;" d="M379.2,68.8c-0.8-0.8-0.8-1.6-1.6-2.4l-64-64c-0.8-0.8-1.6-1.6-2.4-1.6C310.4,0,308.8,0,308,0H148
		c-22.4,0-40,17.6-40,40v280H84c-22.4,0-40,17.6-40,40v64c0,22.4,17.6,40,40,40h320c22.4,0,40-17.6,40-40v-64c0-22.4-17.6-40-40-40
		h-24V72C380,71.2,380,69.6,379.2,68.8z M316,27.2L352.8,64H340c-13.6,0-24-10.4-24-24V27.2z M426.4,352H404c-4.8,0-8,3.2-8,8
		s3.2,8,8,8h24v16h-56c-4.8,0-8,3.2-8,8s3.2,8,8,8h56v16h-24c-4.8,0-8,3.2-8,8s3.2,8,8,8h22.4c-3.2,9.6-12,16-22.4,16H84
		c-13.6,0-24-10.4-24-24v-64c0-13.6,10.4-24,24-24h88.8c4,36,34.4,64,71.2,64s67.2-28,71.2-64H404C414.4,336,423.2,342.4,426.4,352z
		 M308,320c-4.8,0-8,3.2-8,8c0,31.2-24.8,56-56,56c-28,0-51.2-20.8-55.2-48H276c4.8,0,8-3.2,8-8s-3.2-8-8-8H124V40
		c0-13.6,10.4-24,24-24h152v24c0,22.4,17.6,40,40,40h24v240H308z"/>
	<path style="fill:#322153;" d="M180,80h64c4.8,0,8-3.2,8-8s-3.2-8-8-8h-64c-4.8,0-8,3.2-8,8S175.2,80,180,80z"/>
	<path style="fill:#322153;" d="M308,128H180c-4.8,0-8,3.2-8,8s3.2,8,8,8h128c4.8,0,8-3.2,8-8S312.8,128,308,128z"/>
	<path style="fill:#322153;" d="M180,176h32c4.8,0,8-3.2,8-8s-3.2-8-8-8h-32c-4.8,0-8,3.2-8,8S175.2,176,180,176z"/>
	<path style="fill:#322153;" d="M308,160h-64c-4.8,0-8,3.2-8,8s3.2,8,8,8h64c4.8,0,8-3.2,8-8S312.8,160,308,160z"/>
	<path style="fill:#322153;" d="M180,208h64c4.8,0,8-3.2,8-8s-3.2-8-8-8h-64c-4.8,0-8,3.2-8,8S175.2,208,180,208z"/>
	<path style="fill:#322153;" d="M308,192h-32c-4.8,0-8,3.2-8,8s3.2,8,8,8h32c4.8,0,8-3.2,8-8S312.8,192,308,192z"/>
	<path style="fill:#322153;" d="M308,224H180c-4.8,0-8,3.2-8,8c0,4.8,3.2,8,8,8h128c4.8,0,8-3.2,8-8S312.8,224,308,224z"/>
	<path style="fill:#322153;" d="M244,256h-64c-4.8,0-8,3.2-8,8s3.2,8,8,8h64c4.8,0,8-3.2,8-8S248.8,256,244,256z"/>
	<path style="fill:#322153;" d="M308,256h-32c-4.8,0-8,3.2-8,8s3.2,8,8,8h32c4.8,0,8-3.2,8-8S312.8,256,308,256z"/>
	<path style="fill:#322153;" d="M142.4,354.4l-64,64c-3.2,3.2-3.2,8,0,11.2c1.6,1.6,4,2.4,5.6,2.4s4-0.8,5.6-2.4l64-64
		c3.2-3.2,3.2-8,0-11.2S145.6,351.2,142.4,354.4z"/>
	<path style="fill:#322153;" d="M84,400c2.4,0,4-0.8,5.6-2.4l32-32c3.2-3.2,3.2-8,0-11.2s-8-3.2-11.2,0l-32,32
		c-3.2,3.2-3.2,8,0,11.2C80,399.2,81.6,400,84,400z"/>
	<path style="fill:#322153;" d="M142.4,386.4l-32,32c-3.2,3.2-3.2,8,0,11.2c1.6,1.6,4,2.4,5.6,2.4s4-0.8,5.6-2.4l32-32
		c3.2-3.2,3.2-8,0-11.2S145.6,383.2,142.4,386.4z"/>
</g>
<g>
</g>
<g>
</g>
<g>
</g>
<g>
</g>
<g>
</g>
<g>
</g>
<g>
</g>
<g>
</g>
<g>
</g>
<g>
</g>
<g>
</g>
<g>
</g>
<g>
</g>
<g>
</g>
<g>
</g>
</svg>
