<?xml version="1.0" encoding="iso-8859-1"?>
<!-- Generator: Adobe Illustrator 19.0.0, SVG Export Plug-In . SVG Version: 6.00 Build 0)  -->
<svg version="1.1" id="Capa_1" xmlns="http://www.w3.org/2000/svg" xmlns:xlink="http://www.w3.org/1999/xlink" x="0px" y="0px"
	 viewBox="0 0 464 464" style="enable-background:new 0 0 464 464;" xml:space="preserve">
<path style="fill:#00F2A9;" d="M420.8,285.6l0.8-1.6c1.6-4.8,2.4-10.4,2.4-16c0-26.4-21.6-48-48-48c-6.4,0-13.6,1.6-19.2,4v-1.6
	c-13.6-56-64-98.4-124.8-98.4c-36.8,0-70.4,16-93.6,40.8l-0.8,0.8C128,159.2,116,156,104,156c-35.2,0-64,28.8-64,64
	c0,12.8,4,24.8,10.4,34.4l0.8,0.8C25.6,264,8,288,8,316c0,35.2,28.8,64,64,64h336c26.4,0,48-21.6,48-48
	C456,309.6,440.8,291.2,420.8,285.6z"/>
<g>
	<path style="fill:#322153;" d="M430.4,248.8c0.8-4,1.6-8,1.6-12.8c0-31.2-24.8-56-56-56c-4.8,0-9.6,0.8-13.6,1.6
		C345.6,124,292.8,84,232,84c-36,0-70.4,14.4-96,40c-9.6-4.8-20.8-8-32-8c-40,0-72,32-72,72c0,11.2,2.4,21.6,7.2,32
		C16,232,0,256,0,284c0,40,32,72,72,72h336c31.2,0,56-24.8,56-56C464,276.8,450.4,257.6,430.4,248.8z M408,340H72
		c-31.2,0-56-24.8-56-56s24.8-56,56-56c4.8,0,8-3.2,8-8s-3.2-8-8-8c-5.6,0-12,0.8-17.6,2.4c-4-8-6.4-16.8-6.4-26.4
		c0-31.2,24.8-56,56-56s56,24.8,56,56c0,4.8,3.2,8,8,8s8-3.2,8-8c0-22.4-10.4-42.4-26.4-55.2C172,112,201.6,100,232,100
		c54.4,0,100.8,36,115.2,88c-16.8,9.6-27.2,28-27.2,48c0,4.8,3.2,8,8,8s8-3.2,8-8c0-22.4,17.6-40,40-40s40,17.6,40,40
		c0,3.2-0.8,5.6-0.8,8.8c-2.4-0.8-4.8-0.8-7.2-0.8c-4.8,0-8,3.2-8,8s3.2,8,8,8c22.4,0,40,17.6,40,40S430.4,340,408,340z"/>
	<path style="fill:#322153;" d="M104,148c-4.8,0-8,3.2-8,8s3.2,8,8,8c13.6,0,24,10.4,24,24c0,4.8,3.2,8,8,8s8-3.2,8-8
		C144,165.6,126.4,148,104,148z"/>
	<path style="fill:#322153;" d="M72,308c-13.6,0-24-10.4-24-24c0-4.8-3.2-8-8-8s-8,3.2-8,8c0,22.4,17.6,40,40,40c4.8,0,8-3.2,8-8
		S76.8,308,72,308z"/>
	<path style="fill:#322153;" d="M269.6,214.4c-3.2-3.2-8-3.2-11.2,0L232,240.8l-26.4-26.4c-3.2-3.2-8-3.2-11.2,0s-3.2,8,0,11.2
		l26.4,26.4l-26.4,26.4c-3.2,3.2-3.2,8,0,11.2c1.6,1.6,4,2.4,5.6,2.4s4-0.8,5.6-2.4l26.4-26.4l26.4,26.4c1.6,1.6,4,2.4,5.6,2.4
		s4-0.8,5.6-2.4c3.2-3.2,3.2-8,0-11.2L243.2,252l26.4-26.4C272.8,222.4,272.8,217.6,269.6,214.4z"/>
</g>
<g>
</g>
<g>
</g>
<g>
</g>
<g>
</g>
<g>
</g>
<g>
</g>
<g>
</g>
<g>
</g>
<g>
</g>
<g>
</g>
<g>
</g>
<g>
</g>
<g>
</g>
<g>
</g>
<g>
</g>
</svg>
