<?xml version="1.0" encoding="iso-8859-1"?>
<!-- Generator: Adobe Illustrator 19.0.0, SVG Export Plug-In . SVG Version: 6.00 Build 0)  -->
<svg version="1.1" id="Capa_1" xmlns="http://www.w3.org/2000/svg" xmlns:xlink="http://www.w3.org/1999/xlink" x="0px" y="0px"
	 viewBox="0 0 464 464" style="enable-background:new 0 0 464 464;" xml:space="preserve">
<path style="fill:#00F2A9;" d="M344,232h-16v64c0,41.6-26.4,77.6-64,90.4V424h96l32-224c0-67.2-72-160-160-160S72,111.2,72,200
	l32,224h96v-37.6c-37.6-12.8-64-48.8-64-90.4v-64h-16c-4,0-8-1.6-11.2-4.8c-3.2-2.4-4.8-6.4-4.8-11.2c0-8.8,7.2-16,16-16h16v-32h32
	c0,0,96,0.8,96-64c0,0,0,64,64,64v32h16c8.8,0,16,7.2,16,16c0,4.8-1.6,8.8-4.8,11.2C352,230.4,348,232,344,232z"/>
<g>
	<path style="fill:#322153;" d="M205.6,290.4c-3.2-3.2-8-3.2-11.2,0c-3.2,3.2-3.2,8,0,11.2c10.4,10.4,24,15.2,37.6,15.2
		c13.6,0,27.2-4.8,37.6-15.2c3.2-3.2,3.2-8,0-11.2s-8-3.2-11.2,0C244,304.8,220,304.8,205.6,290.4z"/>
	<path style="fill:#322153;" d="M232,272c4.8,0,8-3.2,8-8s-3.2-8-8-8c-3.2,0-4.8-2.4-4.8-3.2s-0.8-3.2,0.8-5.6
		c7.2-7.2,12-17.6,12-28V200c0-4.8-3.2-8-8-8s-8,3.2-8,8v18.4c0,6.4-2.4,12.8-7.2,16.8c-6.4,6.4-8,15.2-4.8,23.2
		C216,267.2,223.2,272,232,272z"/>
	<circle style="fill:#322153;" cx="192" cy="192" r="8"/>
	<path style="fill:#322153;" d="M208,168c0-4.8-3.2-8-8-8h-32c-4.8,0-8,3.2-8,8s3.2,8,8,8h32C204.8,176,208,172.8,208,168z"/>
	<circle style="fill:#322153;" cx="288" cy="192" r="8"/>
	<path style="fill:#322153;" d="M264,176h32c4.8,0,8-3.2,8-8s-3.2-8-8-8h-32c-4.8,0-8,3.2-8,8S259.2,176,264,176z"/>
	<path style="fill:#322153;" d="M64,424v32c0,4.8,3.2,8,8,8h96c4.8,0,8-3.2,8-8s-3.2-8-8-8H80v-24c0-4,1.6-24,24-24h64h24.8
		c4,18.4,20,32,39.2,32s35.2-13.6,39.2-32H288v20.8l-7.2,7.2c-12.8,12.8-30.4,20-48.8,20s-36-7.2-48.8-20l-9.6-9.6
		c-3.2-3.2-8-3.2-11.2,0c-3.2,3.2-3.2,8,0,11.2l9.6,9.6c16,16,37.6,24.8,60,24.8s44-8.8,60-24.8l9.6-9.6c1.6-1.6,2.4-3.2,2.4-5.6
		v-24h56l0,0c0,0,11.2,0,17.6,6.4c4,4,6.4,9.6,6.4,17.6v24h-88c-4.8,0-8,3.2-8,8s3.2,8,8,8h96c4.8,0,8-3.2,8-8v-32
		c0-12-4-21.6-11.2-28.8c-6.4-6.4-14.4-8.8-20-10.4l31.2-216V168C400,92,322.4,0,232,0C139.2,0,64,75.2,64,168v0.8l31.2,216
		C70.4,389.6,64,412,64,424z M128,192h-8c-2.4,0-4-0.8-5.6-2.4c-1.6-1.6-2.4-3.2-2.4-5.6c0-4.8,3.2-8,8-8h8V192z M144,200v-32v-24
		h24c2.4,0,57.6,0,86.4-28.8c3.2-3.2,6.4-7.2,8.8-11.2c8.8,19.2,25.6,36.8,56.8,39.2v24v32v64c0,4.8,0,9.6-0.8,13.6
		c-4.8,31.2-27.2,58.4-57.6,68.8c-18.4,6.4-40,6.4-58.4,0c-36-11.2-59.2-44-59.2-81.6V200z M336,176h8c4.8,0,8,3.2,8,8
		c0,2.4-0.8,4-2.4,5.6c-1.6,1.6-3.2,2.4-5.6,2.4h-8V176z M232,416c-13.6,0-24-10.4-24-24v-27.2c8,1.6,16,3.2,24,3.2s16-0.8,24-3.2
		V392C256,405.6,245.6,416,232,416z M232,16c86.4,0,151.2,92,152,151.2L352.8,384H296h-24v-24l0,0c0.8,0,0.8,0,0.8-0.8
		c0.8-0.8,2.4-0.8,3.2-1.6c1.6-0.8,2.4-1.6,4-1.6c0.8-0.8,2.4-0.8,3.2-1.6c1.6-0.8,2.4-1.6,4-2.4c0.8-0.8,2.4-1.6,3.2-1.6
		c0.8-0.8,2.4-1.6,3.2-2.4c0.8-0.8,1.6-1.6,3.2-2.4c0.8-0.8,2.4-1.6,3.2-2.4c0.8-0.8,1.6-1.6,2.4-2.4s2.4-1.6,3.2-3.2
		c0.8-0.8,1.6-1.6,2.4-2.4s1.6-2.4,2.4-3.2s1.6-1.6,2.4-2.4s1.6-2.4,2.4-3.2c0.8-0.8,1.6-1.6,2.4-3.2c0.8-0.8,1.6-2.4,2.4-3.2
		c0.8-0.8,1.6-1.6,1.6-3.2c0.8-1.6,1.6-2.4,2.4-4c0.8-0.8,0.8-2.4,1.6-3.2c0.8-1.6,0.8-2.4,1.6-4c0.8-0.8,0.8-2.4,1.6-3.2
		c0.8-1.6,0.8-2.4,1.6-4c0-0.8,0.8-2.4,0.8-3.2c0.8-1.6,0.8-3.2,1.6-4c0-0.8,0.8-2.4,0.8-3.2c0-1.6,0.8-3.2,0.8-4.8
		c0-0.8,0.8-2.4,0.8-3.2c0-1.6,0.8-3.2,0.8-5.6c0-0.8,0-1.6,0-2.4c0-2.4,0-5.6,0-8v-56h8c6.4,0,12.8-2.4,16.8-7.2
		c4.8-4.8,7.2-10.4,7.2-16.8c0-13.6-10.4-24-24-24h-8v-24c0-4.8-3.2-8-8-8c-55.2,0-56-53.6-56-56c0-4.8-3.2-8-8-8s-8,3.2-8,8
		c0,12.8-4,23.2-12.8,32c-24,24-74.4,24-75.2,24h-32c-4.8,0-8,3.2-8,8v24h-8c-13.6,0-24,10.4-24,24c0,6.4,2.4,12.8,7.2,16.8
		c4.8,4.8,10.4,7.2,16.8,7.2h8v56c0,2.4,0,5.6,0,8c0,0.8,0,1.6,0,2.4c0,1.6,0,3.2,0.8,5.6c0,0.8,0,2.4,0.8,3.2
		c0,1.6,0.8,3.2,0.8,4.8c0,0.8,0.8,2.4,0.8,3.2c0,1.6,0.8,3.2,0.8,4s0.8,2.4,0.8,3.2c0.8,1.6,0.8,2.4,1.6,4c0.8,0.8,0.8,2.4,1.6,3.2
		c0.8,1.6,0.8,2.4,1.6,4c0.8,0.8,0.8,2.4,1.6,3.2c0.8,1.6,1.6,2.4,1.6,3.2c0.8,0.8,1.6,2.4,1.6,3.2c0.8,0.8,1.6,2.4,2.4,3.2
		c0.8,0.8,1.6,2.4,2.4,3.2c0.8,0.8,1.6,2.4,2.4,3.2c0.8,0.8,1.6,1.6,2.4,3.2c0.8,0.8,1.6,1.6,2.4,3.2c0.8,0.8,1.6,1.6,2.4,3.2
		c0.8,0.8,1.6,1.6,2.4,2.4c0.8,0.8,1.6,1.6,3.2,2.4c0.8,0.8,1.6,1.6,3.2,2.4c0.8,0.8,2.4,1.6,3.2,2.4c0.8,0.8,2.4,1.6,3.2,2.4
		c0.8,0.8,2.4,1.6,3.2,2.4c0.8,0.8,2.4,1.6,3.2,1.6c0.8,0.8,2.4,1.6,3.2,1.6c0.8,0.8,2.4,0.8,4,1.6c0.8,0.8,2.4,0.8,3.2,1.6
		c0,0,0.8,0,0.8,0.8l0,0v24h-24h-56.8L80,167.2C80,84,148,16,232,16z"/>
	<path style="fill:#322153;" d="M168,112c2.4,0,4-0.8,5.6-2.4l64-64c3.2-3.2,3.2-8,0-11.2s-8-3.2-11.2,0l-64,64
		c-3.2,3.2-3.2,8,0,11.2C164,111.2,165.6,112,168,112z"/>
	<path style="fill:#322153;" d="M168,80c2.4,0,4-0.8,5.6-2.4l32-32c3.2-3.2,3.2-8,0-11.2c-3.2-3.2-8-3.2-11.2,0l-32,32
		c-3.2,3.2-3.2,8,0,11.2C164,79.2,165.6,80,168,80z"/>
	<path style="fill:#322153;" d="M226.4,66.4l-32,32c-3.2,3.2-3.2,8,0,11.2c1.6,1.6,4,2.4,5.6,2.4s4-0.8,5.6-2.4l32-32
		c3.2-3.2,3.2-8,0-11.2S229.6,63.2,226.4,66.4z"/>
</g>
<g>
</g>
<g>
</g>
<g>
</g>
<g>
</g>
<g>
</g>
<g>
</g>
<g>
</g>
<g>
</g>
<g>
</g>
<g>
</g>
<g>
</g>
<g>
</g>
<g>
</g>
<g>
</g>
<g>
</g>
</svg>
