<?xml version="1.0" encoding="iso-8859-1"?>
<!-- Generator: Adobe Illustrator 19.0.0, SVG Export Plug-In . SVG Version: 6.00 Build 0)  -->
<svg version="1.1" id="Capa_1" xmlns="http://www.w3.org/2000/svg" xmlns:xlink="http://www.w3.org/1999/xlink" x="0px" y="0px"
	 viewBox="0 0 464 464" style="enable-background:new 0 0 464 464;" xml:space="preserve">
<path style="fill:#00F2A9;" d="M263.885,360c17.6,0,32-14.4,32-32V136c0-17.6-14.4-32-32-32h-128v256H263.885z"/>
<path style="fill:#322153;" d="M127.885,328v88h-56c-22.4,0-40,17.6-40,40c0,4.8,3.2,8,8,8h192c4.8,0,8-3.2,8-8
	c0-22.4-17.6-40-40-40h-56v-80h80.8c4,18.4,20,32,39.2,32h144c8,0,16-4,20.8-11.2c4-7.2,4.8-16,0.8-23.2l-48.8-97.6
	c-0.8-2.4-0.8-4.8,0-7.2l48.8-97.6c4-7.2,3.2-16-0.8-23.2c-4.8-8-12.8-12-20.8-12h-104.8c-4-18.4-20-32-39.2-32h-120V46.4
	c9.6-3.2,16-12,16-22.4c0-13.6-10.4-24-24-24s-24,10.4-24,24c0,10.4,6.4,19.2,16,22.4V72V328z M222.285,448h-172.8
	c3.2-9.6,12-16,22.4-16h128C210.285,432,219.085,438.4,222.285,448z M414.285,116c0.8,0.8,2.4,4,0,8l-48.8,97.6
	c-3.2,6.4-3.2,14.4,0,21.6l48.8,97.6c1.6,4,0,6.4,0,8c0,0.8-2.4,3.2-6.4,3.2h-144c-10.4,0-19.2-6.4-22.4-16h22.4
	c22.4,0,40-17.6,40-40v-88h24c4.8,0,8-3.2,8-8s-3.2-8-8-8h-24v-16h56c4.8,0,8-3.2,8-8s-3.2-8-8-8h-56v-16h24c4.8,0,8-3.2,8-8
	s-3.2-8-8-8h-24v-16h104C411.885,112,414.285,114.4,414.285,116z M263.885,80c13.6,0,24,10.4,24,24v192c0,13.6-10.4,24-24,24h-120
	v-48h24c4.8,0,8-3.2,8-8s-3.2-8-8-8h-24v-16h56c4.8,0,8-3.2,8-8s-3.2-8-8-8h-56v-16h24c4.8,0,8-3.2,8-8s-3.2-8-8-8h-24V80H263.885z
	 M135.885,16c4.8,0,8,3.2,8,8s-3.2,8-8,8s-8-3.2-8-8S131.085,16,135.885,16z"/>
<g>
</g>
<g>
</g>
<g>
</g>
<g>
</g>
<g>
</g>
<g>
</g>
<g>
</g>
<g>
</g>
<g>
</g>
<g>
</g>
<g>
</g>
<g>
</g>
<g>
</g>
<g>
</g>
<g>
</g>
</svg>
