<?xml version="1.0" encoding="iso-8859-1"?>
<!-- Generator: Adobe Illustrator 19.0.0, SVG Export Plug-In . SVG Version: 6.00 Build 0)  -->
<svg version="1.1" id="Capa_1" xmlns="http://www.w3.org/2000/svg" xmlns:xlink="http://www.w3.org/1999/xlink" x="0px" y="0px"
	 viewBox="0 0 464 464" style="enable-background:new 0 0 464 464;" xml:space="preserve">
<ellipse style="fill:#00F2A9;" cx="247.966" cy="199.997" rx="127.999" ry="127.999"/>
<g>
	<path style="fill:#322153;" d="M106.366,309.6c36.8,36.8,84.8,56,133.6,58.4v48h-56c-22.4,0-40,17.6-40,40c0,4.8,3.2,8,8,8h192
		c4.8,0,8-3.2,8-8c0-22.4-17.6-40-40-40h-56v-48c46.4-1.6,91.2-19.2,128-52.8l18.4,18.4c1.6,1.6,4,2.4,5.6,2.4s4-0.8,5.6-2.4
		c3.2-3.2,3.2-8,0-11.2l-24-24l-40-40c22.4-24.8,34.4-56.8,34.4-90.4c0-36-14.4-70.4-40-96s-60-40-96-40c-33.6,0-65.6,12-90.4,34.4
		l-40-40l-24-24c-3.2-3.2-8-3.2-11.2,0s-3.2,8,0,11.2l18.4,18.4C28.766,110.4,30.366,233.6,106.366,309.6z M334.366,448h-172.8
		c3.2-9.6,12-16,22.4-16h128C322.366,432,331.166,438.4,334.366,448z M117.566,298.4c-69.6-70.4-71.2-182.4-5.6-254.4l34.4,34.4
		c-22.4,24-34.4,56-34.4,89.6c0,36,14.4,70.4,40,96s60,40,96,40c33.6,0,65.6-12,90.4-34.4l34.4,34.4
		C299.966,369.6,187.966,368,117.566,298.4z M332.766,83.2c22.4,22.4,35.2,52.8,35.2,84.8s-12.8,62.4-35.2,84.8
		s-52.8,35.2-84.8,35.2s-62.4-12.8-84.8-35.2s-35.2-52.8-35.2-84.8s12.8-62.4,35.2-84.8s52.8-35.2,84.8-35.2
		S310.366,60.8,332.766,83.2z"/>
	<path style="fill:#322153;" d="M215.966,208c2.4,0,4-0.8,5.6-2.4l64-64c3.2-3.2,3.2-8,0-11.2s-8-3.2-11.2,0l-64,64
		c-3.2,3.2-3.2,8,0,11.2C211.966,207.2,213.566,208,215.966,208z"/>
	<path style="fill:#322153;" d="M215.966,176c2.4,0,4-0.8,5.6-2.4l32-32c3.2-3.2,3.2-8,0-11.2c-3.2-3.2-8-3.2-11.2,0l-32,32
		c-3.2,3.2-3.2,8,0,11.2C211.966,175.2,213.566,176,215.966,176z"/>
	<path style="fill:#322153;" d="M274.366,162.4l-32,32c-3.2,3.2-3.2,8,0,11.2c1.6,1.6,4,2.4,5.6,2.4s4-0.8,5.6-2.4l32-32
		c3.2-3.2,3.2-8,0-11.2S277.566,159.2,274.366,162.4z"/>
</g>
<g>
</g>
<g>
</g>
<g>
</g>
<g>
</g>
<g>
</g>
<g>
</g>
<g>
</g>
<g>
</g>
<g>
</g>
<g>
</g>
<g>
</g>
<g>
</g>
<g>
</g>
<g>
</g>
<g>
</g>
</svg>
