<?xml version="1.0" encoding="iso-8859-1"?>
<!-- Generator: Adobe Illustrator 19.0.0, SVG Export Plug-In . SVG Version: 6.00 Build 0)  -->
<svg version="1.1" id="Capa_1" xmlns="http://www.w3.org/2000/svg" xmlns:xlink="http://www.w3.org/1999/xlink" x="0px" y="0px"
	 viewBox="0 0 464 464" style="enable-background:new 0 0 464 464;" xml:space="preserve">
<path style="fill:#00F2A9;" d="M424,120c0-8.8-7.2-16-16-16H56c-8.8,0-16,7.2-16,16v240h384V120z M392,328H72V136h320V328z"/>
<g>
	<path style="fill:#322153;" d="M400,296V104c0-4.8-3.2-8-8-8H264c-4.8,0-8,3.2-8,8s3.2,8,8,8h120v176H80V112h120c4.8,0,8-3.2,8-8
		s-3.2-8-8-8H72c-4.8,0-8,3.2-8,8v192c0,4.8,3.2,8,8,8h320C396.8,304,400,300.8,400,296z"/>
	<path style="fill:#322153;" d="M269.6,162.4c-3.2-3.2-8-3.2-11.2,0l-64,64c-3.2,3.2-3.2,8,0,11.2c1.6,1.6,4,2.4,5.6,2.4
		s4-0.8,5.6-2.4l64-64C272.8,170.4,272.8,165.6,269.6,162.4z"/>
	<path style="fill:#322153;" d="M258.4,194.4l-32,32c-3.2,3.2-3.2,8,0,11.2c1.6,1.6,4,2.4,5.6,2.4s4-0.8,5.6-2.4l32-32
		c3.2-3.2,3.2-8,0-11.2S261.6,191.2,258.4,194.4z"/>
	<path style="fill:#322153;" d="M200,208c2.4,0,4-0.8,5.6-2.4l32-32c3.2-3.2,3.2-8,0-11.2s-8-3.2-11.2,0l-32,32
		c-3.2,3.2-3.2,8,0,11.2C196,207.2,197.6,208,200,208z"/>
	<circle style="fill:#322153;" cx="232" cy="104" r="8"/>
	<path style="fill:#322153;" d="M440,320h-8V88c0-13.6-10.4-24-24-24H56c-13.6,0-24,10.4-24,24v232h-8c-13.6,0-24,10.4-24,24v32
		c0,13.6,10.4,24,24,24h416c13.6,0,24-10.4,24-24v-32C464,330.4,453.6,320,440,320z M48,88c0-4.8,3.2-8,8-8h352c4.8,0,8,3.2,8,8v232
		H296c-4.8,0-8,3.2-8,8s3.2,8,8,8h24v16H144v-16h120c4.8,0,8-3.2,8-8s-3.2-8-8-8H48V88z M440,384H24c-4.8,0-8-3.2-8-8v-8h24
		c4.8,0,8-3.2,8-8s-3.2-8-8-8H16v-8c0-4.8,3.2-8,8-8h104v24c0,4.8,3.2,8,8,8h192c4.8,0,8-3.2,8-8v-24h104c4.8,0,8,3.2,8,8v8h-24
		c-4.8,0-8,3.2-8,8s3.2,8,8,8h24v8C448,380.8,444.8,384,440,384z"/>
</g>
<g>
</g>
<g>
</g>
<g>
</g>
<g>
</g>
<g>
</g>
<g>
</g>
<g>
</g>
<g>
</g>
<g>
</g>
<g>
</g>
<g>
</g>
<g>
</g>
<g>
</g>
<g>
</g>
<g>
</g>
</svg>
