<?xml version="1.0" encoding="iso-8859-1"?>
<!-- Generator: Adobe Illustrator 19.0.0, SVG Export Plug-In . SVG Version: 6.00 Build 0)  -->
<svg version="1.1" id="Capa_1" xmlns="http://www.w3.org/2000/svg" xmlns:xlink="http://www.w3.org/1999/xlink" x="0px" y="0px"
	 viewBox="0 0 488 488" style="enable-background:new 0 0 488 488;" xml:space="preserve">
<path style="fill:#00F2A9;" d="M36,488h32c8.8,0,16-7.2,16-16V184c0-8.8-7.2-16-16-16H36c-8.8,0-16,7.2-16,16v288
	C20,480.8,27.2,488,36,488z"/>
<g>
	<path style="fill:#322153;" d="M436,160h-64H266.4c-2.4,0-4.8-1.6-6.4-3.2c-1.6-2.4-1.6-4.8-0.8-7.2l15.2-44.8
		C280.8,84,284,62.4,284,40S266.4,0,244,0s-40,17.6-40,40c0,19.2-5.6,38.4-16.8,54.4l-6.4,9.6c-22.4,34.4-53.6,62.4-88.8,82.4V152
		c0-13.6-10.4-24-24-24H36c-13.6,0-24,10.4-24,24v288c0,13.6,10.4,24,24,24h32c13.6,0,24-10.4,24-24v-35.2l35.2,17.6
		c12,6.4,25.6,9.6,39.2,9.6H276h64c22.4,0,40-17.6,40-40c0-8.8-3.2-17.6-8-24l0,0c22.4,0,40-17.6,40-40c0-8.8-3.2-17.6-8-24l0,0
		c22.4,0,40-17.6,40-40c0-8.8-3.2-17.6-8-24l0,0c22.4,0,40-17.6,40-40S458.4,160,436,160z M372,224c-13.6,0-24-10.4-24-24
		s10.4-24,24-24h8v48H372z M340,288c-13.6,0-24-10.4-24-24s10.4-24,24-24h8v48H340z M308,352c-13.6,0-24-10.4-24-24s10.4-24,24-24h8
		v48H308z M276,416c-13.6,0-24-10.4-24-24s10.4-24,24-24h8v48H276z M236,17.6V40c0,16-11.2,21.6-18.4,23.2c1.6-8,2.4-15.2,2.4-23.2
		C220,29.6,226.4,20.8,236,17.6z M76,440c0,4.8-3.2,8-8,8H36c-4.8,0-8-3.2-8-8V152c0-4.8,3.2-8,8-8h32c4.8,0,8,3.2,8,8V440z
		 M134.4,408L92,387.2V204.8c40.8-21.6,76.8-52.8,102.4-92l6.4-9.6c4.8-7.2,8.8-15.2,12-23.2c13.6,0,39.2-9.6,39.2-40V17.6
		c9.6,3.2,16,12,16,22.4c0,20-3.2,40.8-9.6,60l-15.2,44.8c-2.4,7.2-1.6,15.2,3.2,21.6c4.8,6.4,12,9.6,19.2,9.6H340
		c-4.8,6.4-8,15.2-8,24s3.2,17.6,8,24l0,0c-22.4,0-40,17.6-40,40c0,8.8,3.2,17.6,8,24l0,0c-22.4,0-40,17.6-40,40
		c0,8.8,3.2,17.6,8,24l0,0c-22.4,0-40,17.6-40,40c0,8.8,3.2,17.6,8,24h-77.6C156,416,144.8,413.6,134.4,408z M364,392
		c0,13.6-10.4,24-24,24h-40v-48h8h32C353.6,368,364,378.4,364,392z M396,328c0,13.6-10.4,24-24,24h-32h-8v-48h8h32
		C385.6,304,396,314.4,396,328z M428,264c0,13.6-10.4,24-24,24h-32h-8v-48h8h32C417.6,240,428,250.4,428,264z M436,224h-32h-8v-48
		h40c13.6,0,24,10.4,24,24S449.6,224,436,224z"/>
	<circle style="fill:#322153;" cx="52" cy="424" r="8"/>
	<path style="fill:#322153;" d="M244,192c-4.8,0-8,3.2-8,8c0,57.6-46.4,104-104,104c-4.8,0-8,3.2-8,8s3.2,8,8,8
		c66.4,0,120-53.6,120-120C252,195.2,248.8,192,244,192z"/>
	<path style="fill:#322153;" d="M436,184c-4.8,0-8,3.2-8,8v16c0,4.8,3.2,8,8,8s8-3.2,8-8v-16C444,187.2,440.8,184,436,184z"/>
	<path style="fill:#322153;" d="M404,280c4.8,0,8-3.2,8-8v-16c0-4.8-3.2-8-8-8s-8,3.2-8,8v16C396,276.8,399.2,280,404,280z"/>
	<path style="fill:#322153;" d="M372,344c4.8,0,8-3.2,8-8v-16c0-4.8-3.2-8-8-8s-8,3.2-8,8v16C364,340.8,367.2,344,372,344z"/>
	<path style="fill:#322153;" d="M340,408c4.8,0,8-3.2,8-8v-16c0-4.8-3.2-8-8-8s-8,3.2-8,8v16C332,404.8,335.2,408,340,408z"/>
</g>
<g>
</g>
<g>
</g>
<g>
</g>
<g>
</g>
<g>
</g>
<g>
</g>
<g>
</g>
<g>
</g>
<g>
</g>
<g>
</g>
<g>
</g>
<g>
</g>
<g>
</g>
<g>
</g>
<g>
</g>
</svg>
