<?xml version="1.0" encoding="iso-8859-1"?>
<!-- Generator: Adobe Illustrator 19.0.0, SVG Export Plug-In . SVG Version: 6.00 Build 0)  -->
<svg version="1.1" id="Capa_1" xmlns="http://www.w3.org/2000/svg" xmlns:xlink="http://www.w3.org/1999/xlink" x="0px" y="0px"
	 viewBox="0 0 487.6 487.6" style="enable-background:new 0 0 487.6 487.6;" xml:space="preserve">
<g>
	<path style="fill:#00F2A9;" d="M349,200c-46.4-46.4-121.6-46.4-168,0l42.4,42.4l0,0c23.2-23.2,60.8-23.2,84,0l84,84
		c23.2,23.2,23.2,60.8,0,84s-60.8,23.2-84,0l-20.8-20.8c-12-12-30.4-12-42.4,0s-12,30.4,0,42.4l20.8,20.8
		c46.4,46.4,121.6,46.4,168,0c46.4-46.4,46.4-121.6,0-168L349,200z"/>
	<path style="fill:#00F2A9;" d="M55.4,74.4C9,120.8,9,196,55.4,242.4l84,84c46.4,46.4,121.6,46.4,168,0L265,284l0,0
		c-23.2,23.2-60.8,23.2-84,0l-84-84c-23.2-23.2-23.2-60.8,0-84s60.8-23.2,84,0l20.8,20.8c12,12,30.4,12,42.4,0s12-30.4,0-42.4
		l-20.8-20.8C177,27.2,101.8,27.2,55.4,74.4L55.4,74.4z"/>
</g>
<g>
	<path style="fill:#322153;" d="M354.6,162.4c-24-24-56-36.8-89.6-36.8s-65.6,13.6-89.6,36.8c-3.2,3.2-3.2,8,0,11.2l42.4,42.4
		c3.2,3.2,8,3.2,11.2,0c9.6-9.6,22.4-15.2,36-15.2s26.4,5.6,36,15.2l84,84c9.6,9.6,15.2,22.4,15.2,36c0,13.6-5.6,26.4-15.2,36
		c-9.6,9.6-22.4,15.2-36,15.2s-26.4-5.6-36-15.2l-20.8-20c-14.4-14.4-38.4-14.4-53.6,0c-14.4,14.4-14.4,38.4,0,53.6l20.8,20.8
		c24,24,56,36.8,89.6,36.8s65.6-13.6,89.6-36.8c24-23.2,36.8-56,36.8-89.6c0-33.6-13.6-65.6-36.8-89.6L354.6,162.4z M427.4,414.4
		c-20.8,20.8-48.8,32.8-78.4,32.8s-57.6-11.2-78.4-32.8l-20.8-20.8c-8.8-8.8-8.8-22.4,0-30.4c4-4,9.6-6.4,15.2-6.4
		s11.2,2.4,15.2,6.4L301,384c12.8,12.8,29.6,20,48,20s35.2-7.2,48-20s20-29.6,20-48c0-18.4-7.2-35.2-20-48l-84-83.2
		c-12.8-12.8-29.6-20-48-20c-15.2,0-29.6,4.8-41.6,14.4L192.2,168c20-17.6,45.6-27.2,72.8-27.2c29.6,0,57.6,11.2,78.4,32.8l84,84
		c20.8,20.8,32.8,48.8,32.8,78.4C460.2,365.6,449,393.6,427.4,414.4z"/>
	<path style="fill:#322153;" d="M49,216l84,84c24,24,56,36.8,89.6,36.8s65.6-13.6,89.6-36.8c3.2-3.2,3.2-8,0-11.2l-42.4-42.4
		c-3.2-3.2-8-3.2-11.2,0c-9.6,9.6-22.4,15.2-36,15.2s-26.4-5.6-36-15.2l-84-84c-9.6-9.6-15.2-22.4-15.2-36s5.6-26.4,15.2-36
		c9.6-9.6,22.4-15.2,36-15.2c13.6,0,26.4,5.6,36,15.2l20.8,20.8c14.4,14.4,38.4,14.4,53.6,0c14.4-14.4,14.4-38.4,0-53.6l-20.8-20.8
		c-24-24-56-36.8-89.6-36.8S73,13.6,49,36.8S12.2,92,12.2,126.4S25,192,49,216z M61,48c20.8-21.6,48.8-32.8,78.4-32.8
		S197,26.4,217.8,48l20.8,20.8c8.8,8.8,8.8,22.4,0,30.4s-22.4,8.8-30.4,0l-20.8-20.8c-12.8-12.8-29.6-20-48-20s-35.2,7.2-48,20
		s-20,29.6-20,48s7.2,35.2,20,48l84,84c12.8,12.8,29.6,20,48,20c15.2,0,29.6-4.8,41.6-14.4l31.2,31.2c-20,17.6-45.6,27.2-72.8,27.2
		c-29.6,0-57.6-11.2-78.4-32.8l-84-84.8c-21.6-21.6-32.8-48.8-32.8-78.4S39.4,68.8,61,48z"/>
	<path style="fill:#322153;" d="M110.6,97.6c-3.2,3.2-3.2,8,0,11.2l32,32c1.6,1.6,4,2.4,5.6,2.4s4-0.8,5.6-2.4c3.2-3.2,3.2-8,0-11.2
		l-32-32C118.6,94.4,113.8,94.4,110.6,97.6z"/>
	<path style="fill:#322153;" d="M372.2,367.2c2.4,0,4-0.8,5.6-2.4c3.2-3.2,3.2-8,0-11.2l-32-32c-3.2-3.2-8-3.2-11.2,0s-3.2,8,0,11.2
		l32,32C368.2,366.4,369.8,367.2,372.2,367.2z"/>
	<path style="fill:#322153;" d="M313.8,33.6c-3.2-3.2-8-3.2-11.2,0s-3.2,8,0,11.2l128,128c1.6,1.6,4,2.4,5.6,2.4s4-0.8,5.6-2.4
		c3.2-3.2,3.2-8,0-11.2L313.8,33.6z"/>
	<path style="fill:#322153;" d="M441.8,65.6l-32-32c-3.2-3.2-8-3.2-11.2,0s-3.2,8,0,11.2l32,32c1.6,1.6,4,2.4,5.6,2.4s4-0.8,5.6-2.4
		C445,73.6,445,68.8,441.8,65.6z"/>
	<path style="fill:#322153;" d="M180.2,431.2c2.4,0,4-0.8,5.6-2.4c3.2-3.2,3.2-8,0-11.2l-128-128c-3.2-3.2-8-3.2-11.2,0
		s-3.2,8,0,11.2l128,128C176.2,430.4,177.8,431.2,180.2,431.2z"/>
	<path style="fill:#322153;" d="M46.6,385.6c-3.2,3.2-3.2,8,0,11.2l32,32c1.6,1.6,4,2.4,5.6,2.4c1.6,0,4-0.8,5.6-2.4
		c3.2-3.2,3.2-8,0-11.2l-32-32C54.6,382.4,49.8,382.4,46.6,385.6z"/>
</g>
<g>
</g>
<g>
</g>
<g>
</g>
<g>
</g>
<g>
</g>
<g>
</g>
<g>
</g>
<g>
</g>
<g>
</g>
<g>
</g>
<g>
</g>
<g>
</g>
<g>
</g>
<g>
</g>
<g>
</g>
</svg>
