<?xml version="1.0" encoding="iso-8859-1"?>
<!-- Generator: Adobe Illustrator 19.0.0, SVG Export Plug-In . SVG Version: 6.00 Build 0)  -->
<svg version="1.1" id="Capa_1" xmlns="http://www.w3.org/2000/svg" xmlns:xlink="http://www.w3.org/1999/xlink" x="0px" y="0px"
	 viewBox="0 0 446.438 446.438" style="enable-background:new 0 0 446.438 446.438;" xml:space="preserve">
<path style="fill:#00F2A9;" d="M143.219,128.038l-74.4,24.8c-12.8,4-21.6,16.8-21.6,30.4v145.6c0,13.6,8.8,26.4,21.6,30.4l74.4,24.8
	V128.038z"/>
<g>
	<path style="fill:#322153;" d="M253.619,3.238l-114.4,85.6l-72.8,24c-16,5.6-27.2,20.8-27.2,37.6v145.6c0,17.6,11.2,32.8,27.2,37.6
		l72.8,24l114.4,85.6c3.2,2.4,6.4,3.2,9.6,3.2c2.4,0,4.8-0.8,7.2-1.6c5.6-2.4,8.8-8,8.8-14.4v-414.4c0-6.4-3.2-11.2-8.8-14.4
		C264.819-0.762,258.419-0.762,253.619,3.238z M151.219,348.038v-28c0-4.8-3.2-8-8-8s-8,3.2-8,8v20.8l-63.2-20.8
		c-9.6-3.2-16.8-12.8-16.8-22.4v-33.6h24c4.8,0,8-3.2,8-8s-3.2-8-8-8h-24v-16h56c4.8,0,8-3.2,8-8s-3.2-8-8-8h-56v-16h24
		c4.8,0,8-3.2,8-8s-3.2-8-8-8h-24v-32.8c0-10.4,6.4-19.2,16.8-22.4l63.2-20.8v180c0,4.8,3.2,8,8,8s8-3.2,8-8v-188l112-84v72h-24
		c-4.8,0-8,3.2-8,8s3.2,8,8,8h24v16h-56c-4.8,0-8,3.2-8,8s3.2,8,8,8h56v16h-24c-4.8,0-8,3.2-8,8s3.2,8,8,8h24v176h-24
		c-4.8,0-8,3.2-8,8s3.2,8,8,8h24v72L151.219,348.038z"/>
	<path style="fill:#322153;" d="M404.819,186.438c-3.2-3.2-8-3.2-11.2,0l-42.4,42.4l-42.4-42.4c-3.2-3.2-8-3.2-11.2,0s-3.2,8,0,11.2
		l42.4,42.4l-42.4,42.4c-3.2,3.2-3.2,8,0,11.2c1.6,1.6,4,2.4,5.6,2.4s4-0.8,5.6-2.4l42.4-42.4l42.4,42.4c1.6,1.6,4,2.4,5.6,2.4
		s4-0.8,5.6-2.4c3.2-3.2,3.2-8,0-11.2l-42.4-42.4l42.4-42.4C408.019,194.438,408.019,189.638,404.819,186.438z"/>
</g>
<g>
</g>
<g>
</g>
<g>
</g>
<g>
</g>
<g>
</g>
<g>
</g>
<g>
</g>
<g>
</g>
<g>
</g>
<g>
</g>
<g>
</g>
<g>
</g>
<g>
</g>
<g>
</g>
<g>
</g>
</svg>
