<?xml version="1.0" encoding="iso-8859-1"?>
<!-- Generator: Adobe Illustrator 19.0.0, SVG Export Plug-In . SVG Version: 6.00 Build 0)  -->
<svg version="1.1" id="Capa_1" xmlns="http://www.w3.org/2000/svg" xmlns:xlink="http://www.w3.org/1999/xlink" x="0px" y="0px"
	 viewBox="0 0 488 488" style="enable-background:new 0 0 488 488;" xml:space="preserve">
<path style="fill:#00F2A9;" d="M452,232h-51.2c-4-20.8-12-39.2-23.2-56l36-36c6.4-6.4,6.4-16,0-22.4l-22.4-22.4
	c-6.4-6.4-16-6.4-22.4,0L332,130.4c-16.8-11.2-36-19.2-56-23.2V56c0-8.8-7.2-16-16-16h-32c-8.8,0-16,7.2-16,16v51.2
	c-20,4-39.2,12-56,23.2l-36-36c-6.4-6.4-16-6.4-22.4,0l-22.4,22.4c-6.4,6.4-6.4,16,0,22.4l36,36C100,192,92,211.2,88,231.2H36
	c-8.8,0-16,7.2-16,16v32c0,8.8,7.2,16,16,16h51.2c4,20.8,12,39.2,23.2,56l-36,36c-6.4,6.4-6.4,16,0,22.4L96.8,432
	c6.4,6.4,16,6.4,22.4,0l36-36c16.8,11.2,36,19.2,56,23.2V472c0,8.8,7.2,16,16,16h32c8.8,0,16-7.2,16-16v-51.2c20-4,39.2-12,56-23.2
	l36,36c6.4,6.4,16,6.4,22.4,0l22.4-22.4c6.4-6.4,6.4-16,0-22.4L377.6,352c11.2-16.8,19.2-36,23.2-56H452c8.8,0,16-7.2,16-16v-32
	C468,239.2,460.8,232,452,232z M244,376c-61.6,0-112-50.4-112-112s50.4-112,112-112s112,50.4,112,112S305.6,376,244,376z"/>
<g>
	<path style="fill:#322153;" d="M452,192h-44.8c-4-16.8-10.4-32-19.2-47.2l32-32c9.6-9.6,9.6-24.8,0-33.6l-22.4-22.4
		c-9.6-9.6-24.8-9.6-33.6,0l-32,32c-14.4-8.8-30.4-15.2-47.2-19.2V24c0-13.6-10.4-24-24-24h-32c-13.6,0-24,10.4-24,24v44.8
		c-16.8,4-32,10.4-47.2,19.2l-32-32c-9.6-9.6-24.8-9.6-33.6,0L69.6,78.4C60,88,60,103.2,69.6,112l32,32
		c-8.8,14.4-15.2,30.4-19.2,47.2H36c-13.6,0-24,10.4-24,24v32c0,13.6,10.4,24,24,24h44.8c4,16.8,10.4,32,19.2,47.2l-32,32
		c-4.8,4.8-7.2,10.4-7.2,16.8S63.2,380,68,384l22.4,22.4c9.6,9.6,24.8,9.6,33.6,0l32-32c14.4,8.8,30.4,15.2,47.2,19.2V440
		c0,13.6,10.4,24,24,24h32c13.6,0,24-10.4,24-24v-44.8c16.8-4,32-10.4,47.2-19.2l32,32c9.6,9.6,24.8,9.6,33.6,0l22.4-22.4
		c4.8-4.8,7.2-10.4,7.2-16.8s-2.4-12.8-7.2-16.8l-32-32c8.8-14.4,15.2-30.4,19.2-47.2H452c13.6,0,24-10.4,24-24v-32
		C476,202.4,465.6,192,452,192z M460,248c0,4.8-3.2,8-8,8h-51.2c-4,0-7.2,2.4-8,6.4c-4,19.2-11.2,36.8-22.4,53.6
		c-2.4,3.2-1.6,7.2,0.8,10.4l36,36c1.6,1.6,2.4,3.2,2.4,5.6s-0.8,4-2.4,5.6L384.8,396c-3.2,3.2-8,3.2-11.2,0l-36-36
		c-2.4-2.4-7.2-3.2-10.4-0.8c-16,11.2-34.4,18.4-53.6,22.4c-4,0.8-6.4,4-6.4,8V440c0,4.8-3.2,8-8,8h-32c-4.8,0-8-3.2-8-8v-51.2
		c0-4-2.4-7.2-6.4-8c-19.2-4-36.8-11.2-53.6-22.4c-1.6-0.8-3.2-1.6-4.8-1.6c-2.4,0-4,0.8-5.6,2.4l-36,36c-3.2,3.2-8,3.2-11.2,0
		l-22.4-22.4c-1.6-1.6-2.4-3.2-2.4-5.6s0.8-4,2.4-5.6l36-36c2.4-2.4,3.2-7.2,0.8-10.4c-11.2-16-18.4-34.4-22.4-53.6
		c-0.8-4-4-6.4-8-6.4H36c-4.8,0-8-3.2-8-8v-32c0-4.8,3.2-8,8-8h51.2c4,0,7.2-2.4,8-6.4c4-19.2,11.2-36.8,22.4-53.6
		c2.4-3.2,1.6-7.2-0.8-10.4l-36-36c-3.2-3.2-3.2-8,0-11.2l22.4-22.4c3.2-3.2,8-3.2,11.2,0l36,36c2.4,2.4,7.2,3.2,10.4,0.8
		c16-11.2,34.4-18.4,53.6-22.4c4-0.8,6.4-4,6.4-8V24c0-4.8,3.2-8,8-8h32c4.8,0,8,3.2,8,8v51.2c0,4,2.4,7.2,6.4,8
		c19.2,4,36.8,11.2,53.6,22.4c3.2,2.4,7.2,1.6,10.4-0.8l36-36c3.2-3.2,8-3.2,11.2,0l22.4,22.4c3.2,3.2,3.2,8,0,11.2l-36.8,36
		c-2.4,2.4-3.2,7.2-0.8,10.4c11.2,16,18.4,34.4,22.4,53.6c0.8,4,4,6.4,8,6.4H452c4.8,0,8,3.2,8,8V248z"/>
	<path style="fill:#322153;" d="M244,128c-57.6,0-104,46.4-104,104s46.4,104,104,104s104-46.4,104-104S301.6,128,244,128z M244,320
		c-48.8,0-88-39.2-88-88s39.2-88,88-88s88,39.2,88,88S292.8,320,244,320z"/>
	<path style="fill:#322153;" d="M404,224h-24.8c-1.6-31.2-14.4-60-34.4-82.4l0,0l32-32c3.2-3.2,3.2-8,0-11.2s-8-3.2-11.2,0l-32,32
		l0,0c-22.4-20-50.4-32-82.4-34.4V72c0-4.8-3.2-8-8-8s-8,3.2-8,8v32c0,4.8,3.2,8,8,8c66.4,0,120,53.6,120,120c0,4.8,3.2,8,8,8h32
		c4.8,0,8-3.2,8-8S408.8,224,404,224z"/>
	<path style="fill:#322153;" d="M148,144c2.4,0,4-0.8,5.6-2.4c3.2-3.2,3.2-8,0-11.2l-32-32c-3.2-3.2-8-3.2-11.2,0s-3.2,8,0,11.2
		l32,32C144,143.2,145.6,144,148,144z"/>
	<path style="fill:#322153;" d="M334.4,322.4c-3.2,3.2-3.2,8,0,11.2l32,32c1.6,1.6,4,2.4,5.6,2.4s4-0.8,5.6-2.4
		c3.2-3.2,3.2-8,0-11.2l-32-32C342.4,319.2,337.6,319.2,334.4,322.4z"/>
	<path style="fill:#322153;" d="M244,352c-66.4,0-120-53.6-120-120c0-4.8-3.2-8-8-8H84c-4.8,0-8,3.2-8,8c0,4.8,3.2,8,8,8h24.8
		c1.6,31.2,14.4,60,34.4,82.4l0,0l-32,32c-3.2,3.2-3.2,8,0,11.2c1.6,1.6,4,2.4,5.6,2.4s4-0.8,5.6-2.4l32-32l0,0
		c22.4,20,50.4,32,82.4,34.4v24c0,4.8,3.2,8,8,8c4.8,0,8-3.2,8-8v-32C252,355.2,248.8,352,244,352z"/>
</g>
<g>
</g>
<g>
</g>
<g>
</g>
<g>
</g>
<g>
</g>
<g>
</g>
<g>
</g>
<g>
</g>
<g>
</g>
<g>
</g>
<g>
</g>
<g>
</g>
<g>
</g>
<g>
</g>
<g>
</g>
</svg>
