<?xml version="1.0" encoding="iso-8859-1"?>
<!-- Generator: Adobe Illustrator 19.0.0, SVG Export Plug-In . SVG Version: 6.00 Build 0)  -->
<svg version="1.1" id="Capa_1" xmlns="http://www.w3.org/2000/svg" xmlns:xlink="http://www.w3.org/1999/xlink" x="0px" y="0px"
	 viewBox="0 0 464 464" style="enable-background:new 0 0 464 464;" xml:space="preserve">
<circle style="fill:#00F2A9;" cx="232" cy="252.4" r="96"/>
<g>
	<path style="fill:#322153;" d="M440,148.4H307.2c-0.8-0.8-0.8-0.8-1.6-1.6c-20-20-47.2-31.2-76-31.2c-27.2,0-52.8,11.2-71.2,31.2
		c-0.8,0.8-0.8,0.8-0.8,1.6H24c-13.6,0-24,10.4-24,24v96c0,13.6,10.4,24,24,24h8v8c0,13.6,10.4,24,24,24h32c13.6,0,24-10.4,24-24v-8
		h45.6c0,0.8,0.8,0.8,0.8,1.6c20.8,20,48,30.4,74.4,30.4s52.8-10.4,72.8-30.4c0.8-0.8,0.8-0.8,1.6-1.6H352v8c0,13.6,10.4,24,24,24
		h32c13.6,0,24-10.4,24-24v-8h8c13.6,0,24-10.4,24-24v-96C464,158.8,453.6,148.4,440,148.4z M96,300.4c0,4.8-3.2,8-8,8H56
		c-4.8,0-8-3.2-8-8v-8h48V300.4z M169.6,282.8c-0.8-0.8-1.6-1.6-2.4-1.6c-1.6-3.2-4-4.8-7.2-4.8h-56H40H24c-4.8,0-8-3.2-8-8v-96
		c0-4.8,3.2-8,8-8h120.8c-10.4,16.8-16.8,36-16.8,56c0,4.8,3.2,8,8,8s8-3.2,8-8c0-23.2,9.6-44.8,25.6-62.4
		c16-16.8,36.8-25.6,60-25.6h0.8c23.2,0,46.4,9.6,63.2,25.6c34.4,34.4,34.4,89.6,0,124C260,316.4,205.6,316.4,169.6,282.8z
		 M416,300.4c0,4.8-3.2,8-8,8h-32c-4.8,0-8-3.2-8-8v-8h48V300.4z M448,268.4c0,4.8-3.2,8-8,8h-16h-64h-40.8
		c21.6-34.4,21.6-77.6,0-112H440c4.8,0,8,3.2,8,8V268.4z"/>
	<path style="fill:#322153;" d="M424,180.4h-64c-4.8,0-8,3.2-8,8c0,4.8,3.2,8,8,8h64c4.8,0,8-3.2,8-8
		C432,183.6,428.8,180.4,424,180.4z"/>
	<path style="fill:#322153;" d="M424,212.4h-32c-4.8,0-8,3.2-8,8s3.2,8,8,8h32c4.8,0,8-3.2,8-8S428.8,212.4,424,212.4z"/>
	<path style="fill:#322153;" d="M424,244.4h-64c-4.8,0-8,3.2-8,8s3.2,8,8,8h64c4.8,0,8-3.2,8-8S428.8,244.4,424,244.4z"/>
	<path style="fill:#322153;" d="M104,180.4H40c-4.8,0-8,3.2-8,8c0,4.8,3.2,8,8,8h64c4.8,0,8-3.2,8-8
		C112,183.6,108.8,180.4,104,180.4z"/>
	<path style="fill:#322153;" d="M40,228.4h32c4.8,0,8-3.2,8-8s-3.2-8-8-8H40c-4.8,0-8,3.2-8,8S35.2,228.4,40,228.4z"/>
	<path style="fill:#322153;" d="M104,244.4H40c-4.8,0-8,3.2-8,8s3.2,8,8,8h64c4.8,0,8-3.2,8-8S108.8,244.4,104,244.4z"/>
	<path style="fill:#322153;" d="M296,212.4c-4.8,0-8,3.2-8,8c0,31.2-24.8,56-56,56s-56-24.8-56-56s24.8-56,56-56c4.8,0,8-3.2,8-8
		c0-4.8-3.2-8-8-8c-40,0-72,32-72,72s32,72,72,72s72-32,72-72C304,215.6,300.8,212.4,296,212.4z"/>
	<path style="fill:#322153;" d="M194.4,258c1.6,1.6,4,2.4,5.6,2.4s4-0.8,5.6-2.4l64-64c3.2-3.2,3.2-8,0-11.2c-3.2-3.2-8-3.2-11.2,0
		l-64,64C191.2,250,191.2,254.8,194.4,258z"/>
	<path style="fill:#322153;" d="M200,228.4c2.4,0,4-0.8,5.6-2.4l32-32c3.2-3.2,3.2-8,0-11.2c-3.2-3.2-8-3.2-11.2,0l-32,32
		c-3.2,3.2-3.2,8,0,11.2C196,227.6,197.6,228.4,200,228.4z"/>
	<path style="fill:#322153;" d="M258.4,214.8l-32,32c-3.2,3.2-3.2,8,0,11.2c1.6,1.6,4,2.4,5.6,2.4s4-0.8,5.6-2.4l32-32
		c3.2-3.2,3.2-8,0-11.2C266.4,211.6,261.6,211.6,258.4,214.8z"/>
</g>
<g>
</g>
<g>
</g>
<g>
</g>
<g>
</g>
<g>
</g>
<g>
</g>
<g>
</g>
<g>
</g>
<g>
</g>
<g>
</g>
<g>
</g>
<g>
</g>
<g>
</g>
<g>
</g>
<g>
</g>
</svg>
