<?xml version="1.0" encoding="iso-8859-1"?>
<!-- Generator: Adobe Illustrator 19.0.0, SVG Export Plug-In . SVG Version: 6.00 Build 0)  -->
<svg version="1.1" id="Capa_1" xmlns="http://www.w3.org/2000/svg" xmlns:xlink="http://www.w3.org/1999/xlink" x="0px" y="0px"
	 viewBox="0 0 464 464" style="enable-background:new 0 0 464 464;" xml:space="preserve">
<rect x="8" y="168" style="fill:#00F2A9;" width="448" height="64"/>
<g>
	<path style="fill:#322153;" d="M392,256c-22.4,0-40,17.6-40,40s17.6,40,40,40s40-17.6,40-40S414.4,256,392,256z M392,320
		c-13.6,0-24-10.4-24-24s10.4-24,24-24s24,10.4,24,24S405.6,320,392,320z"/>
	<path style="fill:#322153;" d="M40,400h384c22.4,0,40-17.6,40-40V200v-64v-32c0-22.4-17.6-40-40-40H40C17.6,64,0,81.6,0,104v32v64
		v160C0,382.4,17.6,400,40,400z M424,384H40c-13.6,0-24-10.4-24-24V208h432v152C448,373.6,437.6,384,424,384z M16,144h432v48H16V144
		z M40,80h384c13.6,0,24,10.4,24,24v24H16v-24C16,90.4,26.4,80,40,80z"/>
	<path style="fill:#322153;" d="M72,320H40c-4.8,0-8,3.2-8,8s3.2,8,8,8h32c4.8,0,8-3.2,8-8S76.8,320,72,320z"/>
	<path style="fill:#322153;" d="M136,320h-32c-4.8,0-8,3.2-8,8s3.2,8,8,8h32c4.8,0,8-3.2,8-8S140.8,320,136,320z"/>
	<path style="fill:#322153;" d="M200,320h-32c-4.8,0-8,3.2-8,8s3.2,8,8,8h32c4.8,0,8-3.2,8-8S204.8,320,200,320z"/>
	<path style="fill:#322153;" d="M264,320h-32c-4.8,0-8,3.2-8,8s3.2,8,8,8h32c4.8,0,8-3.2,8-8S268.8,320,264,320z"/>
	<path style="fill:#322153;" d="M40,304h128c4.8,0,8-3.2,8-8s-3.2-8-8-8H40c-4.8,0-8,3.2-8,8S35.2,304,40,304z"/>
</g>
<g>
</g>
<g>
</g>
<g>
</g>
<g>
</g>
<g>
</g>
<g>
</g>
<g>
</g>
<g>
</g>
<g>
</g>
<g>
</g>
<g>
</g>
<g>
</g>
<g>
</g>
<g>
</g>
<g>
</g>
</svg>
