<?xml version="1.0" encoding="iso-8859-1"?>
<!-- Generator: Adobe Illustrator 19.0.0, SVG Export Plug-In . SVG Version: 6.00 Build 0)  -->
<svg version="1.1" id="Capa_1" xmlns="http://www.w3.org/2000/svg" xmlns:xlink="http://www.w3.org/1999/xlink" x="0px" y="0px"
	 viewBox="0 0 488 488" style="enable-background:new 0 0 488 488;" xml:space="preserve">
<g>
	<path style="fill:#00F2A9;" d="M356,328c-44,0-80,36-80,80s36,80,80,80s80-36,80-80S400,328,356,328z M356,456
		c-26.4,0-48-21.6-48-48s21.6-48,48-48s48,21.6,48,48S382.4,456,356,456z"/>
	<path style="fill:#00F2A9;" d="M212,408c0-44-36-80-80-80s-80,36-80,80s36,80,80,80S212,452,212,408z M84,408c0-26.4,21.6-48,48-48
		s48,21.6,48,48s-21.6,48-48,48S84,434.4,84,408z"/>
</g>
<g>
	<path style="fill:#322153;" d="M356,288c-16.8,0-32,4.8-45.6,12.8l-25.6-62.4l70.4-168c6.4-16,4.8-33.6-4.8-47.2
		C340.8,8.8,324.8,0,308,0c-3.2,0-6.4,1.6-7.2,4.8l-56.8,136l-56.8-136c-0.8-3.2-4-4.8-7.2-4.8c-16.8,0-32.8,8.8-42.4,22.4
		c-9.6,14.4-11.2,32-4.8,47.2l70.4,168L177.6,300c-13.6-7.2-28.8-12-45.6-12c-48.8,0-88,39.2-88,88s39.2,88,88,88
		c40.8,0,75.2-28,84.8-65.6c0.8-0.8,1.6-1.6,2.4-3.2L244,336l24.8,59.2c0.8,1.6,1.6,2.4,2.4,3.2c9.6,37.6,44,65.6,84.8,65.6
		c48.8,0,88-39.2,88-88S404.8,288,356,288z M312.8,16c9.6,1.6,18.4,6.4,24,15.2c6.4,9.6,8,21.6,3.2,32.8l-64,153.6l-23.2-56
		L312.8,16z M151.2,31.2c5.6-8,14.4-13.6,24-15.2l122.4,294.4c-13.6,12-23.2,28-27.2,46.4L148,64C143.2,52.8,144.8,41.6,151.2,31.2z
		 M132,448c-40,0-72-32-72-72s32-72,72-72s72,32,72,72S172,448,132,448z M217.6,356.8c-4-18.4-13.6-34.4-27.2-46.4l21.6-51.2
		l23.2,56L217.6,356.8z M356,448c-40,0-72-32-72-72s32-72,72-72s72,32,72,72S396,448,356,448z"/>
	<path style="fill:#322153;" d="M356,320c-31.2,0-56,24.8-56,56s24.8,56,56,56s56-24.8,56-56S387.2,320,356,320z M356,416
		c-22.4,0-40-17.6-40-40s17.6-40,40-40s40,17.6,40,40S378.4,416,356,416z"/>
	<path style="fill:#322153;" d="M132,320c-31.2,0-56,24.8-56,56s24.8,56,56,56s56-24.8,56-56S163.2,320,132,320z M132,416
		c-22.4,0-40-17.6-40-40s17.6-40,40-40s40,17.6,40,40S154.4,416,132,416z"/>
	<circle style="fill:#322153;" cx="244" cy="232" r="16"/>
	<path style="fill:#322153;" d="M276,314.4c0.8,0,2.4,0,3.2-0.8c4-1.6,5.6-6.4,4-10.4l-18.4-42.4c-1.6-4-6.4-5.6-10.4-4
		s-5.6,6.4-4,10.4l18.4,42.4C269.6,312.8,272.8,314.4,276,314.4z"/>
	<path style="fill:#322153;" d="M283.2,160.8L320,76c1.6-4,0-8.8-4-10.4s-8.8,0-10.4,4l-36.8,84.8c-1.6,4,0,8.8,4,10.4
		c0.8,0.8,2.4,0.8,3.2,0.8C279.2,165.6,282.4,164,283.2,160.8z"/>
</g>
<g>
</g>
<g>
</g>
<g>
</g>
<g>
</g>
<g>
</g>
<g>
</g>
<g>
</g>
<g>
</g>
<g>
</g>
<g>
</g>
<g>
</g>
<g>
</g>
<g>
</g>
<g>
</g>
<g>
</g>
</svg>
