<?xml version="1.0" encoding="iso-8859-1"?>
<!-- Generator: Adobe Illustrator 19.0.0, SVG Export Plug-In . SVG Version: 6.00 Build 0)  -->
<svg version="1.1" id="Capa_1" xmlns="http://www.w3.org/2000/svg" xmlns:xlink="http://www.w3.org/1999/xlink" x="0px" y="0px"
	 viewBox="0 0 488 488" style="enable-background:new 0 0 488 488;" xml:space="preserve">
<polygon style="fill:#00F2A9;" points="244,168 212,200 212,232 180,392 244,488 308,392 276,232 276,200 "/>
<g>
	<path style="fill:#322153;" d="M379.2,4.8c0-0.8-0.8-0.8-0.8-1.6c0,0,0-0.8-0.8-0.8c-0.8-0.8-1.6-0.8-2.4-1.6l0,0l0,0
		C374.4,0,373.6,0,372,0l0,0H116l0,0c-0.8,0-1.6,0-2.4,0.8l0,0l0,0c-0.8,0-1.6,0.8-2.4,1.6c0,0,0,0-0.8,0.8s-0.8,0.8-0.8,1.6v0.8
		C108,6.4,108,7.2,108,8v32c0,0.8,0,2.4,0.8,3.2l64,160c0.8,2.4,3.2,4,5.6,4.8c0.8,0,0.8,0,1.6,0c2.4,0,4-0.8,5.6-2.4l18.4-18.4v12
		l-32,159.2c-0.8,2.4,0,4,0.8,6.4l64,96c1.6,2.4,4,3.2,6.4,3.2s4.8-1.6,6.4-3.2l64-96c0.8-1.6,1.6-4,0.8-6.4l-32-159.2v-12
		l18.4,18.4c1.6,1.6,3.2,2.4,5.6,2.4c0.8,0,0.8,0,1.6,0c2.4-0.8,4.8-2.4,5.6-4.8l64-160c2.4-0.8,2.4-2.4,2.4-3.2V8
		C380,7.2,380,6.4,379.2,4.8L379.2,4.8z M244,124.8L167.2,48h153.6L244,124.8z M336.8,32H151.2l-16-16h217.6L336.8,32z M183.2,185.6
		L124,38.4V27.2l18.4,18.4l0,0l90.4,90.4l-26.4,26.4L183.2,185.6z M299.2,358.4L244,441.6l-55.2-83.2L218.4,208H244c4.8,0,8-3.2,8-8
		s-3.2-8-8-8h-24v-20.8l24-24l24,24V200c0,0.8,0,0.8,0,1.6L299.2,358.4z M364,38.4l-59.2,147.2l-23.2-23.2L255.2,136l90.4-90.4l0,0
		L364,27.2V38.4z"/>
	<path style="fill:#322153;" d="M206.4,365.6c1.6,1.6,4,2.4,5.6,2.4s4-0.8,5.6-2.4l64-64c3.2-3.2,3.2-8,0-11.2s-8-3.2-11.2,0l-64,64
		C203.2,357.6,203.2,362.4,206.4,365.6z"/>
	<path style="fill:#322153;" d="M212,336c2.4,0,4-0.8,5.6-2.4l32-32c3.2-3.2,3.2-8,0-11.2s-8-3.2-11.2,0l-32,32
		c-3.2,3.2-3.2,8,0,11.2C208,335.2,209.6,336,212,336z"/>
	<path style="fill:#322153;" d="M270.4,322.4l-32,32c-3.2,3.2-3.2,8,0,11.2c1.6,1.6,4,2.4,5.6,2.4s4-0.8,5.6-2.4l32-32
		c3.2-3.2,3.2-8,0-11.2S273.6,319.2,270.4,322.4z"/>
</g>
<g>
</g>
<g>
</g>
<g>
</g>
<g>
</g>
<g>
</g>
<g>
</g>
<g>
</g>
<g>
</g>
<g>
</g>
<g>
</g>
<g>
</g>
<g>
</g>
<g>
</g>
<g>
</g>
<g>
</g>
</svg>
