<?xml version="1.0" encoding="iso-8859-1"?>
<!-- Generator: Adobe Illustrator 19.0.0, SVG Export Plug-In . SVG Version: 6.00 Build 0)  -->
<svg version="1.1" id="Capa_1" xmlns="http://www.w3.org/2000/svg" xmlns:xlink="http://www.w3.org/1999/xlink" x="0px" y="0px"
	 viewBox="0 0 464.133 464.133" style="enable-background:new 0 0 464.133 464.133;" xml:space="preserve">
<g>
	<path style="fill:#00F2A9;" d="M238.467,40.133c-73.6-3.2-134.4,55.2-134.4,128v192c0-32.8,12-62.4,32-84.8v-107.2
		c0-53.6,44-96.8,97.6-96c52.8,0.8,94.4,46.4,94.4,99.2v12.8c0,8.8,7.2,16,16,16c4,0,8-1.6,11.2-4.8s4.8-7.2,4.8-11.2v-12.8
		C360.067,102.533,307.267,43.333,238.467,40.133z"/>
	<path style="fill:#00F2A9;" d="M344.067,232.133c-8.8,0-16,7.2-16,16v27.2c20,22.4,32,52,32,84.8v-112c0-4.8-1.6-8.8-4.8-11.2
		C352.067,233.733,348.067,232.133,344.067,232.133z"/>
</g>
<g>
	<path style="fill:#322153;" d="M238.467,0.133c-37.6-1.6-73.6,11.2-100.8,37.6c-26.4,25.6-41.6,60.8-41.6,98.4v192
		c0,75.2,60.8,136,136,136s136-60.8,136-136v-112c0-6.4-2.4-12.8-7.2-16.8c-4-4.8-10.4-7.2-16.8-7.2c-13.6,0-24,10.4-24,24v8.8
		c-24.8-20.8-55.2-32.8-88-32.8s-63.2,12-88,32.8v-88.8c0-24,9.6-46.4,26.4-62.4c16.8-16.8,39.2-25.6,63.2-25.6
		c48,0.8,86.4,41.6,86.4,91.2v12.8c0,13.6,10.4,24,24,24c6.4,0,12.8-2.4,16.8-7.2c4.8-4.8,7.2-10.4,7.2-16.8v-12
		C368.067,64.933,311.267,3.333,238.467,0.133z M336.067,216.133c0-4.8,3.2-8,8-8c2.4,0,4,0.8,5.6,2.4c1.6,1.6,2.4,3.2,2.4,5.6v48
		c-0.8-0.8-0.8-1.6-1.6-2.4c-1.6-2.4-2.4-4.8-4-7.2c-0.8-1.6-1.6-3.2-3.2-4c-1.6-2.4-3.2-4.8-5.6-7.2c-0.8-0.8-1.6-1.6-2.4-2.4
		v-24.8H336.067z M232.067,208.133c34.4,0,67.2,14.4,90.4,40.8c10.4,12,17.6,24.8,23.2,39.2h-17.6c-4.8,0-8,3.2-8,8s3.2,8,8,8h21.6
		c0.8,5.6,1.6,10.4,2.4,16h-56c-4.8,0-8,3.2-8,8s3.2,8,8,8h55.2c0,5.6-0.8,10.4-2.4,16h-20.8c-4.8,0-8,3.2-8,8s3.2,8,8,8h16.8
		c-16.8,46.4-60.8,80-112.8,80c-66.4,0-120-53.6-120-120c0-11.2,1.6-21.6,4-32c4.8-17.6,13.6-33.6,25.6-47.2
		C164.867,222.533,197.667,208.133,232.067,208.133z M352.067,152.133c0,2.4-0.8,4-2.4,5.6c-1.6,1.6-3.2,2.4-5.6,2.4
		c-4.8,0-8-3.2-8-8v-12.8c0-58.4-45.6-106.4-102.4-107.2c-28,0-54.4,10.4-74.4,29.6c-20,20-31.2,46.4-31.2,74.4v104
		c-0.8,0.8-1.6,1.6-2.4,3.2c-1.6,2.4-3.2,4.8-4.8,7.2c-0.8,1.6-1.6,3.2-3.2,4c-1.6,2.4-3.2,4.8-4,7.2c-0.8,0.8-0.8,1.6-1.6,2.4v-128
		c0-32.8,12.8-64,36.8-86.4c23.2-21.6,52-33.6,83.2-33.6c1.6,0,4,0,5.6,0c64,3.2,114.4,57.6,114.4,123.2V152.133z"/>
	<path style="fill:#322153;" d="M192.067,328.133c0,19.2,13.6,35.2,32,39.2v24.8c0,4.8,3.2,8,8,8c4.8,0,8-3.2,8-8v-24.8
		c18.4-4,32-20,32-39.2c0-22.4-17.6-40-40-40S192.067,305.733,192.067,328.133z M256.067,328.133c0,13.6-10.4,24-24,24
		s-24-10.4-24-24s10.4-24,24-24S256.067,314.533,256.067,328.133z"/>
	<path style="fill:#322153;" d="M136.067,336.133c4.8,0,8-3.2,8-8c0-48.8,39.2-88,88-88c4.8,0,8-3.2,8-8s-3.2-8-8-8
		c-57.6,0-104,46.4-104,104C128.067,332.933,131.267,336.133,136.067,336.133z"/>
</g>
<g>
</g>
<g>
</g>
<g>
</g>
<g>
</g>
<g>
</g>
<g>
</g>
<g>
</g>
<g>
</g>
<g>
</g>
<g>
</g>
<g>
</g>
<g>
</g>
<g>
</g>
<g>
</g>
<g>
</g>
</svg>
