<?xml version="1.0" encoding="iso-8859-1"?>
<!-- Generator: Adobe Illustrator 19.0.0, SVG Export Plug-In . SVG Version: 6.00 Build 0)  -->
<svg version="1.1" id="Capa_1" xmlns="http://www.w3.org/2000/svg" xmlns:xlink="http://www.w3.org/1999/xlink" x="0px" y="0px"
	 viewBox="0 0 468 468" style="enable-background:new 0 0 468 468;" xml:space="preserve">
<path style="fill:#00F2A9;" d="M234,170c-52.8,0-96,43.2-96,96s43.2,96,96,96s96-43.2,96-96C277.2,266,234,222.8,234,170z"/>
<g>
	<path style="fill:#322153;" d="M234,98C114,98,14.8,210.8,3.6,223.6c-4.8,5.6-4.8,14.4,0,20.8C14.8,257.2,114,370,234,370
		s219.2-112.8,230.4-125.6c4.8-5.6,4.8-14.4,0-20.8C453.2,210.8,354,98,234,98z M50.8,268.4l60.8-60.8c3.2-3.2,3.2-8,0-11.2
		s-8-3.2-11.2,0L38.8,258c-13.6-12.8-21.6-22.4-22.4-24c4-4.8,103.2-120,217.6-120c79.2,0,150.4,54.4,188.8,90.4
		c-8,7.2-13.6,18.4-13.6,29.6s4.8,22.4,13.6,29.6C384.4,299.6,313.2,354,234,354C158.8,354,90,304.4,50.8,268.4z M434,252.4
		c-5.6-4.8-8.8-11.2-8.8-18.4c0-7.2,3.2-13.6,8.8-18.4c10.4,10.4,16.8,17.6,17.6,18.4C450.8,235.6,444.4,242.8,434,252.4z"/>
	<path style="fill:#322153;" d="M330,226c-10.4,0-20.8-1.6-29.6-5.6c-3.2-0.8-5.6-2.4-8-3.2c0,0-0.8,0-0.8-0.8
		c-2.4-1.6-4.8-2.4-7.2-4c-0.8,0-0.8-0.8-1.6-0.8c-2.4-1.6-4.8-3.2-6.4-4.8l-0.8-0.8c-4.8-4-9.6-8-13.6-13.6l-0.8-0.8
		c-1.6-2.4-3.2-4-4.8-6.4c0,0-0.8-0.8-0.8-1.6c-1.6-2.4-3.2-4.8-4-7.2c0,0,0-0.8-0.8-0.8c-1.6-2.4-2.4-5.6-3.2-8
		c-4-8.8-5.6-19.2-5.6-29.6c0-4.8-3.2-8-8-8c-28.8,0-54.4,11.2-73.6,30.4l0,0l0,0C141.2,179.6,130,205.2,130,234
		s11.2,54.4,30.4,73.6l0,0l0,0C179.6,326,205.2,338,234,338s54.4-11.2,73.6-30.4l0,0l0,0C326,288.4,338,262.8,338,234
		C338,229.2,334.8,226,330,226z M290,234L290,234c0,31.2-24.8,56-56,56s-56-24.8-56-56s24.8-56,56-56l0,0l0,0c0.8,3.2,2.4,5.6,4,8
		c0,0,0,0.8,0.8,0.8c1.6,2.4,2.4,4.8,4,7.2c0,0.8,0.8,0.8,0.8,1.6c1.6,2.4,3.2,4,4.8,6.4c0.8,0.8,0.8,0.8,1.6,1.6
		c4,4.8,8.8,9.6,13.6,13.6c0.8,0.8,0.8,0.8,1.6,1.6c2.4,1.6,4,3.2,6.4,4.8c0.8,0,0.8,0.8,1.6,0.8c2.4,1.6,4.8,3.2,7.2,4
		c0,0,0.8,0,0.8,0.8C284.4,231.6,286.8,232.4,290,234L290,234z M146.8,242h16c1.6,13.6,7.2,26.4,15.2,36.8L166.8,290
		C155.6,277.2,148.4,260.4,146.8,242z M166.8,178l11.2,11.2c-8,10.4-13.6,23.2-15.2,36.8h-16C148.4,207.6,155.6,190.8,166.8,178z
		 M189.2,290c10.4,8,23.2,13.6,36.8,15.2v16c-18.4-1.6-35.2-8.8-48-20L189.2,290z M242,305.2c13.6-1.6,26.4-7.2,36.8-15.2l11.2,11.2
		c-13.6,11.2-29.6,18.4-48,20V305.2z M229.2,162c-15.2,0.8-28.8,6.4-40,15.2L178,166.8c13.6-11.2,30.4-18.4,48.8-20
		C226.8,151.6,227.6,157.2,229.2,162z M301.2,290L290,278.8c8.8-11.2,14.4-24.8,15.2-40c4.8,1.6,10.4,2.4,16,2.4
		C320.4,260.4,312.4,277.2,301.2,290z"/>
	<path style="fill:#322153;" d="M68.4,196.4l-32,32c-3.2,3.2-3.2,8,0,11.2c1.6,1.6,3.2,2.4,5.6,2.4s4-0.8,5.6-2.4l32-32
		c3.2-3.2,3.2-8,0-11.2S71.6,193.2,68.4,196.4z"/>
	<path style="fill:#322153;" d="M100.4,228.4l-32,32c-3.2,3.2-3.2,8,0,11.2c1.6,1.6,4,2.4,5.6,2.4s4-0.8,5.6-2.4l32-32
		c3.2-3.2,3.2-8,0-11.2S103.6,225.2,100.4,228.4z"/>
</g>
<g>
</g>
<g>
</g>
<g>
</g>
<g>
</g>
<g>
</g>
<g>
</g>
<g>
</g>
<g>
</g>
<g>
</g>
<g>
</g>
<g>
</g>
<g>
</g>
<g>
</g>
<g>
</g>
<g>
</g>
</svg>
