<?xml version="1.0" encoding="iso-8859-1"?>
<!-- Generator: Adobe Illustrator 19.0.0, SVG Export Plug-In . SVG Version: 6.00 Build 0)  -->
<svg version="1.1" id="Capa_1" xmlns="http://www.w3.org/2000/svg" xmlns:xlink="http://www.w3.org/1999/xlink" x="0px" y="0px"
	 viewBox="0 0 446.438 446.438" style="enable-background:new 0 0 446.438 446.438;" xml:space="preserve">
<path style="fill:#00F2A9;" d="M47.219,183.238v145.6c0,13.6,8.8,26.4,21.6,30.4l74.4,24.8v-256l-74.4,24.8
	C56.019,156.838,47.219,169.638,47.219,183.238z"/>
<g>
	<path style="fill:#322153;" d="M270.419,1.638c-5.6-2.4-12-2.4-16.8,1.6l-114.4,85.6l-72.8,24c-16,5.6-27.2,20.8-27.2,37.6v145.6
		c0,17.6,11.2,32.8,27.2,37.6l72.8,24l114.4,85.6c3.2,2.4,6.4,3.2,9.6,3.2c2.4,0,4.8-0.8,7.2-1.6c5.6-2.4,8.8-8,8.8-14.4v-414.4
		C279.219,9.638,276.019,4.838,270.419,1.638z M151.219,348.038v-28c0-4.8-3.2-8-8-8s-8,3.2-8,8v20.8l-63.2-20.8
		c-10.4-3.2-16.8-12.8-16.8-23.2v-32.8h24c4.8,0,8-3.2,8-8s-3.2-8-8-8h-24v-16h56c4.8,0,8-3.2,8-8s-3.2-8-8-8h-56v-16h24
		c4.8,0,8-3.2,8-8s-3.2-8-8-8h-24v-32.8c0-10.4,6.4-19.2,16.8-22.4l63.2-20.8v180c0,4.8,3.2,8,8,8s8-3.2,8-8v-188l112-84v72h-24
		c-4.8,0-8,3.2-8,8s3.2,8,8,8h24v16h-56c-4.8,0-8,3.2-8,8s3.2,8,8,8h56v16h-24c-4.8,0-8,3.2-8,8s3.2,8,8,8h24v176h-24
		c-4.8,0-8,3.2-8,8s3.2,8,8,8h24v72L151.219,348.038z"/>
	<path style="fill:#322153;" d="M326.419,200.838c-3.2-3.2-8-3.2-11.2,0s-3.2,8,0,11.2c7.2,7.2,12,17.6,12,28s-4,20.8-12,28
		c-3.2,3.2-3.2,8,0,11.2c1.6,1.6,4,2.4,5.6,2.4s4-0.8,5.6-2.4c10.4-10.4,16.8-24.8,16.8-39.2S337.619,211.238,326.419,200.838z"/>
	<path style="fill:#322153;" d="M349.619,177.638c-3.2-3.2-8-3.2-11.2,0s-3.2,8,0,11.2c28,28,28,73.6,0,101.6c-3.2,3.2-3.2,8,0,11.2
		c1.6,1.6,4,2.4,5.6,2.4s4-0.8,5.6-2.4C384.019,268.038,384.019,212.038,349.619,177.638z"/>
	<path style="fill:#322153;" d="M360.819,155.238c-3.2,3.2-3.2,8,0,11.2c20,20,30.4,45.6,30.4,73.6s-11.2,53.6-30.4,73.6
		c-3.2,3.2-3.2,8,0,11.2c1.6,1.6,4,2.4,5.6,2.4s4-0.8,5.6-2.4c22.4-22.4,35.2-52.8,35.2-84.8s-12.8-62.4-35.2-84.8
		C368.819,152.038,364.019,152.038,360.819,155.238z"/>
</g>
<g>
</g>
<g>
</g>
<g>
</g>
<g>
</g>
<g>
</g>
<g>
</g>
<g>
</g>
<g>
</g>
<g>
</g>
<g>
</g>
<g>
</g>
<g>
</g>
<g>
</g>
<g>
</g>
<g>
</g>
</svg>
